<svg width="236" height="269" viewBox="0 0 236 269" fill="none" xmlns="http://www.w3.org/2000/svg">
<path d="M0 0H236V269H0V0Z" fill="#F5EDDD"/>
<path fill-rule="evenodd" clip-rule="evenodd" d="M232 4H4V265H232V4ZM0 0V269H236V0H0Z" fill="#424242"/>
<path d="M111.99 154C106.39 154 101.19 153.033 96.3897 151.1C91.6564 149.167 87.8231 146.233 84.8897 142.3C81.9564 138.3 80.4897 133.333 80.4897 127.4C80.4897 122.467 81.9231 118.2 84.7897 114.6C87.6564 110.933 91.7231 108.667 96.9897 107.8V107.5C92.7897 104.367 90.6897 100.467 90.6897 95.8C90.6897 91.4 92.2897 87.8667 95.4897 85.2C98.6897 82.5333 103.09 81.2 108.69 81.2C112.69 81.2 116.056 82.1 118.79 83.9C121.523 85.6333 122.89 88.2 122.89 91.6C122.89 93.7333 122.256 95.5667 120.99 97.1C119.79 98.6333 118.156 99.4 116.09 99.4C114.823 99.4 113.723 99.0667 112.79 98.4C111.923 97.7333 111.49 97.1667 111.49 96.7C111.49 96.6333 111.79 96.3333 112.39 95.8C112.99 95.2667 113.523 94.6333 113.99 93.9C114.523 93.1 114.79 92.2 114.79 91.2C114.79 89.2667 114.09 87.7333 112.69 86.6C111.356 85.4 109.656 84.8 107.59 84.8C104.39 84.8 101.89 85.7667 100.09 87.7C98.3564 89.6333 97.4897 92.0333 97.4897 94.9C97.4897 99.7667 99.5231 103.3 103.59 105.5H106.89C107.956 105.5 108.656 105.633 108.99 105.9C109.39 106.1 109.623 106.767 109.69 107.9C109.69 108.567 109.523 109.133 109.19 109.6C108.856 110.067 108.39 110.3 107.79 110.3H104.29C99.9564 110.7 96.6564 112.4 94.3897 115.4C92.1897 118.4 91.0897 121.867 91.0897 125.8C91.0897 130.067 92.0897 133.8 94.0897 137C96.0897 140.2 98.8564 142.667 102.39 144.4C105.99 146.133 110.056 147 114.59 147C119.456 147 123.923 146 127.99 144C132.056 141.933 135.29 139.133 137.69 135.6C140.09 132 141.29 127.967 141.29 123.5C141.29 119.633 140.223 116.267 138.09 113.4C135.956 110.533 133.023 109.1 129.29 109.1C127.356 109.1 125.456 109.667 123.59 110.8C121.79 111.867 120.89 113.4 120.89 115.4C120.89 116.467 121.156 117.4 121.69 118.2C122.29 118.933 123.156 119.4 124.29 119.6C126.023 119.8 127.423 119.467 128.49 118.6C129.556 117.733 130.156 117.267 130.29 117.2C130.623 117.267 131.023 117.733 131.49 118.6C132.023 119.4 132.29 120.333 132.29 121.4C132.29 123.4 131.59 124.967 130.19 126.1C128.856 127.233 127.19 127.8 125.19 127.8C122.656 127.8 120.623 126.8 119.09 124.8C117.556 122.733 116.79 120.1 116.79 116.9C116.79 112.1 118.056 108.433 120.59 105.9C123.123 103.367 126.123 101.667 129.59 100.8C133.056 99.8667 137.556 99.0667 143.09 98.4C147.956 97.9333 151.523 97.3333 153.79 96.6C155.256 96.0667 156.456 95.3333 157.39 94.4C158.39 93.4 158.89 92.3 158.89 91.1C158.89 89.1 157.656 87.9333 155.19 87.6C153.456 87.4 152.056 87.7333 150.99 88.6C149.923 89.4667 149.323 89.9333 149.19 90C148.79 89.9333 148.323 89.4 147.79 88.4C147.256 87.4 147.09 86.2667 147.29 85C147.556 83.1333 148.356 81.7333 149.69 80.8C151.023 79.8667 152.59 79.4 154.39 79.4C155.856 79.4 157.09 79.6333 158.09 80.1C159.69 80.8333 160.856 82 161.59 83.6C162.323 85.2 162.69 86.9667 162.69 88.9C162.69 92.5 161.523 95.6667 159.19 98.4C156.923 101.067 153.856 103.133 149.99 104.6C146.123 106 141.856 106.7 137.19 106.7C142.923 111.567 145.79 117.2 145.79 123.6C145.79 129.733 144.29 135.1 141.29 139.7C138.356 144.3 134.323 147.833 129.19 150.3C124.056 152.767 118.323 154 111.99 154Z" fill="#424242"/>
<path d="M97.4696 221.06C97.3496 221.06 97.263 221.02 97.2096 220.94C97.143 220.847 97.1096 220.74 97.1096 220.62C97.123 220.42 97.1629 220.3 97.2296 220.26C97.2963 220.22 97.3763 220.2 97.4696 220.2C97.563 220.2 97.623 220.2 97.6496 220.2C98.0496 220.2 98.343 220.1 98.5296 219.9C98.7163 219.687 98.863 219.453 98.9696 219.2C99.0896 218.933 99.1696 218.753 99.2096 218.66L102.71 210.38C102.79 210.18 102.83 210.02 102.83 209.9C102.83 209.66 102.736 209.487 102.55 209.38C102.363 209.273 102.103 209.187 101.77 209.12C101.543 209.08 101.403 209.04 101.35 209C101.296 208.96 101.27 208.847 101.27 208.66C101.27 208.5 101.31 208.393 101.39 208.34C101.483 208.287 101.623 208.26 101.81 208.26C102.476 208.26 103.003 208.313 103.39 208.42C103.79 208.513 104.136 208.713 104.43 209.02C104.723 209.313 104.996 209.767 105.25 210.38L108.61 218.66C108.81 219.167 109.003 219.547 109.19 219.8C109.376 220.053 109.656 220.187 110.03 220.2H110.15C110.283 220.2 110.376 220.227 110.43 220.28C110.483 220.32 110.516 220.433 110.53 220.62C110.53 220.74 110.496 220.847 110.43 220.94C110.376 221.02 110.29 221.06 110.17 221.06C109.316 221.02 108.583 221 107.97 221C107.17 221 106.343 221.02 105.49 221.06C105.37 221.06 105.276 221.02 105.21 220.94C105.156 220.847 105.13 220.74 105.13 220.62C105.143 220.433 105.176 220.32 105.23 220.28C105.283 220.227 105.376 220.2 105.51 220.2C105.963 220.2 106.283 220.16 106.47 220.08C106.656 219.987 106.75 219.827 106.75 219.6C106.75 219.427 106.67 219.113 106.51 218.66L105.83 217H100.89C100.556 217.827 100.363 218.307 100.31 218.44C100.27 218.573 100.25 218.647 100.25 218.66C100.09 219.167 100.01 219.493 100.01 219.64C100.01 219.867 100.11 220.02 100.31 220.1C100.51 220.167 100.89 220.2 101.45 220.2H101.57C101.703 220.2 101.796 220.227 101.85 220.28C101.903 220.32 101.936 220.433 101.95 220.62C101.95 220.74 101.916 220.847 101.85 220.94C101.796 221.02 101.71 221.06 101.59 221.06C100.736 221.02 100.01 221 99.4096 221C98.9829 221 98.3363 221.02 97.4696 221.06ZM101.27 216.14H105.47L103.45 211H103.39L101.27 216.14Z" fill="#424242"/>
<path d="M110.395 221.06C110.302 221.06 110.222 221.02 110.155 220.94C110.102 220.86 110.075 220.767 110.075 220.66C110.089 220.487 110.122 220.387 110.175 220.36C110.242 220.32 110.362 220.3 110.535 220.3C110.882 220.3 111.129 220.24 111.275 220.12C111.422 220 111.509 219.86 111.535 219.7C111.562 219.54 111.575 219.287 111.575 218.94V209.18C111.575 208.833 111.562 208.58 111.535 208.42C111.522 208.26 111.442 208.12 111.295 208C111.149 207.88 110.902 207.82 110.555 207.82C110.395 207.82 110.275 207.8 110.195 207.76C110.115 207.707 110.075 207.593 110.075 207.42C110.075 207.34 110.102 207.267 110.155 207.2C110.209 207.12 110.289 207.073 110.395 207.06C111.235 206.94 111.955 206.767 112.555 206.54C112.742 206.473 112.895 206.433 113.015 206.42H113.075C113.289 206.42 113.395 206.547 113.395 206.8V218.94C113.395 219.287 113.409 219.54 113.435 219.7C113.462 219.86 113.549 220 113.695 220.12C113.842 220.24 114.089 220.3 114.435 220.3H114.555C114.662 220.3 114.742 220.32 114.795 220.36C114.849 220.4 114.882 220.5 114.895 220.66C114.895 220.767 114.869 220.86 114.815 220.94C114.762 221.02 114.682 221.06 114.575 221.06C113.802 221.02 113.102 221 112.475 221C111.875 221 111.182 221.02 110.395 221.06Z" fill="#424242"/>
<path d="M116.318 221.06C116.225 221.06 116.145 221.02 116.078 220.94C116.025 220.86 115.998 220.767 115.998 220.66C116.011 220.487 116.051 220.387 116.118 220.36C116.185 220.32 116.305 220.3 116.478 220.3C116.825 220.3 117.071 220.24 117.218 220.12C117.365 220 117.445 219.86 117.458 219.7C117.485 219.54 117.498 219.287 117.498 218.94V214.36C117.498 214.013 117.485 213.76 117.458 213.6C117.445 213.44 117.365 213.3 117.218 213.18C117.071 213.06 116.825 213 116.478 213C116.318 213 116.198 212.98 116.118 212.94C116.038 212.887 115.998 212.773 115.998 212.6C115.998 212.52 116.025 212.447 116.078 212.38C116.131 212.3 116.211 212.253 116.318 212.24C117.158 212.12 117.878 211.947 118.478 211.72C118.665 211.653 118.818 211.613 118.938 211.6H118.998C119.211 211.6 119.318 211.727 119.318 211.98V218.94C119.318 219.287 119.331 219.54 119.358 219.7C119.385 219.86 119.471 220 119.618 220.12C119.765 220.24 120.011 220.3 120.358 220.3H120.478C120.585 220.3 120.665 220.32 120.718 220.36C120.771 220.4 120.805 220.5 120.818 220.66C120.818 220.767 120.791 220.86 120.738 220.94C120.685 221.02 120.605 221.06 120.498 221.06C119.725 221.02 119.025 221 118.398 221C117.798 221 117.105 221.02 116.318 221.06ZM118.298 209.38C117.925 209.38 117.611 209.267 117.358 209.04C117.105 208.8 116.978 208.507 116.978 208.16C116.978 207.853 117.131 207.58 117.438 207.34C117.745 207.1 118.091 206.98 118.478 206.98C118.811 206.98 119.085 207.1 119.298 207.34C119.511 207.567 119.618 207.86 119.618 208.22C119.618 208.54 119.491 208.813 119.238 209.04C118.985 209.267 118.671 209.38 118.298 209.38Z" fill="#424242"/>
<path d="M126.299 221.24C124.939 221.24 123.872 220.807 123.099 219.94C122.326 219.073 121.939 217.913 121.939 216.46C121.966 215.553 122.186 214.747 122.599 214.04C123.026 213.32 123.592 212.76 124.299 212.36C125.006 211.947 125.786 211.727 126.639 211.7C127.492 211.7 128.226 211.86 128.839 212.18C129.466 212.5 129.779 213.033 129.779 213.78C129.779 214.193 129.652 214.56 129.399 214.88C129.159 215.187 128.832 215.34 128.419 215.34C128.166 215.34 127.946 215.273 127.759 215.14C127.586 215.007 127.499 214.893 127.499 214.8C127.499 214.787 127.559 214.727 127.679 214.62C127.799 214.513 127.906 214.387 127.999 214.24C128.106 214.08 128.159 213.9 128.159 213.7C128.159 213.287 128.006 212.973 127.699 212.76C127.406 212.547 127.046 212.44 126.619 212.44C125.592 212.44 124.892 212.82 124.519 213.58C124.159 214.327 123.979 215.267 123.979 216.4C123.979 217.52 124.232 218.44 124.739 219.16C125.246 219.88 125.919 220.24 126.759 220.24C127.332 220.24 127.819 220.12 128.219 219.88C128.632 219.627 129.006 219.247 129.339 218.74C129.379 218.673 129.446 218.64 129.539 218.64C129.606 218.64 129.679 218.66 129.759 218.7C129.826 218.727 129.879 218.773 129.919 218.84C129.959 218.907 129.979 218.973 129.979 219.04C129.979 219.08 129.959 219.133 129.919 219.2C129.479 219.827 128.932 220.327 128.279 220.7C127.626 221.06 126.966 221.24 126.299 221.24Z" fill="#424242"/>
<path d="M136.111 221.24C135.111 221.24 134.258 221.027 133.551 220.6C132.858 220.173 132.331 219.593 131.971 218.86C131.611 218.127 131.431 217.313 131.431 216.42C131.431 215.633 131.611 214.88 131.971 214.16C132.345 213.427 132.871 212.833 133.551 212.38C134.231 211.927 135.011 211.7 135.891 211.7C137.078 211.7 137.991 212.007 138.631 212.62C139.271 213.22 139.638 214.033 139.731 215.06C139.731 215.5 139.611 215.8 139.371 215.96C139.131 216.12 138.785 216.2 138.331 216.2H133.471C133.471 217.44 133.725 218.427 134.231 219.16C134.751 219.88 135.551 220.24 136.631 220.24C137.205 220.24 137.691 220.12 138.091 219.88C138.491 219.627 138.871 219.207 139.231 218.62C139.298 218.553 139.365 218.52 139.431 218.52C139.525 218.52 139.605 218.547 139.671 218.6C139.805 218.68 139.871 218.8 139.871 218.96C139.871 219.04 139.858 219.1 139.831 219.14C139.418 219.807 138.891 220.327 138.251 220.7C137.625 221.06 136.911 221.24 136.111 221.24ZM136.731 215.44C137.411 215.44 137.771 215.16 137.811 214.6C137.811 213.987 137.645 213.467 137.311 213.04C136.978 212.613 136.505 212.4 135.891 212.4C135.211 212.4 134.651 212.673 134.211 213.22C133.771 213.753 133.525 214.493 133.471 215.44H136.731Z" fill="#424242"/>
</svg>
