<svg width="236" height="269" viewBox="0 0 236 269" fill="none" xmlns="http://www.w3.org/2000/svg">
<path d="M0 0H236V269H0V0Z" fill="#F5EDDD"/>
<path fill-rule="evenodd" clip-rule="evenodd" d="M232 4H4V265H232V4ZM0 0V269H236V0H0Z" fill="#424242"/>
<path d="M124.055 147.994C118.911 152.649 112.824 154.977 105.793 154.977C98.7617 154.977 93.0977 153.04 88.8008 149.166C84.5365 145.26 82.4043 140.182 82.4043 133.932C82.4043 129.732 83.9505 125.777 87.043 122.066C90.1354 118.355 94.2533 115.507 99.3965 113.521C96.2064 108.248 94.2695 104.439 93.5859 102.096C92.9349 99.7194 92.6094 97.6035 92.6094 95.748C92.6094 91.4837 94.1719 87.7565 97.2969 84.5664C100.454 81.3763 104.621 79.7812 109.797 79.7812C116.991 79.7812 122.15 82.0273 125.275 86.5195C126.545 88.3099 127.18 90.4095 127.18 92.8184C127.18 100.143 121.988 107.288 111.604 114.254C116.389 121.871 121.467 129.179 126.838 136.178C129.995 131.588 132.339 126.493 133.869 120.895C134.064 120.211 134.162 119.43 134.162 118.551C134.162 117.639 133.641 116.728 132.6 115.816C131.59 114.872 129.719 114.335 126.984 114.205L126.643 109.42H151.887L152.229 114.205C147.801 114.563 144.611 116.142 142.658 118.941C142.007 119.82 140.396 122.783 137.824 127.828C135.285 132.874 132.827 137.122 130.451 140.572C134.195 144.902 137.255 147.636 139.631 148.775C140.673 149.264 141.812 149.508 143.049 149.508C145.653 149.508 147.606 148.629 148.908 146.871C147.443 146.611 146.271 145.943 145.393 144.869C144.546 143.762 144.123 142.395 144.123 140.768C144.123 139.107 144.807 137.626 146.174 136.324C147.574 135.022 148.957 134.371 150.324 134.371C151.724 134.371 152.831 134.566 153.645 134.957C156.053 136.096 157.258 137.952 157.258 140.523C157.258 145.113 155.728 148.678 152.668 151.217C149.641 153.723 146.125 154.977 142.121 154.977C134.895 154.977 128.872 152.649 124.055 147.994ZM108.625 109.322C111.913 106.686 114.257 104.228 115.656 101.949C117.056 99.638 117.756 97.0501 117.756 94.1855C117.756 91.3861 116.91 89.14 115.217 87.4473C113.524 85.7546 111.555 84.9082 109.309 84.9082C107.03 84.9082 105.354 85.8034 104.279 87.5938C103.205 89.3516 102.668 91.5163 102.668 94.0879C102.668 96.6595 103.417 99.459 104.914 102.486C106.444 105.481 107.681 107.76 108.625 109.322ZM102.229 118.16C96.4993 121.708 93.6348 126.705 93.6348 133.15C93.6348 137.643 94.9857 141.272 97.6875 144.039C100.389 146.806 103.856 148.189 108.088 148.189C112.32 148.189 116.34 146.66 120.148 143.6C114.061 136.015 108.088 127.535 102.229 118.16Z" fill="#424242"/>
<path d="M56.1777 220.926C56.7181 220.926 57.125 220.844 57.3984 220.682C57.6784 220.512 57.8932 220.239 58.043 219.861L63.3164 207.352H64.9863L69.8105 219.861C69.9863 220.278 70.1816 220.561 70.3965 220.711C70.6113 220.854 71.0312 220.926 71.6562 220.926V222H65.6309V220.926C66.4902 220.926 66.998 220.867 67.1543 220.75C67.3171 220.633 67.3919 220.506 67.3789 220.369C67.3724 220.232 67.3301 220.063 67.252 219.861L66.373 217.41H60.6992L59.6934 219.861C59.5436 220.252 59.5892 220.529 59.8301 220.691C60.071 220.848 60.6341 220.926 61.5195 220.926V222H56.1777V220.926ZM65.9922 216.336L63.7266 210.008L61.1387 216.336H65.9922Z" fill="#424242"/>
<path d="M72.5352 220.926C73.0951 220.926 73.4466 220.87 73.5898 220.76C73.7331 220.643 73.8177 220.519 73.8438 220.389C73.8763 220.258 73.8926 220.096 73.8926 219.9V214.52C73.8926 214.051 73.8503 213.745 73.7656 213.602C73.6875 213.458 73.4694 213.387 73.1113 213.387H72.5156V212.312C73.1341 212.312 73.6126 212.267 73.9512 212.176C74.2962 212.078 74.5404 212.01 74.6836 211.971C74.8333 211.925 74.9928 211.902 75.1621 211.902C75.4941 211.902 75.7155 212 75.8262 212.195C75.9434 212.391 76.002 212.71 76.002 213.152V213.348C76.5618 212.69 77.1966 212.247 77.9062 212.02C78.1602 211.941 78.4141 211.902 78.668 211.902C79.1562 211.902 79.5339 212.042 79.8008 212.322C80.0742 212.602 80.2109 212.947 80.2109 213.357C80.2109 213.768 80.0807 214.103 79.8203 214.363C79.5599 214.624 79.2441 214.754 78.873 214.754C78.5085 214.754 78.2057 214.624 77.9648 214.363C77.7305 214.103 77.6263 213.777 77.6523 213.387C77.3854 213.426 77.099 213.549 76.793 213.758C76.4935 213.96 76.2298 214.236 76.002 214.588V219.812C76.002 220.06 76.0215 220.258 76.0605 220.408C76.1061 220.551 76.2201 220.675 76.4023 220.779C76.5911 220.877 77.151 220.926 78.082 220.926V222H72.5352V220.926Z" fill="#424242"/>
<path d="M84.2246 220.857C83.9447 221.124 83.8047 221.505 83.8047 222H82.3594V209.393C82.3594 208.924 82.3171 208.618 82.2324 208.475C82.1543 208.331 81.9329 208.26 81.5684 208.26H80.875V207.186C81.5065 207.186 82.0013 207.14 82.3594 207.049C82.724 206.951 82.9811 206.883 83.1309 206.844C83.2871 206.798 83.4531 206.775 83.6289 206.775C83.974 206.775 84.1986 206.876 84.3027 207.078C84.4134 207.273 84.4688 207.589 84.4688 208.025V213.26C85.1654 212.355 86.1615 211.902 87.457 211.902C88.7591 211.902 89.791 212.319 90.5527 213.152C91.321 213.979 91.7051 215.2 91.7051 216.814C91.7051 218.429 91.3047 219.731 90.5039 220.721C89.7096 221.704 88.5964 222.195 87.1641 222.195C85.9857 222.195 85.0059 221.749 84.2246 220.857ZM84.4199 217.166C84.4199 218.357 84.6445 219.298 85.0938 219.988C85.5495 220.678 86.1647 221.023 86.9395 221.023C87.7077 221.023 88.3132 220.669 88.7559 219.959C89.2051 219.249 89.4297 218.309 89.4297 217.137C89.4297 215.268 88.987 214.025 88.1016 213.406C87.7826 213.191 87.4049 213.084 86.9688 213.084C86.5391 213.084 86.168 213.188 85.8555 213.396C85.543 213.605 85.2826 213.891 85.0742 214.256C84.638 215.005 84.4199 215.975 84.4199 217.166Z" fill="#424242"/>
<path d="M100.592 220.398C99.778 221.596 98.6908 222.195 97.3301 222.195C96.347 222.195 95.582 221.893 95.0352 221.287C94.4883 220.682 94.2148 219.777 94.2148 218.572V214.52C94.2148 214.051 94.1725 213.745 94.0879 213.602C94.0098 213.458 93.7917 213.387 93.4336 213.387H93.1797V212.312C93.7786 212.312 94.2116 212.267 94.4785 212.176C94.752 212.078 94.9473 212.01 95.0645 211.971C95.1816 211.925 95.3249 211.902 95.4941 211.902C95.8262 211.902 96.0475 212.007 96.1582 212.215C96.2689 212.417 96.3242 212.742 96.3242 213.191V218.641C96.3242 219.357 96.3991 219.845 96.5488 220.105C96.8353 220.607 97.3268 220.857 98.0234 220.857C98.4922 220.857 98.9544 220.672 99.4102 220.301C99.8659 219.93 100.188 219.497 100.377 219.002V214.52C100.364 214.038 100.318 213.729 100.24 213.592C100.162 213.455 99.944 213.387 99.5859 213.387H99.0293V212.312C99.6478 212.312 100.123 212.267 100.455 212.176C100.794 212.078 101.035 212.01 101.178 211.971C101.321 211.925 101.477 211.902 101.646 211.902C101.979 211.902 102.2 212 102.311 212.195C102.428 212.391 102.486 212.71 102.486 213.152V219.402C102.486 220.034 102.516 220.424 102.574 220.574C102.678 220.861 102.939 221.004 103.355 221.004C103.577 221.004 103.766 220.968 103.922 220.896V221.844C103.609 222.078 103.183 222.195 102.643 222.195C101.51 222.195 100.826 221.596 100.592 220.398Z" fill="#424242"/>
<path d="M109.049 222.195C106.998 222.195 105.973 221.056 105.973 218.777V213.895C105.973 213.641 105.94 213.475 105.875 213.396C105.816 213.312 105.686 213.27 105.484 213.27H104.684V212.098H105.045C105.54 212.098 105.901 211.941 106.129 211.629C106.363 211.316 106.49 210.802 106.51 210.086L106.52 209.217H108.082V212.098H111.08V213.27H108.082V218.748C108.082 219.959 108.362 220.682 108.922 220.916C109.078 220.981 109.234 221.014 109.391 221.014C110.074 221.014 110.52 220.451 110.729 219.324H111.861C111.796 220.659 111.24 221.544 110.191 221.98C109.853 222.124 109.472 222.195 109.049 222.195Z" fill="#424242"/>
<path d="M120.396 220.398C119.583 221.596 118.495 222.195 117.135 222.195C116.152 222.195 115.387 221.893 114.84 221.287C114.293 220.682 114.02 219.777 114.02 218.572V214.52C114.02 214.051 113.977 213.745 113.893 213.602C113.814 213.458 113.596 213.387 113.238 213.387H112.984V212.312C113.583 212.312 114.016 212.267 114.283 212.176C114.557 212.078 114.752 212.01 114.869 211.971C114.986 211.925 115.13 211.902 115.299 211.902C115.631 211.902 115.852 212.007 115.963 212.215C116.074 212.417 116.129 212.742 116.129 213.191V218.641C116.129 219.357 116.204 219.845 116.354 220.105C116.64 220.607 117.132 220.857 117.828 220.857C118.297 220.857 118.759 220.672 119.215 220.301C119.671 219.93 119.993 219.497 120.182 219.002V214.52C120.169 214.038 120.123 213.729 120.045 213.592C119.967 213.455 119.749 213.387 119.391 213.387H118.834V212.312C119.452 212.312 119.928 212.267 120.26 212.176C120.598 212.078 120.839 212.01 120.982 211.971C121.126 211.925 121.282 211.902 121.451 211.902C121.783 211.902 122.005 212 122.115 212.195C122.232 212.391 122.291 212.71 122.291 213.152V219.402C122.291 220.034 122.32 220.424 122.379 220.574C122.483 220.861 122.743 221.004 123.16 221.004C123.382 221.004 123.57 220.968 123.727 220.896V221.844C123.414 222.078 122.988 222.195 122.447 222.195C121.314 222.195 120.631 221.596 120.396 220.398Z" fill="#424242"/>
<path d="M130.211 213.396C129.879 213.064 129.335 212.898 128.58 212.898C127.825 212.898 127.314 213.172 127.047 213.719C126.975 213.875 126.939 214.054 126.939 214.256C126.939 214.451 127.018 214.643 127.174 214.832C127.33 215.014 127.532 215.19 127.779 215.359C128.027 215.522 128.303 215.682 128.609 215.838C128.922 215.994 129.244 216.163 129.576 216.346C129.908 216.528 130.26 216.72 130.631 216.922C131.992 217.664 132.672 218.488 132.672 219.393C132.672 220.291 132.32 220.984 131.617 221.473C130.914 221.954 129.98 222.195 128.814 222.195C127.656 222.195 126.699 221.987 125.943 221.57C125.188 221.154 124.811 220.617 124.811 219.959C124.811 219.601 124.928 219.298 125.162 219.051C125.403 218.803 125.706 218.68 126.07 218.68C126.441 218.68 126.747 218.797 126.988 219.031C127.229 219.259 127.35 219.533 127.35 219.852C127.35 220.171 127.239 220.441 127.018 220.662C127.538 220.962 128.183 221.111 128.951 221.111C129.726 221.111 130.27 220.932 130.582 220.574C130.712 220.431 130.777 220.245 130.777 220.018C130.777 219.477 130.178 218.914 128.98 218.328C128.147 217.918 127.522 217.596 127.105 217.361C125.771 216.606 125.104 215.695 125.104 214.627C125.104 213.807 125.442 213.149 126.119 212.654C126.803 212.16 127.672 211.912 128.727 211.912C129.781 211.912 130.667 212.111 131.383 212.508C132.105 212.898 132.467 213.406 132.467 214.031C132.467 214.396 132.379 214.666 132.203 214.842C131.897 215.148 131.604 215.301 131.324 215.301C130.868 215.301 130.523 215.187 130.289 214.959C130.061 214.725 129.947 214.458 129.947 214.158C129.947 213.859 130.035 213.605 130.211 213.396Z" fill="#424242"/>
<path d="M148.375 209.012C148.036 208.556 147.311 208.328 146.197 208.328C145.09 208.328 144.326 208.699 143.902 209.441C143.759 209.695 143.688 210.008 143.688 210.379C143.688 211.062 143.993 211.688 144.605 212.254C145.009 212.632 145.566 213.019 146.275 213.416C146.992 213.813 147.594 214.168 148.082 214.48C149.924 215.652 150.846 216.935 150.846 218.328C150.846 219.565 150.39 220.519 149.479 221.189C148.574 221.86 147.398 222.195 145.953 222.195C144.514 222.195 143.359 221.912 142.486 221.346C141.62 220.773 141.188 220.118 141.188 219.383C141.188 218.641 141.484 218.139 142.076 217.879C142.258 217.794 142.457 217.752 142.672 217.752C143.082 217.752 143.417 217.889 143.678 218.162C143.945 218.436 144.078 218.781 144.078 219.197C144.078 219.614 143.889 219.969 143.512 220.262C144.02 220.77 144.859 221.023 146.031 221.023C147.21 221.023 148.017 220.626 148.453 219.832C148.609 219.559 148.688 219.24 148.688 218.875C148.688 218.243 148.362 217.658 147.711 217.117C147.372 216.837 146.799 216.476 145.992 216.033C145.191 215.584 144.56 215.21 144.098 214.91C142.398 213.816 141.549 212.527 141.549 211.043C141.549 209.884 141.985 208.947 142.857 208.23C143.736 207.514 144.82 207.156 146.109 207.156C147.405 207.156 148.466 207.433 149.293 207.986C150.126 208.54 150.543 209.214 150.543 210.008C150.543 210.438 150.41 210.799 150.143 211.092C149.882 211.378 149.55 211.521 149.146 211.521C148.528 211.521 148.098 211.251 147.857 210.711C147.786 210.548 147.75 210.376 147.75 210.193C147.75 209.692 147.958 209.298 148.375 209.012Z" fill="#424242"/>
<path d="M152.457 220.926C153.023 220.926 153.411 220.848 153.619 220.691C153.834 220.535 153.941 220.265 153.941 219.881V209.305C153.941 208.836 153.899 208.53 153.814 208.387C153.736 208.243 153.515 208.172 153.15 208.172H152.359V207.098C153.017 207.098 153.531 207.052 153.902 206.961C154.273 206.863 154.537 206.795 154.693 206.756C154.856 206.71 155.025 206.688 155.201 206.688C155.54 206.688 155.764 206.785 155.875 206.98C155.992 207.176 156.051 207.495 156.051 207.938V219.881C156.051 220.285 156.135 220.561 156.305 220.711C156.48 220.854 156.884 220.926 157.516 220.926V222H152.457V220.926Z" fill="#424242"/>
<path d="M167.545 219.666C167.545 220.441 167.698 220.828 168.004 220.828C168.297 220.828 168.512 220.73 168.648 220.535C168.785 220.333 168.854 219.972 168.854 219.451H169.879C169.885 219.536 169.889 219.669 169.889 219.852C169.889 220.438 169.742 220.945 169.449 221.375C169.091 221.922 168.521 222.195 167.74 222.195C167.232 222.195 166.799 222.052 166.441 221.766C166.083 221.479 165.836 221.102 165.699 220.633C164.755 221.674 163.561 222.195 162.115 222.195C161.321 222.195 160.628 221.964 160.035 221.502C159.449 221.033 159.156 220.382 159.156 219.549C159.156 218.104 160.224 217.036 162.359 216.346C163.714 215.916 164.524 215.62 164.791 215.457C165.058 215.288 165.23 215.118 165.309 214.949C165.393 214.773 165.436 214.578 165.436 214.363C165.436 213.979 165.247 213.66 164.869 213.406C164.492 213.146 164 213.016 163.395 213.016C162.789 213.016 162.255 213.178 161.793 213.504C162.118 213.745 162.281 214.054 162.281 214.432C162.281 214.809 162.154 215.112 161.9 215.34C161.653 215.568 161.35 215.682 160.992 215.682C160.641 215.682 160.348 215.574 160.113 215.359C159.885 215.145 159.771 214.845 159.771 214.461C159.771 213.699 160.156 213.084 160.924 212.615C161.692 212.14 162.626 211.902 163.727 211.902C165.693 211.902 166.894 212.54 167.33 213.816C167.473 214.24 167.545 214.728 167.545 215.281V219.666ZM163.238 217.234C162.665 217.482 162.236 217.801 161.949 218.191C161.663 218.576 161.52 218.995 161.52 219.451C161.52 219.907 161.643 220.252 161.891 220.486C162.138 220.721 162.447 220.838 162.818 220.838C163.574 220.838 164.199 220.574 164.693 220.047C165.188 219.513 165.436 218.771 165.436 217.82V216.316C165.019 216.531 164.576 216.727 164.107 216.902C163.645 217.078 163.355 217.189 163.238 217.234Z" fill="#424242"/>
<path d="M173.385 220.857C173.105 221.124 172.965 221.505 172.965 222H171.52V209.393C171.52 208.924 171.477 208.618 171.393 208.475C171.314 208.331 171.093 208.26 170.729 208.26H170.035V207.186C170.667 207.186 171.161 207.14 171.52 207.049C171.884 206.951 172.141 206.883 172.291 206.844C172.447 206.798 172.613 206.775 172.789 206.775C173.134 206.775 173.359 206.876 173.463 207.078C173.574 207.273 173.629 207.589 173.629 208.025V213.26C174.326 212.355 175.322 211.902 176.617 211.902C177.919 211.902 178.951 212.319 179.713 213.152C180.481 213.979 180.865 215.2 180.865 216.814C180.865 218.429 180.465 219.731 179.664 220.721C178.87 221.704 177.757 222.195 176.324 222.195C175.146 222.195 174.166 221.749 173.385 220.857ZM173.58 217.166C173.58 218.357 173.805 219.298 174.254 219.988C174.71 220.678 175.325 221.023 176.1 221.023C176.868 221.023 177.473 220.669 177.916 219.959C178.365 219.249 178.59 218.309 178.59 217.137C178.59 215.268 178.147 214.025 177.262 213.406C176.943 213.191 176.565 213.084 176.129 213.084C175.699 213.084 175.328 213.188 175.016 213.396C174.703 213.605 174.443 213.891 174.234 214.256C173.798 215.005 173.58 215.975 173.58 217.166Z" fill="#424242"/>
</svg>
