<svg width="236" height="269" viewBox="0 0 236 269" fill="none" xmlns="http://www.w3.org/2000/svg">
<path d="M0 0H236V269H0V0Z" fill="#F5EDDD"/>
<path fill-rule="evenodd" clip-rule="evenodd" d="M232 4H4V265H232V4ZM0 0V269H236V0H0Z" fill="#424242"/>
<path d="M152.837 148.8C153.103 148.867 153.203 149.1 153.137 149.5C153.137 149.833 153.037 150 152.837 150H142.037C139.037 150 134.47 147.6 128.337 142.8C122.937 148.4 116.203 151.2 108.137 151.2C104.003 151.2 100.537 150.5 97.7366 149.1C95.0033 147.7 92.9366 145.867 91.5366 143.6C90.2033 141.333 89.5366 138.9 89.5366 136.3C89.5366 132.5 90.7033 129.2 93.0366 126.4C95.4366 123.533 98.87 120.467 103.337 117.2C102.137 115.4 101.17 113.733 100.437 112.2C98.5033 107.933 97.5366 104.3 97.5366 101.3C97.5366 98.4333 98.2366 95.8 99.6366 93.4C101.037 90.9333 103.003 89 105.537 87.6C108.07 86.1333 110.937 85.4 114.137 85.4C117.337 85.4 120.07 86.1667 122.337 87.7C124.67 89.2333 125.837 91.7667 125.837 95.3C125.837 97.9 125.17 100.267 123.837 102.4C122.503 104.533 120.837 106.4 118.837 108C116.903 109.6 114.303 111.467 111.037 113.6C110.903 113.667 110.337 114.033 109.337 114.7C114.003 122.3 121.103 129.733 130.637 137C132.97 132.933 134.137 128.433 134.137 123.5C134.137 121.1 133.637 119.3 132.637 118.1C131.703 116.9 129.837 116.3 127.037 116.3C126.837 116.3 126.703 116.1 126.637 115.7C126.637 115.3 126.77 115.1 127.037 115.1L147.937 115C148.203 115 148.337 115.2 148.337 115.6C148.337 116 148.203 116.2 147.937 116.2C145.67 116.2 143.97 116.433 142.837 116.9C141.703 117.3 140.903 117.867 140.437 118.6C139.97 119.333 139.503 120.5 139.037 122.1C137.103 128.7 134.803 134.033 132.137 138.1C136.07 140.967 139.87 143.333 143.537 145.2C147.203 147.067 150.303 148.267 152.837 148.8ZM103.337 97.1C103.337 102.233 105.07 107.7 108.537 113.5C112.203 110.767 115.003 108.133 116.937 105.6C118.937 103 119.937 100.1 119.937 96.9C119.937 93.9667 119.137 91.6667 117.537 90C116.003 88.3333 113.903 87.5 111.237 87.5C105.97 87.5 103.337 90.7 103.337 97.1ZM112.637 148.2C115.437 148.2 118.07 147.633 120.537 146.5C123.003 145.367 125.203 143.8 127.137 141.8C126.737 141.533 126.137 141.067 125.337 140.4C121.337 137.333 117.47 133.867 113.737 130C110.003 126.133 106.837 122.267 104.237 118.4C101.637 120.533 99.6033 122.767 98.1366 125.1C96.67 127.367 95.9366 129.933 95.9366 132.8C95.9366 135.6 96.6366 138.2 98.0366 140.6C99.5033 142.933 101.503 144.8 104.037 146.2C106.637 147.533 109.503 148.2 112.637 148.2Z" fill="#424242"/>
<path d="M83.55 208.28C84.19 208.28 84.8366 208.34 85.49 208.46C86.1433 208.58 86.6633 208.753 87.05 208.98C87.17 209.033 87.2433 209.093 87.27 209.16C87.31 209.213 87.3366 209.313 87.35 209.46L87.57 211.7C87.57 211.74 87.5366 211.767 87.47 211.78C87.4033 211.78 87.3633 211.76 87.35 211.72C87.0566 210.693 86.51 209.94 85.71 209.46C84.9233 208.967 83.9433 208.72 82.77 208.72C81.7566 208.72 80.87 208.947 80.11 209.4C79.35 209.84 78.7633 210.467 78.35 211.28C77.9366 212.093 77.73 213.033 77.73 214.1C77.73 215.34 77.9833 216.487 78.49 217.54C79.01 218.593 79.7033 219.427 80.57 220.04C81.45 220.653 82.3966 220.96 83.41 220.96C84.37 220.96 85.2033 220.7 85.91 220.18C86.6166 219.647 87.1566 218.833 87.53 217.74C87.53 217.7 87.5566 217.68 87.61 217.68C87.65 217.68 87.6833 217.687 87.71 217.7C87.75 217.713 87.77 217.733 87.77 217.76L87.49 220.02C87.4633 220.18 87.43 220.287 87.39 220.34C87.3633 220.38 87.29 220.427 87.17 220.48C85.97 220.987 84.7033 221.24 83.37 221.24C81.77 221.24 80.43 220.92 79.35 220.28C78.2833 219.627 77.4966 218.8 76.99 217.8C76.4833 216.8 76.23 215.747 76.23 214.64C76.23 213.413 76.57 212.313 77.25 211.34C77.93 210.367 78.83 209.613 79.95 209.08C81.07 208.547 82.27 208.28 83.55 208.28Z" fill="#424242"/>
<path d="M93.2489 221.26C92.4756 221.26 91.7889 221.073 91.1889 220.7C90.6022 220.313 90.1489 219.8 89.8289 219.16C89.5089 218.507 89.3489 217.8 89.3489 217.04C89.3489 216.173 89.5556 215.44 89.9689 214.84C90.3956 214.227 90.9356 213.773 91.5889 213.48C92.2556 213.173 92.9289 213.02 93.6089 213.02C94.3956 213.02 95.0822 213.213 95.6689 213.6C96.2556 213.987 96.7022 214.5 97.0089 215.14C97.3289 215.767 97.4889 216.433 97.4889 217.14C97.4889 217.967 97.2956 218.693 96.9089 219.32C96.5222 219.933 96.0022 220.413 95.3489 220.76C94.7089 221.093 94.0089 221.26 93.2489 221.26ZM93.8289 220.88C94.5622 220.88 95.1289 220.62 95.5289 220.1C95.9289 219.58 96.1289 218.78 96.1289 217.7C96.1289 216.873 95.9889 216.133 95.7089 215.48C95.4422 214.827 95.0689 214.32 94.5889 213.96C94.1089 213.587 93.5622 213.4 92.9489 213.4C92.2289 213.4 91.6689 213.66 91.2689 214.18C90.8822 214.7 90.6889 215.447 90.6889 216.42C90.6889 217.233 90.8222 217.98 91.0889 218.66C91.3556 219.34 91.7289 219.88 92.2089 220.28C92.6889 220.68 93.2289 220.88 93.8289 220.88Z" fill="#424242"/>
<path d="M103.699 213.1C103.993 213.1 104.273 213.18 104.539 213.34C104.806 213.5 104.939 213.693 104.939 213.92C104.939 214.093 104.879 214.24 104.759 214.36C104.653 214.48 104.493 214.54 104.279 214.54C104.159 214.54 104.053 214.52 103.959 214.48C103.879 214.427 103.779 214.353 103.659 214.26C103.539 214.153 103.426 214.073 103.319 214.02C103.213 213.967 103.086 213.94 102.939 213.94C102.766 213.94 102.579 214.013 102.379 214.16C102.193 214.293 101.893 214.6 101.479 215.08V219.38C101.479 219.78 101.526 220.073 101.619 220.26C101.726 220.447 101.913 220.58 102.179 220.66C102.446 220.727 102.859 220.76 103.419 220.76C103.473 220.76 103.499 220.8 103.499 220.88C103.499 220.96 103.473 221 103.419 221C102.993 221 102.653 220.993 102.399 220.98L100.919 220.96L99.8192 220.98C99.6459 220.993 99.4059 221 99.0992 221C99.0592 221 99.0392 220.96 99.0392 220.88C99.0392 220.8 99.0592 220.76 99.0992 220.76C99.4592 220.76 99.7259 220.727 99.8992 220.66C100.073 220.58 100.186 220.447 100.239 220.26C100.306 220.073 100.339 219.78 100.339 219.38V215.42C100.339 214.967 100.286 214.64 100.179 214.44C100.073 214.24 99.8925 214.14 99.6392 214.14C99.4259 214.14 99.0659 214.24 98.5592 214.44H98.5192C98.4659 214.44 98.4259 214.413 98.3992 214.36C98.3859 214.293 98.4059 214.247 98.4592 214.22L100.779 213.12C100.806 213.107 100.846 213.1 100.899 213.1C101.019 213.1 101.146 213.253 101.279 213.56C101.413 213.867 101.479 214.26 101.479 214.74V214.76C102.026 214.12 102.459 213.687 102.779 213.46C103.099 213.22 103.406 213.1 103.699 213.1Z" fill="#424242"/>
<path d="M120.324 220.76C120.364 220.76 120.384 220.8 120.384 220.88C120.384 220.96 120.364 221 120.324 221C120.018 221 119.771 220.993 119.584 220.98L118.504 220.96L117.424 220.98C117.238 220.993 116.991 221 116.684 221C116.644 221 116.624 220.96 116.624 220.88C116.624 220.8 116.644 220.76 116.684 220.76C117.044 220.76 117.311 220.727 117.484 220.66C117.658 220.58 117.778 220.447 117.844 220.26C117.911 220.06 117.944 219.767 117.944 219.38V216.2C117.944 215.413 117.804 214.833 117.524 214.46C117.244 214.073 116.811 213.88 116.224 213.88C115.824 213.88 115.418 213.993 115.004 214.22C114.604 214.433 114.231 214.74 113.884 215.14C113.898 215.207 113.904 215.313 113.904 215.46V219.38C113.904 219.78 113.938 220.073 114.004 220.26C114.071 220.447 114.191 220.58 114.364 220.66C114.538 220.727 114.804 220.76 115.164 220.76C115.204 220.76 115.224 220.8 115.224 220.88C115.224 220.96 115.204 221 115.164 221C114.858 221 114.611 220.993 114.424 220.98L113.344 220.96L112.244 220.98C112.071 220.993 111.831 221 111.524 221C111.484 221 111.464 220.96 111.464 220.88C111.464 220.8 111.484 220.76 111.524 220.76C111.884 220.76 112.151 220.727 112.324 220.66C112.498 220.58 112.611 220.447 112.664 220.26C112.731 220.073 112.764 219.78 112.764 219.38V216.2C112.764 215.413 112.624 214.833 112.344 214.46C112.064 214.073 111.638 213.88 111.064 213.88C110.664 213.88 110.264 213.987 109.864 214.2C109.464 214.413 109.098 214.713 108.764 215.1V219.38C108.764 219.78 108.791 220.073 108.844 220.26C108.911 220.447 109.031 220.58 109.204 220.66C109.378 220.727 109.644 220.76 110.004 220.76C110.044 220.76 110.064 220.8 110.064 220.88C110.064 220.96 110.044 221 110.004 221C109.698 221 109.458 220.993 109.284 220.98L108.204 220.96L107.104 220.98C106.931 220.993 106.691 221 106.384 221C106.344 221 106.324 220.96 106.324 220.88C106.324 220.8 106.344 220.76 106.384 220.76C106.744 220.76 107.011 220.727 107.184 220.66C107.358 220.58 107.471 220.447 107.524 220.26C107.591 220.073 107.624 219.78 107.624 219.38V215.42C107.624 214.967 107.571 214.64 107.464 214.44C107.358 214.24 107.178 214.14 106.924 214.14C106.711 214.14 106.351 214.24 105.844 214.44H105.804C105.751 214.44 105.711 214.413 105.684 214.36C105.671 214.293 105.691 214.247 105.744 214.22L108.064 213.12C108.091 213.107 108.131 213.1 108.184 213.1C108.304 213.1 108.431 213.253 108.564 213.56C108.698 213.867 108.764 214.26 108.764 214.74V214.76C109.244 214.173 109.724 213.747 110.204 213.48C110.684 213.213 111.184 213.08 111.704 213.08C112.304 213.08 112.791 213.227 113.164 213.52C113.538 213.813 113.771 214.253 113.864 214.84C114.358 214.24 114.851 213.8 115.344 213.52C115.838 213.227 116.351 213.08 116.884 213.08C117.591 213.08 118.131 213.287 118.504 213.7C118.891 214.1 119.084 214.7 119.084 215.5V219.38C119.084 219.78 119.111 220.073 119.164 220.26C119.231 220.447 119.351 220.58 119.524 220.66C119.698 220.727 119.964 220.76 120.324 220.76Z" fill="#424242"/>
<path d="M125.358 221.26C124.585 221.26 123.898 221.073 123.298 220.7C122.712 220.313 122.258 219.8 121.938 219.16C121.618 218.507 121.458 217.8 121.458 217.04C121.458 216.173 121.665 215.44 122.078 214.84C122.505 214.227 123.045 213.773 123.698 213.48C124.365 213.173 125.038 213.02 125.718 213.02C126.505 213.02 127.192 213.213 127.778 213.6C128.365 213.987 128.812 214.5 129.118 215.14C129.438 215.767 129.598 216.433 129.598 217.14C129.598 217.967 129.405 218.693 129.018 219.32C128.632 219.933 128.112 220.413 127.458 220.76C126.818 221.093 126.118 221.26 125.358 221.26ZM125.938 220.88C126.672 220.88 127.238 220.62 127.638 220.1C128.038 219.58 128.238 218.78 128.238 217.7C128.238 216.873 128.098 216.133 127.818 215.48C127.552 214.827 127.178 214.32 126.698 213.96C126.218 213.587 125.672 213.4 125.058 213.4C124.338 213.4 123.778 213.66 123.378 214.18C122.992 214.7 122.798 215.447 122.798 216.42C122.798 217.233 122.932 217.98 123.198 218.66C123.465 219.34 123.838 219.88 124.318 220.28C124.798 220.68 125.338 220.88 125.938 220.88Z" fill="#424242"/>
<path d="M135.809 213.1C136.102 213.1 136.382 213.18 136.649 213.34C136.915 213.5 137.049 213.693 137.049 213.92C137.049 214.093 136.989 214.24 136.869 214.36C136.762 214.48 136.602 214.54 136.389 214.54C136.269 214.54 136.162 214.52 136.069 214.48C135.989 214.427 135.889 214.353 135.769 214.26C135.649 214.153 135.535 214.073 135.429 214.02C135.322 213.967 135.195 213.94 135.049 213.94C134.875 213.94 134.689 214.013 134.489 214.16C134.302 214.293 134.002 214.6 133.589 215.08V219.38C133.589 219.78 133.635 220.073 133.729 220.26C133.835 220.447 134.022 220.58 134.289 220.66C134.555 220.727 134.969 220.76 135.529 220.76C135.582 220.76 135.609 220.8 135.609 220.88C135.609 220.96 135.582 221 135.529 221C135.102 221 134.762 220.993 134.509 220.98L133.029 220.96L131.929 220.98C131.755 220.993 131.515 221 131.209 221C131.169 221 131.149 220.96 131.149 220.88C131.149 220.8 131.169 220.76 131.209 220.76C131.569 220.76 131.835 220.727 132.009 220.66C132.182 220.58 132.295 220.447 132.349 220.26C132.415 220.073 132.449 219.78 132.449 219.38V215.42C132.449 214.967 132.395 214.64 132.289 214.44C132.182 214.24 132.002 214.14 131.749 214.14C131.535 214.14 131.175 214.24 130.669 214.44H130.629C130.575 214.44 130.535 214.413 130.509 214.36C130.495 214.293 130.515 214.247 130.569 214.22L132.889 213.12C132.915 213.107 132.955 213.1 133.009 213.1C133.129 213.1 133.255 213.253 133.389 213.56C133.522 213.867 133.589 214.26 133.589 214.74V214.76C134.135 214.12 134.569 213.687 134.889 213.46C135.209 213.22 135.515 213.1 135.809 213.1Z" fill="#424242"/>
<path d="M145.581 219.92C145.635 219.92 145.668 219.953 145.681 220.02C145.695 220.073 145.675 220.113 145.621 220.14L143.561 221.12C143.508 221.147 143.455 221.16 143.401 221.16C143.228 221.16 143.075 221.047 142.941 220.82C142.808 220.593 142.721 220.28 142.681 219.88L141.441 220.54C141.028 220.753 140.688 220.907 140.421 221C140.155 221.093 139.895 221.14 139.641 221.14C139.228 221.14 138.908 221.033 138.681 220.82C138.468 220.593 138.361 220.313 138.361 219.98C138.361 219.62 138.495 219.333 138.761 219.12C139.041 218.893 139.535 218.66 140.241 218.42L142.661 217.56V215.9C142.661 215.02 142.548 214.407 142.321 214.06C142.095 213.7 141.781 213.52 141.381 213.52C140.928 213.52 140.575 213.68 140.321 214C140.068 214.32 139.915 214.707 139.861 215.16C139.808 215.667 139.561 215.92 139.121 215.92C138.908 215.92 138.741 215.867 138.621 215.76C138.501 215.653 138.441 215.507 138.441 215.32C138.441 215.013 138.641 214.687 139.041 214.34C139.441 213.993 139.921 213.7 140.481 213.46C141.055 213.22 141.568 213.1 142.021 213.1C142.555 213.1 142.981 213.287 143.301 213.66C143.621 214.02 143.781 214.567 143.781 215.3V218.84C143.781 219.307 143.841 219.647 143.961 219.86C144.081 220.073 144.281 220.18 144.561 220.18C144.815 220.18 145.141 220.093 145.541 219.92H145.581ZM142.661 219.6V219.48V217.8L140.601 218.58C140.295 218.7 140.075 218.833 139.941 218.98C139.821 219.127 139.761 219.313 139.761 219.54C139.761 219.82 139.841 220.04 140.001 220.2C140.161 220.347 140.368 220.42 140.621 220.42C140.875 220.42 141.148 220.353 141.441 220.22L142.661 219.6Z" fill="#424242"/>
<path d="M155.56 220.76C155.6 220.76 155.62 220.8 155.62 220.88C155.62 220.96 155.6 221 155.56 221C155.253 221 155.013 220.993 154.84 220.98L153.76 220.96L152.66 220.98C152.487 220.993 152.247 221 151.94 221C151.9 221 151.88 220.96 151.88 220.88C151.88 220.8 151.9 220.76 151.94 220.76C152.3 220.76 152.567 220.727 152.74 220.66C152.913 220.58 153.027 220.447 153.08 220.26C153.147 220.073 153.18 219.78 153.18 219.38V216.14C153.18 215.353 153.027 214.773 152.72 214.4C152.427 214.027 151.967 213.84 151.34 213.84C150.927 213.84 150.507 213.953 150.08 214.18C149.667 214.393 149.287 214.693 148.94 215.08V219.38C148.94 219.78 148.967 220.073 149.02 220.26C149.087 220.447 149.207 220.58 149.38 220.66C149.553 220.727 149.82 220.76 150.18 220.76C150.22 220.76 150.24 220.8 150.24 220.88C150.24 220.96 150.22 221 150.18 221C149.873 221 149.633 220.993 149.46 220.98L148.38 220.96L147.28 220.98C147.107 220.993 146.867 221 146.56 221C146.52 221 146.5 220.96 146.5 220.88C146.5 220.8 146.52 220.76 146.56 220.76C146.92 220.76 147.187 220.727 147.36 220.66C147.533 220.58 147.647 220.447 147.7 220.26C147.767 220.073 147.8 219.78 147.8 219.38V215.42C147.8 214.967 147.747 214.64 147.64 214.44C147.533 214.24 147.353 214.14 147.1 214.14C146.887 214.14 146.527 214.24 146.02 214.44H145.98C145.927 214.44 145.887 214.413 145.86 214.36C145.847 214.293 145.867 214.247 145.92 214.22L148.24 213.12C148.267 213.107 148.307 213.1 148.36 213.1C148.48 213.1 148.607 213.253 148.74 213.56C148.873 213.867 148.94 214.26 148.94 214.74C149.447 214.153 149.947 213.72 150.44 213.44C150.947 213.16 151.467 213.02 152 213.02C152.747 213.02 153.32 213.227 153.72 213.64C154.12 214.053 154.32 214.66 154.32 215.46V219.38C154.32 219.78 154.347 220.073 154.4 220.26C154.467 220.447 154.587 220.58 154.76 220.66C154.933 220.727 155.2 220.76 155.56 220.76Z" fill="#424242"/>
<path d="M162.212 219.96C162.266 219.96 162.306 219.993 162.332 220.06C162.359 220.113 162.352 220.153 162.312 220.18C161.819 220.567 161.372 220.84 160.972 221C160.586 221.16 160.179 221.24 159.752 221.24C159.192 221.24 158.732 221.113 158.372 220.86C158.012 220.607 157.832 220.187 157.832 219.6V214.9C157.832 214.553 157.806 214.307 157.752 214.16C157.712 214.013 157.626 213.92 157.492 213.88C157.359 213.827 157.132 213.8 156.812 213.8C156.759 213.8 156.732 213.76 156.732 213.68C156.732 213.587 156.759 213.54 156.812 213.54C157.345 213.527 157.779 213.387 158.112 213.12C158.446 212.84 158.639 212.473 158.692 212.02C158.692 211.98 158.746 211.96 158.852 211.96C158.946 211.96 158.992 211.98 158.992 212.02V213.5C159.659 213.487 160.586 213.42 161.772 213.3C161.799 213.3 161.826 213.353 161.852 213.46C161.892 213.553 161.912 213.66 161.912 213.78C161.912 213.887 161.886 214 161.832 214.12C161.792 214.227 161.746 214.273 161.692 214.26C160.959 214.073 160.059 213.967 158.992 213.94V218.92C158.992 219.467 159.125 219.873 159.392 220.14C159.672 220.407 160.066 220.54 160.572 220.54C161.186 220.54 161.719 220.353 162.172 219.98L162.212 219.96Z" fill="#424242"/>
</svg>
