<svg width="236" height="269" viewBox="0 0 236 269" fill="none" xmlns="http://www.w3.org/2000/svg">
<path d="M0 0H236V269H0V0Z" fill="#F5EDDD"/>
<path fill-rule="evenodd" clip-rule="evenodd" d="M232 4H4V265H232V4ZM0 0V269H236V0H0Z" fill="#424242"/>
<path d="M144.699 117C141.699 126.133 137.866 133.533 133.199 139.2L137.499 142.9C138.832 144.033 139.999 144.867 140.999 145.4C142.066 145.933 143.399 146.2 144.999 146.2C146.666 146.2 148.132 145.6 149.399 144.4C150.732 143.133 151.499 141 151.699 138H159.099C158.832 142.8 157.566 146.533 155.299 149.2C153.099 151.8 149.866 153.1 145.599 153.1C142.999 153.1 140.599 152.567 138.399 151.5C136.199 150.433 133.799 148.733 131.199 146.4L128.599 144.2C121.932 150.133 114.332 153.1 105.799 153.1C98.7991 153.1 92.9325 151.367 88.1991 147.9C83.4658 144.367 81.0991 140.133 81.0991 135.2C81.0991 130.267 82.6658 126.567 85.7991 124.1C88.9991 121.567 93.6658 119.8 99.7991 118.8L98.3991 117.5C93.2658 113.033 90.6991 108.133 90.6991 102.8C90.6991 98.6 92.4325 95.1 95.8991 92.3C99.4325 89.5 104.066 88.1 109.799 88.1C115.599 88.1 120.199 89.5 123.599 92.3C127.066 95.1 128.799 98.5 128.799 102.5C128.799 106.433 127.499 109.833 124.899 112.7C122.299 115.567 118.066 118.267 112.199 120.8L127.999 134.7C132.532 129.233 136.266 122.333 139.199 114L144.699 117ZM104.699 123.2C99.5658 123.867 95.7658 125.1 93.2991 126.9C90.8991 128.7 89.6991 131.2 89.6991 134.4C89.6991 137.6 91.0658 140.367 93.7991 142.7C96.5991 144.967 100.866 146.1 106.599 146.1C112.332 146.1 117.899 143.9 123.299 139.5L104.699 123.2ZM120.199 103.2C120.199 100.8 119.266 98.8 117.399 97.2C115.599 95.6 113.032 94.8 109.699 94.8C106.432 94.8 103.866 95.7333 101.999 97.6C100.199 99.4 99.2991 101.367 99.2991 103.5C99.2991 105.633 99.7325 107.533 100.599 109.2C101.466 110.867 102.899 112.567 104.899 114.3L107.599 116.8C114.532 113.6 118.532 110.267 119.599 106.8C119.999 105.667 120.199 104.467 120.199 103.2Z" fill="#424242"/>
<path d="M98.7235 208.42V214.24L104.344 208.42H106.524L101.024 214.08L106.864 221H104.824L99.9635 215.18L98.7235 216.46V221H97.1235V208.42H98.7235Z" fill="#424242"/>
<path d="M115.231 214.8C115.231 213.933 115.051 213.313 114.691 212.94C114.331 212.567 113.804 212.38 113.111 212.38C112.431 212.38 111.878 212.52 111.451 212.8C111.038 213.067 110.831 213.493 110.831 214.08H109.091C109.091 212.613 109.878 211.707 111.451 211.36C111.931 211.253 112.451 211.2 113.011 211.2C114.198 211.2 115.124 211.5 115.791 212.1C116.458 212.7 116.791 213.613 116.791 214.84V221H115.431L115.271 219.4C114.684 220.613 113.624 221.22 112.091 221.22C111.064 221.22 110.238 220.933 109.611 220.36C108.998 219.787 108.691 219.073 108.691 218.22C108.691 217.367 109.031 216.7 109.711 216.22C110.404 215.74 111.264 215.5 112.291 215.5C113.318 215.5 114.298 215.673 115.231 216.02V214.8ZM115.231 217.02C114.284 216.753 113.458 216.62 112.751 216.62C112.044 216.62 111.471 216.747 111.031 217C110.591 217.253 110.371 217.653 110.371 218.2C110.371 219.4 111.051 220 112.411 220C113.184 220 113.844 219.727 114.391 219.18C114.951 218.62 115.231 217.9 115.231 217.02Z" fill="#424242"/>
<path d="M124.402 212.78C122.896 212.78 122.116 213.967 122.062 216.34V221H120.482V211.42H122.062V213.26C122.542 211.927 123.389 211.26 124.602 211.26C124.989 211.26 125.356 211.32 125.702 211.44L125.622 212.98C125.222 212.847 124.816 212.78 124.402 212.78Z" fill="#424242"/>
<path d="M128.12 207.38H129.7V221H128.12V207.38Z" fill="#424242"/>
<path d="M139.645 214.8C139.645 213.933 139.465 213.313 139.105 212.94C138.745 212.567 138.218 212.38 137.525 212.38C136.845 212.38 136.292 212.52 135.865 212.8C135.452 213.067 135.245 213.493 135.245 214.08H133.505C133.505 212.613 134.292 211.707 135.865 211.36C136.345 211.253 136.865 211.2 137.425 211.2C138.612 211.2 139.538 211.5 140.205 212.1C140.872 212.7 141.205 213.613 141.205 214.84V221H139.845L139.685 219.4C139.098 220.613 138.038 221.22 136.505 221.22C135.478 221.22 134.652 220.933 134.025 220.36C133.412 219.787 133.105 219.073 133.105 218.22C133.105 217.367 133.445 216.7 134.125 216.22C134.818 215.74 135.678 215.5 136.705 215.5C137.732 215.5 138.712 215.673 139.645 216.02V214.8ZM139.645 217.02C138.698 216.753 137.872 216.62 137.165 216.62C136.458 216.62 135.885 216.747 135.445 217C135.005 217.253 134.785 217.653 134.785 218.2C134.785 219.4 135.465 220 136.825 220C137.598 220 138.258 219.727 138.805 219.18C139.365 218.62 139.645 217.9 139.645 217.02Z" fill="#424242"/>
</svg>
