<svg width="572" height="78" viewBox="0 0 572 78" fill="none" xmlns="http://www.w3.org/2000/svg">
<path d="M94.3879 7.096V70.816H109.616V76H74.1919V70.816H88.3399V18.436C88.3399 16.996 88.4839 14.548 88.7719 11.092L56.0479 77.296H53.5639L20.8399 11.524C21.0559 13.972 21.1639 16.276 21.1639 18.436V70.816H35.3119V76H0.211914V70.816H15.3319V7.096H0.211914V1.91199H22.1359L54.9679 67.9L87.4759 1.91199H109.616V7.096H94.3879Z" fill="#424242"/>
<path d="M182.823 22.756V7.096H139.299V35.176H160.899V23.944H166.191V51.376H160.899V40.144H139.299V70.816H182.823V55.156H188.547V76H117.915V70.816H133.251V7.096H117.915V1.91199H188.547V22.756H182.823Z" fill="#424242"/>
<path d="M295.833 7.096V70.816H311.061V76H275.637V70.816H289.785V18.436C289.785 16.996 289.929 14.548 290.217 11.092L257.493 77.296H255.009L222.285 11.524C222.501 13.972 222.609 16.276 222.609 18.436V70.816H236.757V76H201.657V70.816H216.777V7.096H201.657V1.91199H223.581L256.413 67.9L288.921 1.91199H311.061V7.096H295.833Z" fill="#424242"/>
<path d="M358.999 77.404C352.159 77.404 345.931 75.856 340.315 72.76C334.699 69.592 330.271 65.092 327.031 59.26C323.791 53.428 322.171 46.66 322.171 38.956C322.171 31.18 323.791 24.376 327.031 18.544C330.271 12.712 334.699 8.248 340.315 5.152C345.931 1.984 352.159 0.399994 358.999 0.399994C365.839 0.399994 372.031 1.984 377.575 5.152C383.191 8.248 387.619 12.712 390.859 18.544C394.171 24.376 395.827 31.18 395.827 38.956C395.827 46.66 394.171 53.428 390.859 59.26C387.619 65.092 383.191 69.592 377.575 72.76C371.959 75.856 365.767 77.404 358.999 77.404ZM358.999 72.112C364.759 72.112 369.943 70.744 374.551 68.008C379.159 65.272 382.795 61.42 385.459 56.452C388.123 51.412 389.455 45.58 389.455 38.956C389.455 32.332 388.123 26.5 385.459 21.46C382.795 16.42 379.159 12.532 374.551 9.79599C369.943 7.06 364.759 5.692 358.999 5.692C353.167 5.692 347.911 7.06 343.231 9.79599C338.551 12.532 334.879 16.42 332.215 21.46C329.623 26.428 328.327 32.26 328.327 38.956C328.327 45.58 329.623 51.412 332.215 56.452C334.879 61.42 338.551 65.272 343.231 68.008C347.911 70.744 353.167 72.112 358.999 72.112Z" fill="#424242"/>
<path d="M490.162 69.628C486.13 74.812 481.09 77.404 475.042 77.404C469.282 77.404 464.35 75.28 460.246 71.032C456.214 66.712 452.758 60.124 449.878 51.268L446.854 42.52H428.494V70.816H443.83V76L407.11 76.108V70.924H422.446V7.096H407.11V1.91199H448.906C454.234 1.91199 458.806 2.812 462.622 4.612C466.51 6.34 469.462 8.752 471.478 11.848C473.494 14.944 474.502 18.472 474.502 22.432C474.502 25.816 473.638 28.948 471.91 31.828C470.182 34.708 467.662 37.12 464.35 39.064C461.038 40.936 457.042 42.052 452.362 42.412L455.494 50.728C458.158 57.928 461.074 63.256 464.242 66.712C467.41 70.096 471.082 71.788 475.258 71.788C477.85 71.788 480.046 71.248 481.846 70.168C483.718 69.016 485.374 67.54 486.814 65.74L490.162 69.628ZM428.494 37.768H449.014C452.974 37.768 456.394 37.084 459.274 35.716C462.226 34.348 464.494 32.512 466.078 30.208C467.662 27.904 468.454 25.312 468.454 22.432C468.454 17.968 466.726 14.296 463.27 11.416C459.814 8.536 455.062 7.096 449.014 7.096H428.494V37.768Z" fill="#424242"/>
<path d="M531.619 48.784V70.816H547.603V76H509.587V70.816H525.571V49.108L497.599 7.096H485.395V1.91199H518.227V7.096H504.619L528.919 44.356L552.787 7.096H538.855V1.91199H571.687V7.096H559.267L531.619 48.784Z" fill="#424242"/>
</svg>
