<svg width="994" height="78" viewBox="0 0 994 78" fill="none" xmlns="http://www.w3.org/2000/svg">
<path d="M94.3879 7.096V70.816H109.616V76H74.1919V70.816H88.3399V18.436C88.3399 16.996 88.4839 14.548 88.7719 11.092L56.0479 77.296H53.5639L20.8399 11.524C21.0559 13.972 21.1639 16.276 21.1639 18.436V70.816H35.3119V76H0.211914V70.816H15.3319V7.096H0.211914V1.91199H22.1359L54.9679 67.9L87.4759 1.91199H109.616V7.096H94.3879Z" fill="#424242"/>
<path d="M182.823 22.756V7.096H139.299V35.176H160.899V23.944H166.191V51.376H160.899V40.144H139.299V70.816H182.823V55.156H188.547V76H117.915V70.816H133.251V7.096H117.915V1.91199H188.547V22.756H182.823Z" fill="#424242"/>
<path d="M295.833 7.096V70.816H311.061V76H275.637V70.816H289.785V18.436C289.785 16.996 289.929 14.548 290.217 11.092L257.493 77.296H255.009L222.285 11.524C222.501 13.972 222.609 16.276 222.609 18.436V70.816H236.757V76H201.657V70.816H216.777V7.096H201.657V1.91199H223.581L256.413 67.9L288.921 1.91199H311.061V7.096H295.833Z" fill="#424242"/>
<path d="M358.999 77.404C352.159 77.404 345.931 75.856 340.315 72.76C334.699 69.592 330.271 65.092 327.031 59.26C323.791 53.428 322.171 46.66 322.171 38.956C322.171 31.18 323.791 24.376 327.031 18.544C330.271 12.712 334.699 8.248 340.315 5.152C345.931 1.984 352.159 0.399994 358.999 0.399994C365.839 0.399994 372.031 1.984 377.575 5.152C383.191 8.248 387.619 12.712 390.859 18.544C394.171 24.376 395.827 31.18 395.827 38.956C395.827 46.66 394.171 53.428 390.859 59.26C387.619 65.092 383.191 69.592 377.575 72.76C371.959 75.856 365.767 77.404 358.999 77.404ZM358.999 72.112C364.759 72.112 369.943 70.744 374.551 68.008C379.159 65.272 382.795 61.42 385.459 56.452C388.123 51.412 389.455 45.58 389.455 38.956C389.455 32.332 388.123 26.5 385.459 21.46C382.795 16.42 379.159 12.532 374.551 9.79599C369.943 7.06 364.759 5.692 358.999 5.692C353.167 5.692 347.911 7.06 343.231 9.79599C338.551 12.532 334.879 16.42 332.215 21.46C329.623 26.428 328.327 32.26 328.327 38.956C328.327 45.58 329.623 51.412 332.215 56.452C334.879 61.42 338.551 65.272 343.231 68.008C347.911 70.744 353.167 72.112 358.999 72.112Z" fill="#424242"/>
<path d="M490.162 69.628C486.13 74.812 481.09 77.404 475.042 77.404C469.282 77.404 464.35 75.28 460.246 71.032C456.214 66.712 452.758 60.124 449.878 51.268L446.854 42.52H428.494V70.816H443.83V76L407.11 76.108V70.924H422.446V7.096H407.11V1.91199H448.906C454.234 1.91199 458.806 2.812 462.622 4.612C466.51 6.34 469.462 8.752 471.478 11.848C473.494 14.944 474.502 18.472 474.502 22.432C474.502 25.816 473.638 28.948 471.91 31.828C470.182 34.708 467.662 37.12 464.35 39.064C461.038 40.936 457.042 42.052 452.362 42.412L455.494 50.728C458.158 57.928 461.074 63.256 464.242 66.712C467.41 70.096 471.082 71.788 475.258 71.788C477.85 71.788 480.046 71.248 481.846 70.168C483.718 69.016 485.374 67.54 486.814 65.74L490.162 69.628ZM428.494 37.768H449.014C452.974 37.768 456.394 37.084 459.274 35.716C462.226 34.348 464.494 32.512 466.078 30.208C467.662 27.904 468.454 25.312 468.454 22.432C468.454 17.968 466.726 14.296 463.27 11.416C459.814 8.536 455.062 7.096 449.014 7.096H428.494V37.768Z" fill="#424242"/>
<path d="M531.619 48.784V70.816H547.603V76H509.587V70.816H525.571V49.108L497.599 7.096H485.395V1.91199H518.227V7.096H504.619L528.919 44.356L552.787 7.096H538.855V1.91199H571.687V7.096H559.267L531.619 48.784Z" fill="#424242"/>
<path d="M596.615 3.16299L598.534 3.16299V3.29599C598.458 3.37199 598.407 3.45432 598.382 3.54299C598.369 3.63166 598.363 3.78366 598.363 3.99899V8.08399L610.257 8.08399V3.16299L612.176 3.16299V3.29599C612.1 3.37199 612.049 3.45432 612.024 3.54299C612.011 3.63166 612.005 3.78366 612.005 3.99899V15H610.257V9.48999L598.363 9.48999V15H596.615V3.16299Z" fill="#424242"/>
<path d="M623.443 15.152C621.847 15.152 620.441 14.9683 619.225 14.601C618.022 14.2337 617.084 13.7143 616.413 13.043C615.742 12.359 615.406 11.561 615.406 10.649C615.406 9.73699 615.742 8.94532 616.413 8.27399C617.084 7.58999 618.022 7.06432 619.225 6.69699C620.441 6.31699 621.847 6.12699 623.443 6.12699C625.052 6.12699 626.439 6.31699 627.604 6.69699C628.782 7.06432 629.688 7.58999 630.321 8.27399C630.967 8.94532 631.29 9.73699 631.29 10.649C631.29 11.561 630.967 12.359 630.321 13.043C629.688 13.7143 628.782 14.2337 627.604 14.601C626.439 14.9683 625.052 15.152 623.443 15.152ZM623.443 13.784C624.608 13.784 625.647 13.6637 626.559 13.423C627.471 13.1823 628.187 12.8277 628.706 12.359C629.238 11.8903 629.504 11.314 629.504 10.63C629.504 9.93332 629.238 9.35699 628.706 8.90099C628.187 8.43232 627.471 8.08399 626.559 7.85599C625.647 7.61532 624.608 7.49499 623.443 7.49499C622.278 7.49499 621.22 7.61532 620.27 7.85599C619.333 8.08399 618.585 8.43232 618.028 8.90099C617.471 9.35699 617.192 9.93332 617.192 10.63C617.192 11.314 617.471 11.8903 618.028 12.359C618.585 12.8277 619.333 13.1823 620.27 13.423C621.22 13.6637 622.278 13.784 623.443 13.784Z" fill="#424242"/>
<path d="M637.959 15.019L633.665 6.31699H635.413L638.89 13.214L642.006 7.13399L643.222 7.13399L646.756 13.347C647.237 12.321 647.636 11.4597 647.953 10.763C648.27 10.0663 648.523 9.48366 648.713 9.01499C648.903 8.54632 649.042 8.14099 649.131 7.79899C649.232 7.45699 649.308 7.12766 649.359 6.81099L649.435 6.31699H651.335C650.904 7.78632 650.328 9.24299 649.606 10.687C648.897 12.131 648.206 13.575 647.535 15.019H645.901L642.519 9.12899L639.593 15.019H637.959Z" fill="#424242"/>
<path d="M659.562 8.46399L658.707 7.57099C659.366 7.14032 659.879 6.74766 660.246 6.39299C660.613 6.03832 660.797 5.74066 660.797 5.49999C660.797 5.34799 660.74 5.22766 660.626 5.13899C660.525 5.03766 660.404 4.94266 660.265 4.85399C660.138 4.75266 660.018 4.63232 659.904 4.49299C659.803 4.35366 659.752 4.16366 659.752 3.92299C659.752 3.63166 659.872 3.38466 660.113 3.18199C660.354 2.97932 660.689 2.87799 661.12 2.87799C661.551 2.87799 661.918 3.02366 662.222 3.31499C662.526 3.60632 662.678 3.98632 662.678 4.45499C662.678 4.96166 662.456 5.55699 662.013 6.24099C661.582 6.91232 660.765 7.65332 659.562 8.46399Z" fill="#424242"/>
<path d="M680.576 15.19C679.449 15.19 678.461 15.1393 677.612 15.038C676.776 14.9367 676.016 14.7783 675.332 14.563C674.648 14.335 673.977 14.0437 673.318 13.689L674.553 12.511L674.705 12.378L674.781 12.473C674.781 12.5743 674.819 12.644 674.895 12.682C674.984 12.72 675.117 12.7897 675.294 12.891C675.902 13.1823 676.618 13.4103 677.441 13.575C678.277 13.7397 679.347 13.822 680.652 13.822C681.703 13.822 682.622 13.7777 683.407 13.689C684.205 13.5877 684.826 13.4483 685.269 13.271C685.725 13.0937 685.953 12.8847 685.953 12.644C685.953 12.378 685.776 12.169 685.421 12.017C685.066 11.865 684.503 11.732 683.73 11.618C682.97 11.4913 681.957 11.3457 680.69 11.181C679.221 10.9783 677.998 10.7757 677.023 10.573C676.048 10.3577 675.319 10.0853 674.838 9.75599C674.369 9.42666 674.135 8.98966 674.135 8.44499C674.135 7.78632 674.667 7.23532 675.731 6.79199C676.795 6.33599 678.397 6.10799 680.538 6.10799C681.501 6.10799 682.324 6.14599 683.008 6.22199C683.692 6.28532 684.287 6.38032 684.794 6.50699C685.301 6.63366 685.763 6.79199 686.181 6.98199C686.599 7.15932 687.023 7.36199 687.454 7.58999L686.143 8.53999L685.991 8.65399L685.915 8.55899C685.928 8.44499 685.89 8.37532 685.801 8.34999C685.712 8.32466 685.573 8.26766 685.383 8.17899C684.826 7.96366 684.148 7.79266 683.35 7.66599C682.552 7.53932 681.64 7.47599 680.614 7.47599C679.145 7.47599 677.998 7.55832 677.175 7.72299C676.352 7.87499 675.94 8.09032 675.94 8.36899C675.94 8.78699 676.421 9.08466 677.384 9.26199C678.347 9.43932 679.816 9.65466 681.792 9.90799C683.236 10.098 684.395 10.3133 685.269 10.554C686.143 10.782 686.776 11.0607 687.169 11.39C687.562 11.7193 687.758 12.1183 687.758 12.587C687.758 13.423 687.156 14.069 685.953 14.525C684.762 14.9683 682.97 15.19 680.576 15.19Z" fill="#424242"/>
<path d="M714.168 18.306C713.357 18.306 712.604 18.23 711.907 18.078C711.21 17.926 710.634 17.6917 710.178 17.375L711.375 16.254L711.527 16.121L711.603 16.216C711.603 16.3173 711.647 16.3807 711.736 16.406C711.825 16.444 711.964 16.5073 712.154 16.596C712.737 16.824 713.459 16.938 714.32 16.938C715.232 16.938 716.03 16.8177 716.714 16.577C717.411 16.3363 718.012 15.9247 718.519 15.342L711.09 6.31699H713.18L719.469 14.012L722.376 9.77499C722.769 9.20499 723.136 8.63499 723.478 8.06499C723.833 7.48232 724.073 6.89966 724.2 6.31699L726.176 6.31699C726.011 6.89966 725.733 7.48866 725.34 8.08399C724.947 8.67932 724.542 9.27466 724.124 9.86999L719.792 15.988C719.184 16.8367 718.405 17.432 717.455 17.774C716.505 18.1287 715.409 18.306 714.168 18.306Z" fill="#424242"/>
<path d="M737.443 15.152C735.847 15.152 734.441 14.9683 733.225 14.601C732.022 14.2337 731.084 13.7143 730.413 13.043C729.742 12.359 729.406 11.561 729.406 10.649C729.406 9.73699 729.742 8.94532 730.413 8.27399C731.084 7.58999 732.022 7.06432 733.225 6.69699C734.441 6.31699 735.847 6.12699 737.443 6.12699C739.052 6.12699 740.439 6.31699 741.604 6.69699C742.782 7.06432 743.688 7.58999 744.321 8.27399C744.967 8.94532 745.29 9.73699 745.29 10.649C745.29 11.561 744.967 12.359 744.321 13.043C743.688 13.7143 742.782 14.2337 741.604 14.601C740.439 14.9683 739.052 15.152 737.443 15.152ZM737.443 13.784C738.608 13.784 739.647 13.6637 740.559 13.423C741.471 13.1823 742.187 12.8277 742.706 12.359C743.238 11.8903 743.504 11.314 743.504 10.63C743.504 9.93332 743.238 9.35699 742.706 8.90099C742.187 8.43232 741.471 8.08399 740.559 7.85599C739.647 7.61532 738.608 7.49499 737.443 7.49499C736.278 7.49499 735.22 7.61532 734.27 7.85599C733.333 8.08399 732.585 8.43232 732.028 8.90099C731.471 9.35699 731.192 9.93332 731.192 10.63C731.192 11.314 731.471 11.8903 732.028 12.359C732.585 12.8277 733.333 13.1823 734.27 13.423C735.22 13.6637 736.278 13.784 737.443 13.784Z" fill="#424242"/>
<path d="M755.341 15.209C754.176 15.209 753.207 15.1077 752.434 14.905C751.674 14.6897 751.072 14.4173 750.629 14.088C750.186 13.746 749.856 13.3723 749.641 12.967C749.438 12.5617 749.305 12.1627 749.242 11.77C749.191 11.3773 749.166 11.0227 749.166 10.706L749.204 6.31699H750.952V10.706C750.952 11.0227 751.003 11.3647 751.104 11.732C751.205 12.0993 751.421 12.4477 751.75 12.777C752.092 13.0937 752.599 13.3597 753.27 13.575C753.954 13.7777 754.872 13.879 756.025 13.879C756.633 13.879 757.273 13.822 757.944 13.708C758.615 13.5813 759.242 13.3913 759.825 13.138C760.42 12.8847 760.902 12.568 761.269 12.188C761.636 11.808 761.82 11.3583 761.82 10.839V6.31699H763.568V13.651C763.568 13.879 763.587 14.107 763.625 14.335C763.676 14.5503 763.783 14.772 763.948 15H762.238C762.073 14.7847 761.966 14.563 761.915 14.335C761.864 14.107 761.839 13.8853 761.839 13.67C761.56 13.9107 761.174 14.126 760.68 14.316C760.186 14.506 759.635 14.6707 759.027 14.81C758.419 14.9367 757.792 15.0317 757.146 15.095C756.513 15.171 755.911 15.209 755.341 15.209Z" fill="#424242"/>
<path d="M770.104 6.31699H771.909L771.852 8.00799C772.131 7.70399 772.504 7.43166 772.973 7.19099C773.454 6.95032 773.993 6.75399 774.588 6.60199C775.183 6.43732 775.798 6.31699 776.431 6.24099C777.064 6.15232 777.679 6.10799 778.274 6.10799C779.186 6.10799 780.06 6.19032 780.896 6.35499C781.732 6.50699 782.454 6.74132 783.062 7.05799L782.302 8.38799L782.188 8.55899L782.074 8.48299C782.061 8.38166 782.011 8.31199 781.922 8.27399C781.846 8.22332 781.713 8.15999 781.523 8.08399C780.94 7.85599 780.377 7.69132 779.832 7.58999C779.3 7.48866 778.717 7.43799 778.084 7.43799C777.451 7.43799 776.773 7.49499 776.051 7.60899C775.329 7.71032 774.651 7.88132 774.018 8.12199C773.385 8.36266 772.865 8.67299 772.46 9.05299C772.067 9.43299 771.871 9.89532 771.871 10.44V15.019H770.104V6.31699Z" fill="#424242"/>
<path d="M814.393 15.19C812.696 15.19 811.195 15.019 809.89 14.677C808.585 14.3223 807.559 13.8093 806.812 13.138C806.077 12.4667 805.71 11.6497 805.71 10.687C805.71 9.95232 805.925 9.29999 806.356 8.72999C806.799 8.15999 807.395 7.68499 808.142 7.30499C808.902 6.91232 809.776 6.61466 810.764 6.41199C811.752 6.20932 812.797 6.10799 813.899 6.10799C814.887 6.10799 815.818 6.19666 816.692 6.37399C817.566 6.53866 818.339 6.79832 819.01 7.15299C819.694 7.50766 820.226 7.95099 820.606 8.48299C820.986 9.00232 821.176 9.61666 821.176 10.326C821.176 10.4273 821.17 10.535 821.157 10.649C821.144 10.7503 821.125 10.8517 821.1 10.953L807.42 10.953C807.471 11.5103 807.711 11.979 808.142 12.359C808.585 12.7263 809.149 13.024 809.833 13.252C810.53 13.4673 811.283 13.6257 812.094 13.727C812.905 13.8157 813.696 13.86 814.469 13.86C815.368 13.86 816.217 13.7967 817.015 13.67C817.826 13.5307 818.522 13.3027 819.105 12.986L820.625 13.841C819.89 14.2843 818.991 14.62 817.927 14.848C816.863 15.076 815.685 15.19 814.393 15.19ZM807.534 9.69899L819.314 9.69899C819.314 9.29366 819.149 8.94532 818.82 8.65399C818.503 8.36266 818.073 8.12199 817.528 7.93199C816.983 7.74199 816.375 7.60266 815.704 7.51399C815.045 7.42532 814.38 7.38099 813.709 7.38099C813.114 7.38099 812.48 7.41899 811.809 7.49499C811.15 7.55832 810.517 7.67866 809.909 7.85599C809.301 8.03332 808.782 8.27399 808.351 8.57799C807.933 8.86932 807.661 9.24299 807.534 9.69899Z" fill="#424242"/>
<path d="M831.075 15.209C829.099 15.209 827.573 14.9873 826.496 14.544C825.432 14.088 824.9 13.5117 824.9 12.815C824.9 12.3463 825.128 11.922 825.584 11.542C826.04 11.162 826.673 10.839 827.484 10.573C828.295 10.2943 829.226 10.079 830.277 9.92699C831.341 9.77499 832.468 9.69899 833.659 9.69899C834.254 9.69899 834.97 9.71799 835.806 9.75599C836.642 9.79399 837.453 9.83832 838.238 9.88899C838.061 9.23032 837.7 8.72366 837.155 8.36899C836.623 8.00166 835.926 7.74832 835.065 7.60899C834.216 7.45699 833.241 7.38099 832.139 7.38099C831.303 7.38099 830.473 7.43799 829.65 7.55199C828.839 7.66599 828.098 7.88766 827.427 8.21699L826.135 7.34299C826.958 6.93766 827.896 6.63366 828.947 6.43099C830.011 6.22832 831.138 6.12699 832.329 6.12699C833.862 6.12699 835.198 6.25366 836.338 6.50699C837.491 6.76032 838.384 7.19732 839.017 7.81799C839.65 8.43866 839.967 9.29366 839.967 10.383V15H838.219V13.67C837.89 13.9867 837.427 14.2463 836.832 14.449C836.249 14.6517 835.603 14.81 834.894 14.924C834.197 15.0253 833.513 15.095 832.842 15.133C832.171 15.1837 831.582 15.209 831.075 15.209ZM826.762 12.739C826.762 12.9417 826.901 13.119 827.18 13.271C827.459 13.423 827.82 13.5497 828.263 13.651C828.719 13.7397 829.213 13.8093 829.745 13.86C830.29 13.9107 830.822 13.936 831.341 13.936C832.544 13.936 833.646 13.841 834.647 13.651C835.648 13.4483 836.471 13.1443 837.117 12.739C837.763 12.3337 838.156 11.8143 838.295 11.181C837.839 11.143 837.345 11.105 836.813 11.067C836.281 11.029 835.755 10.9973 835.236 10.972C834.729 10.9467 834.28 10.934 833.887 10.934C832.975 10.934 832.095 10.972 831.246 11.048C830.397 11.124 829.631 11.238 828.947 11.39C828.276 11.542 827.744 11.732 827.351 11.96C826.958 12.188 826.762 12.4477 826.762 12.739Z" fill="#424242"/>
<path d="M850.474 11.998C849.929 11.998 849.41 11.9727 848.916 11.922C848.435 11.8713 847.985 11.7953 847.567 11.694C847.187 11.8333 846.858 11.979 846.579 12.131C846.313 12.283 846.18 12.435 846.18 12.587C846.18 12.891 846.712 13.1063 847.776 13.233C848.84 13.347 850.385 13.404 852.412 13.404C853.742 13.404 854.831 13.4547 855.68 13.556C856.541 13.6573 857.213 13.803 857.694 13.993C858.188 14.183 858.53 14.411 858.72 14.677C858.91 14.9303 859.005 15.2153 859.005 15.532C859.005 16.0133 858.745 16.463 858.226 16.881C857.707 17.299 856.877 17.6347 855.737 17.888C854.61 18.1413 853.121 18.268 851.272 18.268C849.587 18.268 848.137 18.1857 846.921 18.021C845.705 17.8563 844.768 17.603 844.109 17.261C843.45 16.9317 843.121 16.52 843.121 16.026C843.121 15.5447 843.368 15.1393 843.862 14.81C844.356 14.4807 845.008 14.2337 845.819 14.069C844.97 13.7777 844.546 13.3913 844.546 12.91C844.546 12.6313 844.698 12.359 845.002 12.093C845.319 11.8143 845.756 11.5483 846.313 11.295C845.642 11.029 845.116 10.6933 844.736 10.288C844.369 9.88266 844.185 9.44566 844.185 8.97699C844.185 8.41966 844.445 7.92566 844.964 7.49499C845.496 7.06432 846.231 6.72866 847.168 6.48799C848.118 6.23466 849.22 6.10799 850.474 6.10799C851.449 6.10799 852.336 6.18399 853.134 6.33599C853.932 6.48799 854.603 6.70332 855.148 6.98199C855.807 6.69066 856.497 6.48166 857.219 6.35499C857.954 6.21566 858.809 6.16499 859.784 6.20299L860.126 7.36199C859.391 7.32399 858.695 7.33032 858.036 7.38099C857.39 7.41899 856.782 7.52666 856.212 7.70399C856.579 8.09666 856.763 8.52099 856.763 8.97699C856.763 9.53432 856.497 10.0473 855.965 10.516C855.446 10.972 854.711 11.333 853.761 11.599C852.824 11.865 851.728 11.998 850.474 11.998ZM850.474 10.725C851.437 10.725 852.279 10.6553 853.001 10.516C853.723 10.364 854.287 10.155 854.692 9.88899C855.097 9.62299 855.3 9.31899 855.3 8.97699C855.3 8.62232 855.097 8.33099 854.692 8.10299C854.287 7.86232 853.723 7.67866 853.001 7.55199C852.279 7.42532 851.437 7.36199 850.474 7.36199C849.638 7.36199 848.853 7.42532 848.118 7.55199C847.383 7.67866 846.788 7.86232 846.332 8.10299C845.876 8.33099 845.648 8.62232 845.648 8.97699C845.648 9.31899 845.857 9.62299 846.275 9.88899C846.706 10.155 847.282 10.364 848.004 10.516C848.739 10.6553 849.562 10.725 850.474 10.725ZM844.717 15.817C844.717 15.9817 844.894 16.1337 845.249 16.273C845.616 16.425 846.11 16.5517 846.731 16.653C847.352 16.767 848.055 16.8557 848.84 16.919C849.638 16.9823 850.461 17.014 851.31 17.014C852.463 17.014 853.495 16.9697 854.407 16.881C855.332 16.805 856.06 16.672 856.592 16.482C857.137 16.292 857.409 16.045 857.409 15.741C857.409 15.323 856.959 15.0443 856.06 14.905C855.173 14.753 853.767 14.677 851.842 14.677C850.955 14.677 850.132 14.658 849.372 14.62C848.625 14.5693 847.96 14.4997 847.377 14.411C846.946 14.5377 846.528 14.6643 846.123 14.791C845.718 14.9177 845.382 15.057 845.116 15.209C844.85 15.3737 844.717 15.5763 844.717 15.817Z" fill="#424242"/>
<path d="M864.002 15V13.632L869.645 13.632V3.73299L864.23 3.73299V2.36499L871.393 2.36499V13.632H876.998V15L864.002 15Z" fill="#424242"/>
<path d="M890.393 15.19C888.696 15.19 887.195 15.019 885.89 14.677C884.585 14.3223 883.559 13.8093 882.812 13.138C882.077 12.4667 881.71 11.6497 881.71 10.687C881.71 9.95232 881.925 9.29999 882.356 8.72999C882.799 8.15999 883.395 7.68499 884.142 7.30499C884.902 6.91232 885.776 6.61466 886.764 6.41199C887.752 6.20932 888.797 6.10799 889.899 6.10799C890.887 6.10799 891.818 6.19666 892.692 6.37399C893.566 6.53866 894.339 6.79832 895.01 7.15299C895.694 7.50766 896.226 7.95099 896.606 8.48299C896.986 9.00232 897.176 9.61666 897.176 10.326C897.176 10.4273 897.17 10.535 897.157 10.649C897.144 10.7503 897.125 10.8517 897.1 10.953L883.42 10.953C883.471 11.5103 883.711 11.979 884.142 12.359C884.585 12.7263 885.149 13.024 885.833 13.252C886.53 13.4673 887.283 13.6257 888.094 13.727C888.905 13.8157 889.696 13.86 890.469 13.86C891.368 13.86 892.217 13.7967 893.015 13.67C893.826 13.5307 894.522 13.3027 895.105 12.986L896.625 13.841C895.89 14.2843 894.991 14.62 893.927 14.848C892.863 15.076 891.685 15.19 890.393 15.19ZM883.534 9.69899L895.314 9.69899C895.314 9.29366 895.149 8.94532 894.82 8.65399C894.503 8.36266 894.073 8.12199 893.528 7.93199C892.983 7.74199 892.375 7.60266 891.704 7.51399C891.045 7.42532 890.38 7.38099 889.709 7.38099C889.114 7.38099 888.48 7.41899 887.809 7.49499C887.15 7.55832 886.517 7.67866 885.909 7.85599C885.301 8.03332 884.782 8.27399 884.351 8.57799C883.933 8.86932 883.661 9.24299 883.534 9.69899Z" fill="#424242"/>
<path d="M928.393 15.19C926.696 15.19 925.195 15.019 923.89 14.677C922.585 14.3223 921.559 13.8093 920.812 13.138C920.077 12.4667 919.71 11.6497 919.71 10.687C919.71 9.95232 919.925 9.29999 920.356 8.72999C920.799 8.15999 921.395 7.68499 922.142 7.30499C922.902 6.91232 923.776 6.61466 924.764 6.41199C925.752 6.20932 926.797 6.10799 927.899 6.10799C928.887 6.10799 929.818 6.19666 930.692 6.37399C931.566 6.53866 932.339 6.79832 933.01 7.15299C933.694 7.50766 934.226 7.95099 934.606 8.48299C934.986 9.00232 935.176 9.61666 935.176 10.326C935.176 10.4273 935.17 10.535 935.157 10.649C935.144 10.7503 935.125 10.8517 935.1 10.953L921.42 10.953C921.471 11.5103 921.711 11.979 922.142 12.359C922.585 12.7263 923.149 13.024 923.833 13.252C924.53 13.4673 925.283 13.6257 926.094 13.727C926.905 13.8157 927.696 13.86 928.469 13.86C929.368 13.86 930.217 13.7967 931.015 13.67C931.826 13.5307 932.522 13.3027 933.105 12.986L934.625 13.841C933.89 14.2843 932.991 14.62 931.927 14.848C930.863 15.076 929.685 15.19 928.393 15.19ZM921.534 9.69899H933.314C933.314 9.29366 933.149 8.94532 932.82 8.65399C932.503 8.36266 932.073 8.12199 931.528 7.93199C930.983 7.74199 930.375 7.60266 929.704 7.51399C929.045 7.42532 928.38 7.38099 927.709 7.38099C927.114 7.38099 926.48 7.41899 925.809 7.49499C925.15 7.55832 924.517 7.67866 923.909 7.85599C923.301 8.03332 922.782 8.27399 922.351 8.57799C921.933 8.86932 921.661 9.24299 921.534 9.69899Z" fill="#424242"/>
<path d="M942.168 18.306C941.357 18.306 940.604 18.23 939.907 18.078C939.21 17.926 938.634 17.6917 938.178 17.375L939.375 16.254L939.527 16.121L939.603 16.216C939.603 16.3173 939.647 16.3807 939.736 16.406C939.825 16.444 939.964 16.5073 940.154 16.596C940.737 16.824 941.459 16.938 942.32 16.938C943.232 16.938 944.03 16.8177 944.714 16.577C945.411 16.3363 946.012 15.9247 946.519 15.342L939.09 6.31699H941.18L947.469 14.012L950.376 9.77499C950.769 9.20499 951.136 8.63499 951.478 8.06499C951.833 7.48232 952.073 6.89966 952.2 6.31699L954.176 6.31699C954.011 6.89966 953.733 7.48866 953.34 8.08399C952.947 8.67932 952.542 9.27466 952.124 9.86999L947.792 15.988C947.184 16.8367 946.405 17.432 945.455 17.774C944.505 18.1287 943.409 18.306 942.168 18.306Z" fill="#424242"/>
<path d="M966.393 15.19C964.696 15.19 963.195 15.019 961.89 14.677C960.585 14.3223 959.559 13.8093 958.812 13.138C958.077 12.4667 957.71 11.6497 957.71 10.687C957.71 9.95232 957.925 9.29999 958.356 8.72999C958.799 8.15999 959.395 7.68499 960.142 7.30499C960.902 6.91232 961.776 6.61466 962.764 6.41199C963.752 6.20932 964.797 6.10799 965.899 6.10799C966.887 6.10799 967.818 6.19666 968.692 6.37399C969.566 6.53866 970.339 6.79832 971.01 7.15299C971.694 7.50766 972.226 7.95099 972.606 8.48299C972.986 9.00232 973.176 9.61666 973.176 10.326C973.176 10.4273 973.17 10.535 973.157 10.649C973.144 10.7503 973.125 10.8517 973.1 10.953L959.42 10.953C959.471 11.5103 959.711 11.979 960.142 12.359C960.585 12.7263 961.149 13.024 961.833 13.252C962.53 13.4673 963.283 13.6257 964.094 13.727C964.905 13.8157 965.696 13.86 966.469 13.86C967.368 13.86 968.217 13.7967 969.015 13.67C969.826 13.5307 970.522 13.3027 971.105 12.986L972.625 13.841C971.89 14.2843 970.991 14.62 969.927 14.848C968.863 15.076 967.685 15.19 966.393 15.19ZM959.534 9.69899L971.314 9.69899C971.314 9.29366 971.149 8.94532 970.82 8.65399C970.503 8.36266 970.073 8.12199 969.528 7.93199C968.983 7.74199 968.375 7.60266 967.704 7.51399C967.045 7.42532 966.38 7.38099 965.709 7.38099C965.114 7.38099 964.48 7.41899 963.809 7.49499C963.15 7.55832 962.517 7.67866 961.909 7.85599C961.301 8.03332 960.782 8.27399 960.351 8.57799C959.933 8.86932 959.661 9.24299 959.534 9.69899Z" fill="#424242"/>
<path d="M984.006 10.516C984.006 10.0727 984.145 9.67999 984.424 9.33799C984.703 8.99599 985.064 8.68566 985.507 8.40699C985.95 8.12832 986.419 7.87499 986.913 7.64699C987.42 7.40632 987.895 7.17199 988.338 6.94399C988.781 6.71599 989.142 6.47532 989.421 6.22199C989.7 5.96866 989.839 5.68366 989.839 5.36699C989.839 5.07566 989.687 4.82866 989.383 4.62599C989.092 4.42332 988.693 4.25232 988.186 4.11299C987.692 3.97366 987.141 3.87232 986.533 3.80899C985.925 3.74566 985.311 3.71399 984.69 3.71399C982.347 3.71399 980.478 4.12566 979.085 4.94899C978.908 5.06299 978.787 5.15799 978.724 5.23399C978.661 5.29732 978.616 5.37966 978.591 5.48099L978.496 5.55699L978.382 5.40499L977.47 4.34099C978.015 3.92299 978.61 3.56832 979.256 3.27699C979.915 2.98566 980.687 2.76399 981.574 2.61199C982.473 2.44732 983.55 2.36499 984.804 2.36499C986.147 2.36499 987.318 2.48532 988.319 2.72599C989.332 2.96666 990.118 3.30866 990.675 3.75199C991.245 4.19532 991.53 4.72099 991.53 5.32899C991.53 5.82299 991.391 6.25366 991.112 6.62099C990.833 6.97566 990.472 7.29232 990.029 7.57099C989.598 7.83699 989.136 8.08399 988.642 8.31199C988.148 8.53999 987.679 8.76166 987.236 8.97699C986.805 9.19232 986.451 9.43299 986.172 9.69899C985.893 9.95232 985.754 10.25 985.754 10.592V11.295H984.006V10.516ZM984.88 15.209C984.525 15.209 984.215 15.0823 983.949 14.829C983.696 14.5757 983.569 14.2717 983.569 13.917C983.569 13.5497 983.696 13.2393 983.949 12.986C984.215 12.7327 984.525 12.606 984.88 12.606C985.235 12.606 985.539 12.7327 985.792 12.986C986.045 13.2393 986.172 13.5497 986.172 13.917C986.172 14.2717 986.045 14.5757 985.792 14.829C985.539 15.0823 985.235 15.209 984.88 15.209Z" fill="#424242"/>
<path d="M603.379 35V24.55H596.064V23.144L612.708 23.144V24.55L605.127 24.55V35H603.379Z" fill="#424242"/>
<path d="M618.104 26.317H619.909L619.852 28.008C620.131 27.704 620.504 27.4317 620.973 27.191C621.454 26.9503 621.993 26.754 622.588 26.602C623.183 26.4373 623.798 26.317 624.431 26.241C625.064 26.1523 625.679 26.108 626.274 26.108C627.186 26.108 628.06 26.1903 628.896 26.355C629.732 26.507 630.454 26.7413 631.062 27.058L630.302 28.388L630.188 28.559L630.074 28.483C630.061 28.3817 630.011 28.312 629.922 28.274C629.846 28.2233 629.713 28.16 629.523 28.084C628.94 27.856 628.377 27.6913 627.832 27.59C627.3 27.4887 626.717 27.438 626.084 27.438C625.451 27.438 624.773 27.495 624.051 27.609C623.329 27.7103 622.651 27.8813 622.018 28.122C621.385 28.3627 620.865 28.673 620.46 29.053C620.067 29.433 619.871 29.8953 619.871 30.44V35.019L618.104 35.019V26.317Z" fill="#424242"/>
<path d="M638.168 38.306C637.357 38.306 636.604 38.23 635.907 38.078C635.21 37.926 634.634 37.6917 634.178 37.375L635.375 36.254L635.527 36.121L635.603 36.216C635.603 36.3173 635.647 36.3807 635.736 36.406C635.825 36.444 635.964 36.5073 636.154 36.596C636.737 36.824 637.459 36.938 638.32 36.938C639.232 36.938 640.03 36.8177 640.714 36.577C641.411 36.3363 642.012 35.9247 642.519 35.342L635.09 26.317H637.18L643.469 34.012L646.376 29.775C646.769 29.205 647.136 28.635 647.478 28.065C647.833 27.4823 648.073 26.8997 648.2 26.317H650.176C650.011 26.8997 649.733 27.4887 649.34 28.084C648.947 28.6793 648.542 29.2747 648.124 29.87L643.792 35.988C643.184 36.8367 642.405 37.432 641.455 37.774C640.505 38.1287 639.409 38.306 638.168 38.306Z" fill="#424242"/>
<path d="M673.508 26.317H677.479L677.65 24.094L679.569 23.923L679.759 23.904L679.778 24.037C679.702 24.1257 679.632 24.2143 679.569 24.303C679.518 24.3917 679.48 24.5437 679.455 24.759L679.227 26.317H685.63V27.685H679.17L678.942 30.383C678.866 31.3203 678.923 32.0423 679.113 32.549C679.303 33.043 679.664 33.385 680.196 33.575C680.741 33.765 681.488 33.86 682.438 33.86C683.274 33.86 684.059 33.7777 684.794 33.613C685.529 33.4357 686.244 33.2203 686.941 32.967L687.53 34.202C686.656 34.5187 685.763 34.772 684.851 34.962C683.952 35.1393 683.008 35.228 682.02 35.228C680.905 35.228 680.012 35.1267 679.341 34.924C678.67 34.7213 678.169 34.4173 677.84 34.012C677.511 33.6067 677.302 33.0937 677.213 32.473C677.137 31.8523 677.131 31.124 677.194 30.288L677.384 27.685H673.508V26.317Z" fill="#424242"/>
<path d="M699.443 35.152C697.847 35.152 696.441 34.9683 695.225 34.601C694.022 34.2337 693.084 33.7143 692.413 33.043C691.742 32.359 691.406 31.561 691.406 30.649C691.406 29.737 691.742 28.9453 692.413 28.274C693.084 27.59 694.022 27.0643 695.225 26.697C696.441 26.317 697.847 26.127 699.443 26.127C701.052 26.127 702.439 26.317 703.604 26.697C704.782 27.0643 705.688 27.59 706.321 28.274C706.967 28.9453 707.29 29.737 707.29 30.649C707.29 31.561 706.967 32.359 706.321 33.043C705.688 33.7143 704.782 34.2337 703.604 34.601C702.439 34.9683 701.052 35.152 699.443 35.152ZM699.443 33.784C700.608 33.784 701.647 33.6637 702.559 33.423C703.471 33.1823 704.187 32.8277 704.706 32.359C705.238 31.8903 705.504 31.314 705.504 30.63C705.504 29.9333 705.238 29.357 704.706 28.901C704.187 28.4323 703.471 28.084 702.559 27.856C701.647 27.6153 700.608 27.495 699.443 27.495C698.278 27.495 697.22 27.6153 696.27 27.856C695.333 28.084 694.585 28.4323 694.028 28.901C693.471 29.357 693.192 29.9333 693.192 30.63C693.192 31.314 693.471 31.8903 694.028 32.359C694.585 32.8277 695.333 33.1823 696.27 33.423C697.22 33.6637 698.278 33.784 699.443 33.784Z" fill="#424242"/>
<path d="M738.716 35.209C737.031 35.209 735.53 35.0253 734.213 34.658C732.908 34.2907 731.882 33.7713 731.135 33.1C730.388 32.416 730.014 31.6053 730.014 30.668C730.014 29.7307 730.388 28.9263 731.135 28.255C731.882 27.5837 732.908 27.0643 734.213 26.697C735.518 26.3297 737.006 26.146 738.678 26.146C740.084 26.146 741.357 26.2917 742.497 26.583C743.637 26.8617 744.555 27.2543 745.252 27.761L744.226 28.749L744.093 28.882L743.998 28.787C743.998 28.6857 743.954 28.616 743.865 28.578C743.789 28.5273 743.656 28.4577 743.466 28.369C742.769 28.0397 741.984 27.818 741.11 27.704C740.236 27.5773 739.324 27.514 738.374 27.514C737.639 27.514 736.886 27.571 736.113 27.685C735.353 27.799 734.644 27.9827 733.985 28.236C733.339 28.4767 732.813 28.7933 732.408 29.186C732.003 29.566 731.8 30.0283 731.8 30.573C731.8 31.1303 732.003 31.618 732.408 32.036C732.813 32.4413 733.352 32.777 734.023 33.043C734.707 33.309 735.467 33.5117 736.303 33.651C737.139 33.7777 737.994 33.841 738.868 33.841C739.451 33.841 740.059 33.7903 740.692 33.689C741.338 33.5877 741.952 33.442 742.535 33.252C743.118 33.062 743.618 32.8467 744.036 32.606L744.986 33.803C743.263 34.7403 741.173 35.209 738.716 35.209Z" fill="#424242"/>
<path d="M750.002 35V33.632H755.645V23.733H750.23V22.365H757.393V33.632H762.998V35L750.002 35Z" fill="#424242"/>
<path d="M769.895 35V33.632H774.835V27.723H770.123V26.317H776.583V33.632H781.143V35H769.895ZM775.595 24.683C775.278 24.683 775.006 24.569 774.778 24.341C774.55 24.113 774.436 23.8407 774.436 23.524C774.436 23.1947 774.544 22.916 774.759 22.688C774.987 22.46 775.266 22.346 775.595 22.346C775.912 22.346 776.184 22.4663 776.412 22.707C776.653 22.935 776.773 23.2073 776.773 23.524C776.773 23.8407 776.653 24.113 776.412 24.341C776.184 24.569 775.912 24.683 775.595 24.683Z" fill="#424242"/>
<path d="M795.716 35.209C794.031 35.209 792.53 35.0253 791.213 34.658C789.908 34.2907 788.882 33.7713 788.135 33.1C787.388 32.416 787.014 31.6053 787.014 30.668C787.014 29.7307 787.388 28.9263 788.135 28.255C788.882 27.5837 789.908 27.0643 791.213 26.697C792.518 26.3297 794.006 26.146 795.678 26.146C797.084 26.146 798.357 26.2917 799.497 26.583C800.637 26.8617 801.555 27.2543 802.252 27.761L801.226 28.749L801.093 28.882L800.998 28.787C800.998 28.6857 800.954 28.616 800.865 28.578C800.789 28.5273 800.656 28.4577 800.466 28.369C799.769 28.0397 798.984 27.818 798.11 27.704C797.236 27.5773 796.324 27.514 795.374 27.514C794.639 27.514 793.886 27.571 793.113 27.685C792.353 27.799 791.644 27.9827 790.985 28.236C790.339 28.4767 789.813 28.7933 789.408 29.186C789.003 29.566 788.8 30.0283 788.8 30.573C788.8 31.1303 789.003 31.618 789.408 32.036C789.813 32.4413 790.352 32.777 791.023 33.043C791.707 33.309 792.467 33.5117 793.303 33.651C794.139 33.7777 794.994 33.841 795.868 33.841C796.451 33.841 797.059 33.7903 797.692 33.689C798.338 33.5877 798.952 33.442 799.535 33.252C800.118 33.062 800.618 32.8467 801.036 32.606L801.986 33.803C800.263 34.7403 798.173 35.209 795.716 35.209Z" fill="#424242"/>
<path d="M811.391 30.516L808.655 31.675V35H806.907V22.365H808.826V22.498C808.75 22.574 808.699 22.6563 808.674 22.745C808.661 22.8337 808.655 22.9857 808.655 23.201V30.307L818.098 26.279C818.389 26.3043 818.725 26.3297 819.105 26.355C819.498 26.3677 819.852 26.374 820.169 26.374H820.986L812.949 29.832L822.088 35L819.599 35.076L811.391 30.516Z" fill="#424242"/>
<path d="M852.393 35.19C850.696 35.19 849.195 35.019 847.89 34.677C846.585 34.3223 845.559 33.8093 844.812 33.138C844.077 32.4667 843.71 31.6497 843.71 30.687C843.71 29.9523 843.925 29.3 844.356 28.73C844.799 28.16 845.395 27.685 846.142 27.305C846.902 26.9123 847.776 26.6147 848.764 26.412C849.752 26.2093 850.797 26.108 851.899 26.108C852.887 26.108 853.818 26.1967 854.692 26.374C855.566 26.5387 856.339 26.7983 857.01 27.153C857.694 27.5077 858.226 27.951 858.606 28.483C858.986 29.0023 859.176 29.6167 859.176 30.326C859.176 30.4273 859.17 30.535 859.157 30.649C859.144 30.7503 859.125 30.8517 859.1 30.953L845.42 30.953C845.471 31.5103 845.711 31.979 846.142 32.359C846.585 32.7263 847.149 33.024 847.833 33.252C848.53 33.4673 849.283 33.6257 850.094 33.727C850.905 33.8157 851.696 33.86 852.469 33.86C853.368 33.86 854.217 33.7967 855.015 33.67C855.826 33.5307 856.522 33.3027 857.105 32.986L858.625 33.841C857.89 34.2843 856.991 34.62 855.927 34.848C854.863 35.076 853.685 35.19 852.393 35.19ZM845.534 29.699L857.314 29.699C857.314 29.2937 857.149 28.9453 856.82 28.654C856.503 28.3627 856.073 28.122 855.528 27.932C854.983 27.742 854.375 27.6027 853.704 27.514C853.045 27.4253 852.38 27.381 851.709 27.381C851.114 27.381 850.48 27.419 849.809 27.495C849.15 27.5583 848.517 27.6787 847.909 27.856C847.301 28.0333 846.782 28.274 846.351 28.578C845.933 28.8693 845.661 29.243 845.534 29.699Z" fill="#424242"/>
<path d="M869.607 35L862.558 26.317H864.724L870.69 33.613L873.958 29.908C874.566 29.224 875.073 28.5843 875.478 27.989C875.883 27.381 876.168 26.8237 876.333 26.317H878.347C878.144 26.849 877.809 27.4317 877.34 28.065C876.871 28.6983 876.327 29.3823 875.706 30.117L871.583 35H869.607Z" fill="#424242"/>
<path d="M890.393 35.19C888.696 35.19 887.195 35.019 885.89 34.677C884.585 34.3223 883.559 33.8093 882.812 33.138C882.077 32.4667 881.71 31.6497 881.71 30.687C881.71 29.9523 881.925 29.3 882.356 28.73C882.799 28.16 883.395 27.685 884.142 27.305C884.902 26.9123 885.776 26.6147 886.764 26.412C887.752 26.2093 888.797 26.108 889.899 26.108C890.887 26.108 891.818 26.1967 892.692 26.374C893.566 26.5387 894.339 26.7983 895.01 27.153C895.694 27.5077 896.226 27.951 896.606 28.483C896.986 29.0023 897.176 29.6167 897.176 30.326C897.176 30.4273 897.17 30.535 897.157 30.649C897.144 30.7503 897.125 30.8517 897.1 30.953L883.42 30.953C883.471 31.5103 883.711 31.979 884.142 32.359C884.585 32.7263 885.149 33.024 885.833 33.252C886.53 33.4673 887.283 33.6257 888.094 33.727C888.905 33.8157 889.696 33.86 890.469 33.86C891.368 33.86 892.217 33.7967 893.015 33.67C893.826 33.5307 894.522 33.3027 895.105 32.986L896.625 33.841C895.89 34.2843 894.991 34.62 893.927 34.848C892.863 35.076 891.685 35.19 890.393 35.19ZM883.534 29.699L895.314 29.699C895.314 29.2937 895.149 28.9453 894.82 28.654C894.503 28.3627 894.073 28.122 893.528 27.932C892.983 27.742 892.375 27.6027 891.704 27.514C891.045 27.4253 890.38 27.381 889.709 27.381C889.114 27.381 888.48 27.419 887.809 27.495C887.15 27.5583 886.517 27.6787 885.909 27.856C885.301 28.0333 884.782 28.274 884.351 28.578C883.933 28.8693 883.661 29.243 883.534 29.699Z" fill="#424242"/>
<path d="M903.104 26.317H904.909L904.852 28.008C905.131 27.704 905.504 27.4317 905.973 27.191C906.454 26.9503 906.993 26.754 907.588 26.602C908.183 26.4373 908.798 26.317 909.431 26.241C910.064 26.1523 910.679 26.108 911.274 26.108C912.186 26.108 913.06 26.1903 913.896 26.355C914.732 26.507 915.454 26.7413 916.062 27.058L915.302 28.388L915.188 28.559L915.074 28.483C915.061 28.3817 915.011 28.312 914.922 28.274C914.846 28.2233 914.713 28.16 914.523 28.084C913.94 27.856 913.377 27.6913 912.832 27.59C912.3 27.4887 911.717 27.438 911.084 27.438C910.451 27.438 909.773 27.495 909.051 27.609C908.329 27.7103 907.651 27.8813 907.018 28.122C906.385 28.3627 905.865 28.673 905.46 29.053C905.067 29.433 904.871 29.8953 904.871 30.44V35.019H903.104V26.317Z" fill="#424242"/>
<path d="M923.168 38.306C922.357 38.306 921.604 38.23 920.907 38.078C920.21 37.926 919.634 37.6917 919.178 37.375L920.375 36.254L920.527 36.121L920.603 36.216C920.603 36.3173 920.647 36.3807 920.736 36.406C920.825 36.444 920.964 36.5073 921.154 36.596C921.737 36.824 922.459 36.938 923.32 36.938C924.232 36.938 925.03 36.8177 925.714 36.577C926.411 36.3363 927.012 35.9247 927.519 35.342L920.09 26.317H922.18L928.469 34.012L931.376 29.775C931.769 29.205 932.136 28.635 932.478 28.065C932.833 27.4823 933.073 26.8997 933.2 26.317H935.176C935.011 26.8997 934.733 27.4887 934.34 28.084C933.947 28.6793 933.542 29.2747 933.124 29.87L928.792 35.988C928.184 36.8367 927.405 37.432 926.455 37.774C925.505 38.1287 924.409 38.306 923.168 38.306Z" fill="#424242"/>
<path d="M605.716 55.209C604.031 55.209 602.53 55.0253 601.213 54.658C599.908 54.2907 598.882 53.7713 598.135 53.1C597.388 52.416 597.014 51.6053 597.014 50.668C597.014 49.7307 597.388 48.9263 598.135 48.255C598.882 47.5837 599.908 47.0643 601.213 46.697C602.518 46.3297 604.006 46.146 605.678 46.146C607.084 46.146 608.357 46.2917 609.497 46.583C610.637 46.8617 611.555 47.2543 612.252 47.761L611.226 48.749L611.093 48.882L610.998 48.787C610.998 48.6857 610.954 48.616 610.865 48.578C610.789 48.5273 610.656 48.4577 610.466 48.369C609.769 48.0397 608.984 47.818 608.11 47.704C607.236 47.5773 606.324 47.514 605.374 47.514C604.639 47.514 603.886 47.571 603.113 47.685C602.353 47.799 601.644 47.9827 600.985 48.236C600.339 48.4767 599.813 48.7933 599.408 49.186C599.003 49.566 598.8 50.0283 598.8 50.573C598.8 51.1303 599.003 51.618 599.408 52.036C599.813 52.4413 600.352 52.777 601.023 53.043C601.707 53.309 602.467 53.5117 603.303 53.651C604.139 53.7777 604.994 53.841 605.868 53.841C606.451 53.841 607.059 53.7903 607.692 53.689C608.338 53.5877 608.952 53.442 609.535 53.252C610.118 53.062 610.618 52.8467 611.036 52.606L611.986 53.803C610.263 54.7403 608.173 55.209 605.716 55.209Z" fill="#424242"/>
<path d="M622.075 55.209C620.099 55.209 618.573 54.9873 617.496 54.544C616.432 54.088 615.9 53.5117 615.9 52.815C615.9 52.3463 616.128 51.922 616.584 51.542C617.04 51.162 617.673 50.839 618.484 50.573C619.295 50.2943 620.226 50.079 621.277 49.927C622.341 49.775 623.468 49.699 624.659 49.699C625.254 49.699 625.97 49.718 626.806 49.756C627.642 49.794 628.453 49.8383 629.238 49.889C629.061 49.2303 628.7 48.7237 628.155 48.369C627.623 48.0017 626.926 47.7483 626.065 47.609C625.216 47.457 624.241 47.381 623.139 47.381C622.303 47.381 621.473 47.438 620.65 47.552C619.839 47.666 619.098 47.8877 618.427 48.217L617.135 47.343C617.958 46.9377 618.896 46.6337 619.947 46.431C621.011 46.2283 622.138 46.127 623.329 46.127C624.862 46.127 626.198 46.2537 627.338 46.507C628.491 46.7603 629.384 47.1973 630.017 47.818C630.65 48.4387 630.967 49.2937 630.967 50.383V55H629.219V53.67C628.89 53.9867 628.427 54.2463 627.832 54.449C627.249 54.6517 626.603 54.81 625.894 54.924C625.197 55.0253 624.513 55.095 623.842 55.133C623.171 55.1837 622.582 55.209 622.075 55.209ZM617.762 52.739C617.762 52.9417 617.901 53.119 618.18 53.271C618.459 53.423 618.82 53.5497 619.263 53.651C619.719 53.7397 620.213 53.8093 620.745 53.86C621.29 53.9107 621.822 53.936 622.341 53.936C623.544 53.936 624.646 53.841 625.647 53.651C626.648 53.4483 627.471 53.1443 628.117 52.739C628.763 52.3337 629.156 51.8143 629.295 51.181C628.839 51.143 628.345 51.105 627.813 51.067C627.281 51.029 626.755 50.9973 626.236 50.972C625.729 50.9467 625.28 50.934 624.887 50.934C623.975 50.934 623.095 50.972 622.246 51.048C621.397 51.124 620.631 51.238 619.947 51.39C619.276 51.542 618.744 51.732 618.351 51.96C617.958 52.188 617.762 52.4477 617.762 52.739Z" fill="#424242"/>
<path d="M637.104 46.317H638.909L638.852 48.008C639.131 47.704 639.504 47.4317 639.973 47.191C640.454 46.9503 640.993 46.754 641.588 46.602C642.183 46.4373 642.798 46.317 643.431 46.241C644.064 46.1523 644.679 46.108 645.274 46.108C646.186 46.108 647.06 46.1903 647.896 46.355C648.732 46.507 649.454 46.7413 650.062 47.058L649.302 48.388L649.188 48.559L649.074 48.483C649.061 48.3817 649.011 48.312 648.922 48.274C648.846 48.2233 648.713 48.16 648.523 48.084C647.94 47.856 647.377 47.6913 646.832 47.59C646.3 47.4887 645.717 47.438 645.084 47.438C644.451 47.438 643.773 47.495 643.051 47.609C642.329 47.7103 641.651 47.8813 641.018 48.122C640.385 48.3627 639.865 48.673 639.46 49.053C639.067 49.433 638.871 49.8953 638.871 50.44V55.019H637.104V46.317Z" fill="#424242"/>
<path d="M661.063 55.19C660.151 55.19 659.245 55.095 658.346 54.905C657.459 54.715 656.649 54.4363 655.914 54.069C655.179 53.689 654.59 53.2203 654.147 52.663C653.716 52.093 653.501 51.4343 653.501 50.687C653.501 49.8637 653.729 49.1607 654.185 48.578C654.641 47.9953 655.243 47.5203 655.99 47.153C656.75 46.7857 657.58 46.5197 658.479 46.355C659.391 46.1777 660.303 46.089 661.215 46.089C662.722 46.089 663.976 46.2663 664.977 46.621C665.99 46.9757 666.674 47.381 667.029 47.837V42.365H668.986V42.498C668.91 42.574 668.859 42.6563 668.834 42.745C668.821 42.8337 668.815 42.9857 668.815 43.201V53.651C668.815 53.879 668.834 54.107 668.872 54.335C668.91 54.5503 668.992 54.772 669.119 55H667.181C667.054 54.772 666.978 54.5503 666.953 54.335C666.928 54.1197 666.915 53.898 666.915 53.67C666.484 54.1387 665.769 54.5123 664.768 54.791C663.767 55.057 662.532 55.19 661.063 55.19ZM661.481 53.822C663.318 53.822 664.698 53.594 665.623 53.138C666.56 52.6693 667.029 51.827 667.029 50.611C667.029 49.8383 666.788 49.224 666.307 48.768C665.826 48.2993 665.154 47.9637 664.293 47.761C663.432 47.5583 662.418 47.457 661.253 47.457C660.455 47.457 659.695 47.514 658.973 47.628C658.264 47.742 657.63 47.9193 657.073 48.16C656.516 48.4007 656.079 48.7173 655.762 49.11C655.445 49.49 655.287 49.9587 655.287 50.516C655.287 51.3013 655.559 51.941 656.104 52.435C656.661 52.9163 657.409 53.271 658.346 53.499C659.283 53.7143 660.328 53.822 661.481 53.822Z" fill="#424242"/>
<path d="M694.959 55.019L690.665 46.317H692.413L695.89 53.214L699.006 47.134H700.222L703.756 53.347C704.237 52.321 704.636 51.4597 704.953 50.763C705.27 50.0663 705.523 49.4837 705.713 49.015C705.903 48.5463 706.042 48.141 706.131 47.799C706.232 47.457 706.308 47.1277 706.359 46.811L706.435 46.317L708.335 46.317C707.904 47.7863 707.328 49.243 706.606 50.687C705.897 52.131 705.206 53.575 704.535 55.019H702.901L699.519 49.129L696.593 55.019H694.959Z" fill="#424242"/>
<path d="M712.895 55V53.632H717.835V47.723H713.123V46.317H719.583V53.632H724.143V55H712.895ZM718.595 44.683C718.278 44.683 718.006 44.569 717.778 44.341C717.55 44.113 717.436 43.8407 717.436 43.524C717.436 43.1947 717.544 42.916 717.759 42.688C717.987 42.46 718.266 42.346 718.595 42.346C718.912 42.346 719.184 42.4663 719.412 42.707C719.653 42.935 719.773 43.2073 719.773 43.524C719.773 43.8407 719.653 44.113 719.412 44.341C719.184 44.569 718.912 44.683 718.595 44.683Z" fill="#424242"/>
<path d="M730.508 46.317H734.479L734.65 44.094L736.569 43.923L736.759 43.904L736.778 44.037C736.702 44.1257 736.632 44.2143 736.569 44.303C736.518 44.3917 736.48 44.5437 736.455 44.759L736.227 46.317H742.63V47.685H736.17L735.942 50.383C735.866 51.3203 735.923 52.0423 736.113 52.549C736.303 53.043 736.664 53.385 737.196 53.575C737.741 53.765 738.488 53.86 739.438 53.86C740.274 53.86 741.059 53.7777 741.794 53.613C742.529 53.4357 743.244 53.2203 743.941 52.967L744.53 54.202C743.656 54.5187 742.763 54.772 741.851 54.962C740.952 55.1393 740.008 55.228 739.02 55.228C737.905 55.228 737.012 55.1267 736.341 54.924C735.67 54.7213 735.169 54.4173 734.84 54.012C734.511 53.6067 734.302 53.0937 734.213 52.473C734.137 51.8523 734.131 51.124 734.194 50.288L734.384 47.685H730.508V46.317Z" fill="#424242"/>
<path d="M749.413 42.365L751.332 42.365V42.498C751.256 42.574 751.205 42.6563 751.18 42.745C751.167 42.8337 751.161 42.9857 751.161 43.201V48.046C751.845 47.3873 752.782 46.8997 753.973 46.583C755.176 46.2663 756.544 46.108 758.077 46.108C759.888 46.108 761.301 46.4183 762.314 47.039C763.34 47.647 763.853 48.6097 763.853 49.927V55H762.105V49.965C762.105 49.357 761.902 48.8757 761.497 48.521C761.104 48.1663 760.56 47.913 759.863 47.761C759.179 47.609 758.394 47.533 757.507 47.533C757.064 47.533 756.563 47.5647 756.006 47.628C755.449 47.6913 754.885 47.7863 754.315 47.913C753.745 48.0397 753.219 48.2043 752.738 48.407C752.269 48.597 751.889 48.825 751.598 49.091C751.307 49.357 751.161 49.661 751.161 50.003V55L749.413 55V42.365Z" fill="#424242"/>
<path d="M775.443 55.152C773.847 55.152 772.441 54.9683 771.225 54.601C770.022 54.2337 769.084 53.7143 768.413 53.043C767.742 52.359 767.406 51.561 767.406 50.649C767.406 49.737 767.742 48.9453 768.413 48.274C769.084 47.59 770.022 47.0643 771.225 46.697C772.441 46.317 773.847 46.127 775.443 46.127C777.052 46.127 778.439 46.317 779.604 46.697C780.782 47.0643 781.688 47.59 782.321 48.274C782.967 48.9453 783.29 49.737 783.29 50.649C783.29 51.561 782.967 52.359 782.321 53.043C781.688 53.7143 780.782 54.2337 779.604 54.601C778.439 54.9683 777.052 55.152 775.443 55.152ZM775.443 53.784C776.608 53.784 777.647 53.6637 778.559 53.423C779.471 53.1823 780.187 52.8277 780.706 52.359C781.238 51.8903 781.504 51.314 781.504 50.63C781.504 49.9333 781.238 49.357 780.706 48.901C780.187 48.4323 779.471 48.084 778.559 47.856C777.647 47.6153 776.608 47.495 775.443 47.495C774.278 47.495 773.22 47.6153 772.27 47.856C771.333 48.084 770.585 48.4323 770.028 48.901C769.471 49.357 769.192 49.9333 769.192 50.63C769.192 51.314 769.471 51.8903 770.028 52.359C770.585 52.8277 771.333 53.1823 772.27 53.423C773.22 53.6637 774.278 53.784 775.443 53.784Z" fill="#424242"/>
<path d="M793.341 55.209C792.176 55.209 791.207 55.1077 790.434 54.905C789.674 54.6897 789.072 54.4173 788.629 54.088C788.186 53.746 787.856 53.3723 787.641 52.967C787.438 52.5617 787.305 52.1627 787.242 51.77C787.191 51.3773 787.166 51.0227 787.166 50.706L787.204 46.317H788.952V50.706C788.952 51.0227 789.003 51.3647 789.104 51.732C789.205 52.0993 789.421 52.4477 789.75 52.777C790.092 53.0937 790.599 53.3597 791.27 53.575C791.954 53.7777 792.872 53.879 794.025 53.879C794.633 53.879 795.273 53.822 795.944 53.708C796.615 53.5813 797.242 53.3913 797.825 53.138C798.42 52.8847 798.902 52.568 799.269 52.188C799.636 51.808 799.82 51.3583 799.82 50.839V46.317H801.568V53.651C801.568 53.879 801.587 54.107 801.625 54.335C801.676 54.5503 801.783 54.772 801.948 55H800.238C800.073 54.7847 799.966 54.563 799.915 54.335C799.864 54.107 799.839 53.8853 799.839 53.67C799.56 53.9107 799.174 54.126 798.68 54.316C798.186 54.506 797.635 54.6707 797.027 54.81C796.419 54.9367 795.792 55.0317 795.146 55.095C794.513 55.171 793.911 55.209 793.341 55.209Z" fill="#424242"/>
<path d="M806.508 46.317H810.479L810.65 44.094L812.569 43.923L812.759 43.904L812.778 44.037C812.702 44.1257 812.632 44.2143 812.569 44.303C812.518 44.3917 812.48 44.5437 812.455 44.759L812.227 46.317H818.63V47.685H812.17L811.942 50.383C811.866 51.3203 811.923 52.0423 812.113 52.549C812.303 53.043 812.664 53.385 813.196 53.575C813.741 53.765 814.488 53.86 815.438 53.86C816.274 53.86 817.059 53.7777 817.794 53.613C818.529 53.4357 819.244 53.2203 819.941 52.967L820.53 54.202C819.656 54.5187 818.763 54.772 817.851 54.962C816.952 55.1393 816.008 55.228 815.02 55.228C813.905 55.228 813.012 55.1267 812.341 54.924C811.67 54.7213 811.169 54.4173 810.84 54.012C810.511 53.6067 810.302 53.0937 810.213 52.473C810.137 51.8523 810.131 51.124 810.194 50.288L810.384 47.685H806.508V46.317Z" fill="#424242"/>
<path d="M852.716 55.209C851.031 55.209 849.53 55.0253 848.213 54.658C846.908 54.2907 845.882 53.7713 845.135 53.1C844.388 52.416 844.014 51.6053 844.014 50.668C844.014 49.7307 844.388 48.9263 845.135 48.255C845.882 47.5837 846.908 47.0643 848.213 46.697C849.518 46.3297 851.006 46.146 852.678 46.146C854.084 46.146 855.357 46.2917 856.497 46.583C857.637 46.8617 858.555 47.2543 859.252 47.761L858.226 48.749L858.093 48.882L857.998 48.787C857.998 48.6857 857.954 48.616 857.865 48.578C857.789 48.5273 857.656 48.4577 857.466 48.369C856.769 48.0397 855.984 47.818 855.11 47.704C854.236 47.5773 853.324 47.514 852.374 47.514C851.639 47.514 850.886 47.571 850.113 47.685C849.353 47.799 848.644 47.9827 847.985 48.236C847.339 48.4767 846.813 48.7933 846.408 49.186C846.003 49.566 845.8 50.0283 845.8 50.573C845.8 51.1303 846.003 51.618 846.408 52.036C846.813 52.4413 847.352 52.777 848.023 53.043C848.707 53.309 849.467 53.5117 850.303 53.651C851.139 53.7777 851.994 53.841 852.868 53.841C853.451 53.841 854.059 53.7903 854.692 53.689C855.338 53.5877 855.952 53.442 856.535 53.252C857.118 53.062 857.618 52.8467 858.036 52.606L858.986 53.803C857.263 54.7403 855.173 55.209 852.716 55.209Z" fill="#424242"/>
<path d="M864.002 55V53.632H869.645V43.733H864.23V42.365H871.393V53.632H876.998V55H864.002Z" fill="#424242"/>
<path d="M883.895 55V53.632H888.835V47.723H884.123V46.317H890.583V53.632H895.143V55H883.895ZM889.595 44.683C889.278 44.683 889.006 44.569 888.778 44.341C888.55 44.113 888.436 43.8407 888.436 43.524C888.436 43.1947 888.544 42.916 888.759 42.688C888.987 42.46 889.266 42.346 889.595 42.346C889.912 42.346 890.184 42.4663 890.412 42.707C890.653 42.935 890.773 43.2073 890.773 43.524C890.773 43.8407 890.653 44.113 890.412 44.341C890.184 44.569 889.912 44.683 889.595 44.683Z" fill="#424242"/>
<path d="M909.716 55.209C908.031 55.209 906.53 55.0253 905.213 54.658C903.908 54.2907 902.882 53.7713 902.135 53.1C901.388 52.416 901.014 51.6053 901.014 50.668C901.014 49.7307 901.388 48.9263 902.135 48.255C902.882 47.5837 903.908 47.0643 905.213 46.697C906.518 46.3297 908.006 46.146 909.678 46.146C911.084 46.146 912.357 46.2917 913.497 46.583C914.637 46.8617 915.555 47.2543 916.252 47.761L915.226 48.749L915.093 48.882L914.998 48.787C914.998 48.6857 914.954 48.616 914.865 48.578C914.789 48.5273 914.656 48.4577 914.466 48.369C913.769 48.0397 912.984 47.818 912.11 47.704C911.236 47.5773 910.324 47.514 909.374 47.514C908.639 47.514 907.886 47.571 907.113 47.685C906.353 47.799 905.644 47.9827 904.985 48.236C904.339 48.4767 903.813 48.7933 903.408 49.186C903.003 49.566 902.8 50.0283 902.8 50.573C902.8 51.1303 903.003 51.618 903.408 52.036C903.813 52.4413 904.352 52.777 905.023 53.043C905.707 53.309 906.467 53.5117 907.303 53.651C908.139 53.7777 908.994 53.841 909.868 53.841C910.451 53.841 911.059 53.7903 911.692 53.689C912.338 53.5877 912.952 53.442 913.535 53.252C914.118 53.062 914.618 52.8467 915.036 52.606L915.986 53.803C914.263 54.7403 912.173 55.209 909.716 55.209Z" fill="#424242"/>
<path d="M925.391 50.516L922.655 51.675V55H920.907V42.365H922.826V42.498C922.75 42.574 922.699 42.6563 922.674 42.745C922.661 42.8337 922.655 42.9857 922.655 43.201V50.307L932.098 46.279C932.389 46.3043 932.725 46.3297 933.105 46.355C933.498 46.3677 933.852 46.374 934.169 46.374H934.986L926.949 49.832L936.088 55L933.599 55.076L925.391 50.516Z" fill="#424242"/>
<path d="M940.895 55V53.632H945.835V47.723H941.123V46.317H947.583V53.632H952.143V55H940.895ZM946.595 44.683C946.278 44.683 946.006 44.569 945.778 44.341C945.55 44.113 945.436 43.8407 945.436 43.524C945.436 43.1947 945.544 42.916 945.759 42.688C945.987 42.46 946.266 42.346 946.595 42.346C946.912 42.346 947.184 42.4663 947.412 42.707C947.653 42.935 947.773 43.2073 947.773 43.524C947.773 43.8407 947.653 44.113 947.412 44.341C947.184 44.569 946.912 44.683 946.595 44.683Z" fill="#424242"/>
<path d="M958.299 55V46.317H960.047V48.046C960.313 47.742 960.75 47.4443 961.358 47.153C961.979 46.849 962.764 46.5957 963.714 46.393C964.664 46.1903 965.76 46.0953 967.001 46.108C968.128 46.108 969.129 46.2473 970.003 46.526C970.877 46.792 971.561 47.21 972.055 47.78C972.562 48.3373 972.815 49.053 972.815 49.927V55L971.067 55V49.965C971.067 49.0657 970.674 48.4387 969.889 48.084C969.116 47.7167 967.9 47.533 966.241 47.533C965.076 47.533 964.024 47.6407 963.087 47.856C962.15 48.0713 961.409 48.3753 960.864 48.768C960.319 49.1607 960.047 49.6357 960.047 50.193V55H958.299Z" fill="#424242"/>
<path d="M983.474 51.998C982.929 51.998 982.41 51.9727 981.916 51.922C981.435 51.8713 980.985 51.7953 980.567 51.694C980.187 51.8333 979.858 51.979 979.579 52.131C979.313 52.283 979.18 52.435 979.18 52.587C979.18 52.891 979.712 53.1063 980.776 53.233C981.84 53.347 983.385 53.404 985.412 53.404C986.742 53.404 987.831 53.4547 988.68 53.556C989.541 53.6573 990.213 53.803 990.694 53.993C991.188 54.183 991.53 54.411 991.72 54.677C991.91 54.9303 992.005 55.2153 992.005 55.532C992.005 56.0133 991.745 56.463 991.226 56.881C990.707 57.299 989.877 57.6347 988.737 57.888C987.61 58.1413 986.121 58.268 984.272 58.268C982.587 58.268 981.137 58.1857 979.921 58.021C978.705 57.8563 977.768 57.603 977.109 57.261C976.45 56.9317 976.121 56.52 976.121 56.026C976.121 55.5447 976.368 55.1393 976.862 54.81C977.356 54.4807 978.008 54.2337 978.819 54.069C977.97 53.7777 977.546 53.3913 977.546 52.91C977.546 52.6313 977.698 52.359 978.002 52.093C978.319 51.8143 978.756 51.5483 979.313 51.295C978.642 51.029 978.116 50.6933 977.736 50.288C977.369 49.8827 977.185 49.4457 977.185 48.977C977.185 48.4197 977.445 47.9257 977.964 47.495C978.496 47.0643 979.231 46.7287 980.168 46.488C981.118 46.2347 982.22 46.108 983.474 46.108C984.449 46.108 985.336 46.184 986.134 46.336C986.932 46.488 987.603 46.7033 988.148 46.982C988.807 46.6907 989.497 46.4817 990.219 46.355C990.954 46.2157 991.809 46.165 992.784 46.203L993.126 47.362C992.391 47.324 991.695 47.3303 991.036 47.381C990.39 47.419 989.782 47.5267 989.212 47.704C989.579 48.0967 989.763 48.521 989.763 48.977C989.763 49.5343 989.497 50.0473 988.965 50.516C988.446 50.972 987.711 51.333 986.761 51.599C985.824 51.865 984.728 51.998 983.474 51.998ZM983.474 50.725C984.437 50.725 985.279 50.6553 986.001 50.516C986.723 50.364 987.287 50.155 987.692 49.889C988.097 49.623 988.3 49.319 988.3 48.977C988.3 48.6223 988.097 48.331 987.692 48.103C987.287 47.8623 986.723 47.6787 986.001 47.552C985.279 47.4253 984.437 47.362 983.474 47.362C982.638 47.362 981.853 47.4253 981.118 47.552C980.383 47.6787 979.788 47.8623 979.332 48.103C978.876 48.331 978.648 48.6223 978.648 48.977C978.648 49.319 978.857 49.623 979.275 49.889C979.706 50.155 980.282 50.364 981.004 50.516C981.739 50.6553 982.562 50.725 983.474 50.725ZM977.717 55.817C977.717 55.9817 977.894 56.1337 978.249 56.273C978.616 56.425 979.11 56.5517 979.731 56.653C980.352 56.767 981.055 56.8557 981.84 56.919C982.638 56.9823 983.461 57.014 984.31 57.014C985.463 57.014 986.495 56.9697 987.407 56.881C988.332 56.805 989.06 56.672 989.592 56.482C990.137 56.292 990.409 56.045 990.409 55.741C990.409 55.323 989.959 55.0443 989.06 54.905C988.173 54.753 986.767 54.677 984.842 54.677C983.955 54.677 983.132 54.658 982.372 54.62C981.625 54.5693 980.96 54.4997 980.377 54.411C979.946 54.5377 979.528 54.6643 979.123 54.791C978.718 54.9177 978.382 55.057 978.116 55.209C977.85 55.3737 977.717 55.5763 977.717 55.817Z" fill="#424242"/>
<path d="M597.508 66.317H601.479L601.65 64.094L603.569 63.923L603.759 63.904L603.778 64.037C603.702 64.1257 603.632 64.2143 603.569 64.303C603.518 64.3917 603.48 64.5437 603.455 64.759L603.227 66.317H609.63V67.685H603.17L602.942 70.383C602.866 71.3203 602.923 72.0423 603.113 72.549C603.303 73.043 603.664 73.385 604.196 73.575C604.741 73.765 605.488 73.86 606.438 73.86C607.274 73.86 608.059 73.7777 608.794 73.613C609.529 73.4357 610.244 73.2203 610.941 72.967L611.53 74.202C610.656 74.5187 609.763 74.772 608.851 74.962C607.952 75.1393 607.008 75.228 606.02 75.228C604.905 75.228 604.012 75.1267 603.341 74.924C602.67 74.7213 602.169 74.4173 601.84 74.012C601.511 73.6067 601.302 73.0937 601.213 72.473C601.137 71.8523 601.131 71.124 601.194 70.288L601.384 67.685H597.508V66.317Z" fill="#424242"/>
<path d="M616.413 62.365L618.332 62.365V62.498C618.256 62.574 618.205 62.6563 618.18 62.745C618.167 62.8337 618.161 62.9857 618.161 63.201V68.046C618.845 67.3873 619.782 66.8997 620.973 66.583C622.176 66.2663 623.544 66.108 625.077 66.108C626.888 66.108 628.301 66.4183 629.314 67.039C630.34 67.647 630.853 68.6097 630.853 69.927V75H629.105V69.965C629.105 69.357 628.902 68.8757 628.497 68.521C628.104 68.1663 627.56 67.913 626.863 67.761C626.179 67.609 625.394 67.533 624.507 67.533C624.064 67.533 623.563 67.5647 623.006 67.628C622.449 67.6913 621.885 67.7863 621.315 67.913C620.745 68.0397 620.219 68.2043 619.738 68.407C619.269 68.597 618.889 68.825 618.598 69.091C618.307 69.357 618.161 69.661 618.161 70.003V75H616.413V62.365Z" fill="#424242"/>
<path d="M643.393 75.19C641.696 75.19 640.195 75.019 638.89 74.677C637.585 74.3223 636.559 73.8093 635.812 73.138C635.077 72.4667 634.71 71.6497 634.71 70.687C634.71 69.9523 634.925 69.3 635.356 68.73C635.799 68.16 636.395 67.685 637.142 67.305C637.902 66.9123 638.776 66.6147 639.764 66.412C640.752 66.2093 641.797 66.108 642.899 66.108C643.887 66.108 644.818 66.1967 645.692 66.374C646.566 66.5387 647.339 66.7983 648.01 67.153C648.694 67.5077 649.226 67.951 649.606 68.483C649.986 69.0023 650.176 69.6167 650.176 70.326C650.176 70.4273 650.17 70.535 650.157 70.649C650.144 70.7503 650.125 70.8517 650.1 70.953L636.42 70.953C636.471 71.5103 636.711 71.979 637.142 72.359C637.585 72.7263 638.149 73.024 638.833 73.252C639.53 73.4673 640.283 73.6257 641.094 73.727C641.905 73.8157 642.696 73.86 643.469 73.86C644.368 73.86 645.217 73.7967 646.015 73.67C646.826 73.5307 647.522 73.3027 648.105 72.986L649.625 73.841C648.89 74.2843 647.991 74.62 646.927 74.848C645.863 75.076 644.685 75.19 643.393 75.19ZM636.534 69.699L648.314 69.699C648.314 69.2937 648.149 68.9453 647.82 68.654C647.503 68.3627 647.073 68.122 646.528 67.932C645.983 67.742 645.375 67.6027 644.704 67.514C644.045 67.4253 643.38 67.381 642.709 67.381C642.114 67.381 641.48 67.419 640.809 67.495C640.15 67.5583 639.517 67.6787 638.909 67.856C638.301 68.0333 637.782 68.274 637.351 68.578C636.933 68.8693 636.661 69.243 636.534 69.699Z" fill="#424242"/>
<path d="M680.576 75.19C679.449 75.19 678.461 75.1393 677.612 75.038C676.776 74.9367 676.016 74.7783 675.332 74.563C674.648 74.335 673.977 74.0437 673.318 73.689L674.553 72.511L674.705 72.378L674.781 72.473C674.781 72.5743 674.819 72.644 674.895 72.682C674.984 72.72 675.117 72.7897 675.294 72.891C675.902 73.1823 676.618 73.4103 677.441 73.575C678.277 73.7397 679.347 73.822 680.652 73.822C681.703 73.822 682.622 73.7777 683.407 73.689C684.205 73.5877 684.826 73.4483 685.269 73.271C685.725 73.0937 685.953 72.8847 685.953 72.644C685.953 72.378 685.776 72.169 685.421 72.017C685.066 71.865 684.503 71.732 683.73 71.618C682.97 71.4913 681.957 71.3457 680.69 71.181C679.221 70.9783 677.998 70.7757 677.023 70.573C676.048 70.3577 675.319 70.0853 674.838 69.756C674.369 69.4267 674.135 68.9897 674.135 68.445C674.135 67.7863 674.667 67.2353 675.731 66.792C676.795 66.336 678.397 66.108 680.538 66.108C681.501 66.108 682.324 66.146 683.008 66.222C683.692 66.2853 684.287 66.3803 684.794 66.507C685.301 66.6337 685.763 66.792 686.181 66.982C686.599 67.1593 687.023 67.362 687.454 67.59L686.143 68.54L685.991 68.654L685.915 68.559C685.928 68.445 685.89 68.3753 685.801 68.35C685.712 68.3247 685.573 68.2677 685.383 68.179C684.826 67.9637 684.148 67.7927 683.35 67.666C682.552 67.5393 681.64 67.476 680.614 67.476C679.145 67.476 677.998 67.5583 677.175 67.723C676.352 67.875 675.94 68.0903 675.94 68.369C675.94 68.787 676.421 69.0847 677.384 69.262C678.347 69.4393 679.816 69.6547 681.792 69.908C683.236 70.098 684.395 70.3133 685.269 70.554C686.143 70.782 686.776 71.0607 687.169 71.39C687.562 71.7193 687.758 72.1183 687.758 72.587C687.758 73.423 687.156 74.069 685.953 74.525C684.762 74.9683 682.97 75.19 680.576 75.19Z" fill="#424242"/>
<path d="M698.075 75.209C696.099 75.209 694.573 74.9873 693.496 74.544C692.432 74.088 691.9 73.5117 691.9 72.815C691.9 72.3463 692.128 71.922 692.584 71.542C693.04 71.162 693.673 70.839 694.484 70.573C695.295 70.2943 696.226 70.079 697.277 69.927C698.341 69.775 699.468 69.699 700.659 69.699C701.254 69.699 701.97 69.718 702.806 69.756C703.642 69.794 704.453 69.8383 705.238 69.889C705.061 69.2303 704.7 68.7237 704.155 68.369C703.623 68.0017 702.926 67.7483 702.065 67.609C701.216 67.457 700.241 67.381 699.139 67.381C698.303 67.381 697.473 67.438 696.65 67.552C695.839 67.666 695.098 67.8877 694.427 68.217L693.135 67.343C693.958 66.9377 694.896 66.6337 695.947 66.431C697.011 66.2283 698.138 66.127 699.329 66.127C700.862 66.127 702.198 66.2537 703.338 66.507C704.491 66.7603 705.384 67.1973 706.017 67.818C706.65 68.4387 706.967 69.2937 706.967 70.383V75H705.219V73.67C704.89 73.9867 704.427 74.2463 703.832 74.449C703.249 74.6517 702.603 74.81 701.894 74.924C701.197 75.0253 700.513 75.095 699.842 75.133C699.171 75.1837 698.582 75.209 698.075 75.209ZM693.762 72.739C693.762 72.9417 693.901 73.119 694.18 73.271C694.459 73.423 694.82 73.5497 695.263 73.651C695.719 73.7397 696.213 73.8093 696.745 73.86C697.29 73.9107 697.822 73.936 698.341 73.936C699.544 73.936 700.646 73.841 701.647 73.651C702.648 73.4483 703.471 73.1443 704.117 72.739C704.763 72.3337 705.156 71.8143 705.295 71.181C704.839 71.143 704.345 71.105 703.813 71.067C703.281 71.029 702.755 70.9973 702.236 70.972C701.729 70.9467 701.28 70.934 700.887 70.934C699.975 70.934 699.095 70.972 698.246 71.048C697.397 71.124 696.631 71.238 695.947 71.39C695.276 71.542 694.744 71.732 694.351 71.96C693.958 72.188 693.762 72.4477 693.762 72.739Z" fill="#424242"/>
<path d="M710.368 75V66.317H712.116V67.666C712.319 67.4127 712.61 67.1657 712.99 66.925C713.37 66.6843 713.807 66.488 714.301 66.336C714.795 66.184 715.314 66.108 715.859 66.108C716.366 66.108 716.847 66.1967 717.303 66.374C717.759 66.5387 718.145 66.7477 718.462 67.001C718.779 67.2543 718.988 67.5077 719.089 67.761C719.304 67.5077 719.615 67.2543 720.02 67.001C720.425 66.735 720.888 66.5197 721.407 66.355C721.926 66.1777 722.471 66.0953 723.041 66.108C723.978 66.1207 724.7 66.241 725.207 66.469C725.714 66.6843 726.081 66.9503 726.309 67.267C726.537 67.5837 726.67 67.9003 726.708 68.217C726.759 68.521 726.784 68.7743 726.784 68.977V75H724.998V69.452C724.998 68.6667 724.789 68.122 724.371 67.818C723.966 67.5013 723.383 67.343 722.623 67.343C722.142 67.343 721.66 67.4507 721.179 67.666C720.698 67.8687 720.292 68.16 719.963 68.54C719.646 68.92 719.488 69.3633 719.488 69.87V75H717.664V69.566C717.664 68.844 717.436 68.2993 716.98 67.932C716.524 67.5647 715.935 67.381 715.213 67.381C714.934 67.381 714.618 67.4507 714.263 67.59C713.921 67.7167 713.585 67.894 713.256 68.122C712.939 68.3373 712.673 68.5907 712.458 68.882C712.255 69.1733 712.154 69.4837 712.154 69.813V75H710.368Z" fill="#424242"/>
<path d="M738.393 75.19C736.696 75.19 735.195 75.019 733.89 74.677C732.585 74.3223 731.559 73.8093 730.812 73.138C730.077 72.4667 729.71 71.6497 729.71 70.687C729.71 69.9523 729.925 69.3 730.356 68.73C730.799 68.16 731.395 67.685 732.142 67.305C732.902 66.9123 733.776 66.6147 734.764 66.412C735.752 66.2093 736.797 66.108 737.899 66.108C738.887 66.108 739.818 66.1967 740.692 66.374C741.566 66.5387 742.339 66.7983 743.01 67.153C743.694 67.5077 744.226 67.951 744.606 68.483C744.986 69.0023 745.176 69.6167 745.176 70.326C745.176 70.4273 745.17 70.535 745.157 70.649C745.144 70.7503 745.125 70.8517 745.1 70.953H731.42C731.471 71.5103 731.711 71.979 732.142 72.359C732.585 72.7263 733.149 73.024 733.833 73.252C734.53 73.4673 735.283 73.6257 736.094 73.727C736.905 73.8157 737.696 73.86 738.469 73.86C739.368 73.86 740.217 73.7967 741.015 73.67C741.826 73.5307 742.522 73.3027 743.105 72.986L744.625 73.841C743.89 74.2843 742.991 74.62 741.927 74.848C740.863 75.076 739.685 75.19 738.393 75.19ZM731.534 69.699H743.314C743.314 69.2937 743.149 68.9453 742.82 68.654C742.503 68.3627 742.073 68.122 741.528 67.932C740.983 67.742 740.375 67.6027 739.704 67.514C739.045 67.4253 738.38 67.381 737.709 67.381C737.114 67.381 736.48 67.419 735.809 67.495C735.15 67.5583 734.517 67.6787 733.909 67.856C733.301 68.0333 732.782 68.274 732.351 68.578C731.933 68.8693 731.661 69.243 731.534 69.699Z" fill="#424242"/>
<path d="M775.443 75.152C773.847 75.152 772.441 74.9683 771.225 74.601C770.022 74.2337 769.084 73.7143 768.413 73.043C767.742 72.359 767.406 71.561 767.406 70.649C767.406 69.737 767.742 68.9453 768.413 68.274C769.084 67.59 770.022 67.0643 771.225 66.697C772.441 66.317 773.847 66.127 775.443 66.127C777.052 66.127 778.439 66.317 779.604 66.697C780.782 67.0643 781.688 67.59 782.321 68.274C782.967 68.9453 783.29 69.737 783.29 70.649C783.29 71.561 782.967 72.359 782.321 73.043C781.688 73.7143 780.782 74.2337 779.604 74.601C778.439 74.9683 777.052 75.152 775.443 75.152ZM775.443 73.784C776.608 73.784 777.647 73.6637 778.559 73.423C779.471 73.1823 780.187 72.8277 780.706 72.359C781.238 71.8903 781.504 71.314 781.504 70.63C781.504 69.9333 781.238 69.357 780.706 68.901C780.187 68.4323 779.471 68.084 778.559 67.856C777.647 67.6153 776.608 67.495 775.443 67.495C774.278 67.495 773.22 67.6153 772.27 67.856C771.333 68.084 770.585 68.4323 770.028 68.901C769.471 69.357 769.192 69.9333 769.192 70.63C769.192 71.314 769.471 71.8903 770.028 72.359C770.585 72.8277 771.333 73.1823 772.27 73.423C773.22 73.6637 774.278 73.784 775.443 73.784Z" fill="#424242"/>
<path d="M787.299 75V66.317H789.047V68.046C789.313 67.742 789.75 67.4443 790.358 67.153C790.979 66.849 791.764 66.5957 792.714 66.393C793.664 66.1903 794.76 66.0953 796.001 66.108C797.128 66.108 798.129 66.2473 799.003 66.526C799.877 66.792 800.561 67.21 801.055 67.78C801.562 68.3373 801.815 69.053 801.815 69.927V75H800.067V69.965C800.067 69.0657 799.674 68.4387 798.889 68.084C798.116 67.7167 796.9 67.533 795.241 67.533C794.076 67.533 793.024 67.6407 792.087 67.856C791.15 68.0713 790.409 68.3753 789.864 68.768C789.319 69.1607 789.047 69.6357 789.047 70.193V75H787.299Z" fill="#424242"/>
<path d="M814.393 75.19C812.696 75.19 811.195 75.019 809.89 74.677C808.585 74.3223 807.559 73.8093 806.812 73.138C806.077 72.4667 805.71 71.6497 805.71 70.687C805.71 69.9523 805.925 69.3 806.356 68.73C806.799 68.16 807.395 67.685 808.142 67.305C808.902 66.9123 809.776 66.6147 810.764 66.412C811.752 66.2093 812.797 66.108 813.899 66.108C814.887 66.108 815.818 66.1967 816.692 66.374C817.566 66.5387 818.339 66.7983 819.01 67.153C819.694 67.5077 820.226 67.951 820.606 68.483C820.986 69.0023 821.176 69.6167 821.176 70.326C821.176 70.4273 821.17 70.535 821.157 70.649C821.144 70.7503 821.125 70.8517 821.1 70.953L807.42 70.953C807.471 71.5103 807.711 71.979 808.142 72.359C808.585 72.7263 809.149 73.024 809.833 73.252C810.53 73.4673 811.283 73.6257 812.094 73.727C812.905 73.8157 813.696 73.86 814.469 73.86C815.368 73.86 816.217 73.7967 817.015 73.67C817.826 73.5307 818.522 73.3027 819.105 72.986L820.625 73.841C819.89 74.2843 818.991 74.62 817.927 74.848C816.863 75.076 815.685 75.19 814.393 75.19ZM807.534 69.699L819.314 69.699C819.314 69.2937 819.149 68.9453 818.82 68.654C818.503 68.3627 818.073 68.122 817.528 67.932C816.983 67.742 816.375 67.6027 815.704 67.514C815.045 67.4253 814.38 67.381 813.709 67.381C813.114 67.381 812.48 67.419 811.809 67.495C811.15 67.5583 810.517 67.6787 809.909 67.856C809.301 68.0333 808.782 68.274 808.351 68.578C807.933 68.8693 807.661 69.243 807.534 69.699Z" fill="#424242"/>
<path d="M844.508 66.317H848.479L848.65 64.094L850.569 63.923L850.759 63.904L850.778 64.037C850.702 64.1257 850.632 64.2143 850.569 64.303C850.518 64.3917 850.48 64.5437 850.455 64.759L850.227 66.317H856.63V67.685H850.17L849.942 70.383C849.866 71.3203 849.923 72.0423 850.113 72.549C850.303 73.043 850.664 73.385 851.196 73.575C851.741 73.765 852.488 73.86 853.438 73.86C854.274 73.86 855.059 73.7777 855.794 73.613C856.529 73.4357 857.244 73.2203 857.941 72.967L858.53 74.202C857.656 74.5187 856.763 74.772 855.851 74.962C854.952 75.1393 854.008 75.228 853.02 75.228C851.905 75.228 851.012 75.1267 850.341 74.924C849.67 74.7213 849.169 74.4173 848.84 74.012C848.511 73.6067 848.302 73.0937 848.213 72.473C848.137 71.8523 848.131 71.124 848.194 70.288L848.384 67.685H844.508V66.317Z" fill="#424242"/>
<path d="M865.959 75.019L861.665 66.317H863.413L866.89 73.214L870.006 67.134H871.222L874.756 73.347C875.237 72.321 875.636 71.4597 875.953 70.763C876.27 70.0663 876.523 69.4837 876.713 69.015C876.903 68.5463 877.042 68.141 877.131 67.799C877.232 67.457 877.308 67.1277 877.359 66.811L877.435 66.317H879.335C878.904 67.7863 878.328 69.243 877.606 70.687C876.897 72.131 876.206 73.575 875.535 75.019H873.901L870.519 69.129L867.593 75.019H865.959Z" fill="#424242"/>
<path d="M883.895 75V73.632H888.835V67.723H884.123V66.317H890.583V73.632H895.143V75H883.895ZM889.595 64.683C889.278 64.683 889.006 64.569 888.778 64.341C888.55 64.113 888.436 63.8407 888.436 63.524C888.436 63.1947 888.544 62.916 888.759 62.688C888.987 62.46 889.266 62.346 889.595 62.346C889.912 62.346 890.184 62.4663 890.412 62.707C890.653 62.935 890.773 63.2073 890.773 63.524C890.773 63.8407 890.653 64.113 890.412 64.341C890.184 64.569 889.912 64.683 889.595 64.683Z" fill="#424242"/>
<path d="M909.716 75.209C908.031 75.209 906.53 75.0253 905.213 74.658C903.908 74.2907 902.882 73.7713 902.135 73.1C901.388 72.416 901.014 71.6053 901.014 70.668C901.014 69.7307 901.388 68.9263 902.135 68.255C902.882 67.5837 903.908 67.0643 905.213 66.697C906.518 66.3297 908.006 66.146 909.678 66.146C911.084 66.146 912.357 66.2917 913.497 66.583C914.637 66.8617 915.555 67.2543 916.252 67.761L915.226 68.749L915.093 68.882L914.998 68.787C914.998 68.6857 914.954 68.616 914.865 68.578C914.789 68.5273 914.656 68.4577 914.466 68.369C913.769 68.0397 912.984 67.818 912.11 67.704C911.236 67.5773 910.324 67.514 909.374 67.514C908.639 67.514 907.886 67.571 907.113 67.685C906.353 67.799 905.644 67.9827 904.985 68.236C904.339 68.4767 903.813 68.7933 903.408 69.186C903.003 69.566 902.8 70.0283 902.8 70.573C902.8 71.1303 903.003 71.618 903.408 72.036C903.813 72.4413 904.352 72.777 905.023 73.043C905.707 73.309 906.467 73.5117 907.303 73.651C908.139 73.7777 908.994 73.841 909.868 73.841C910.451 73.841 911.059 73.7903 911.692 73.689C912.338 73.5877 912.952 73.442 913.535 73.252C914.118 73.062 914.618 72.8467 915.036 72.606L915.986 73.803C914.263 74.7403 912.173 75.209 909.716 75.209Z" fill="#424242"/>
<path d="M928.393 75.19C926.696 75.19 925.195 75.019 923.89 74.677C922.585 74.3223 921.559 73.8093 920.812 73.138C920.077 72.4667 919.71 71.6497 919.71 70.687C919.71 69.9523 919.925 69.3 920.356 68.73C920.799 68.16 921.395 67.685 922.142 67.305C922.902 66.9123 923.776 66.6147 924.764 66.412C925.752 66.2093 926.797 66.108 927.899 66.108C928.887 66.108 929.818 66.1967 930.692 66.374C931.566 66.5387 932.339 66.7983 933.01 67.153C933.694 67.5077 934.226 67.951 934.606 68.483C934.986 69.0023 935.176 69.6167 935.176 70.326C935.176 70.4273 935.17 70.535 935.157 70.649C935.144 70.7503 935.125 70.8517 935.1 70.953H921.42C921.471 71.5103 921.711 71.979 922.142 72.359C922.585 72.7263 923.149 73.024 923.833 73.252C924.53 73.4673 925.283 73.6257 926.094 73.727C926.905 73.8157 927.696 73.86 928.469 73.86C929.368 73.86 930.217 73.7967 931.015 73.67C931.826 73.5307 932.522 73.3027 933.105 72.986L934.625 73.841C933.89 74.2843 932.991 74.62 931.927 74.848C930.863 75.076 929.685 75.19 928.393 75.19ZM921.534 69.699H933.314C933.314 69.2937 933.149 68.9453 932.82 68.654C932.503 68.3627 932.073 68.122 931.528 67.932C930.983 67.742 930.375 67.6027 929.704 67.514C929.045 67.4253 928.38 67.381 927.709 67.381C927.114 67.381 926.48 67.419 925.809 67.495C925.15 67.5583 924.517 67.6787 923.909 67.856C923.301 68.0333 922.782 68.274 922.351 68.578C921.933 68.8693 921.661 69.243 921.534 69.699Z" fill="#424242"/>
<path d="M946.291 75.209C945.936 75.209 945.626 75.0823 945.36 74.829C945.107 74.5757 944.98 74.2717 944.98 73.917C944.98 73.5497 945.107 73.2393 945.36 72.986C945.626 72.7327 945.936 72.606 946.291 72.606C946.646 72.606 946.95 72.7327 947.203 72.986C947.456 73.2393 947.583 73.5497 947.583 73.917C947.583 74.2717 947.456 74.5757 947.203 74.829C946.95 75.0823 946.646 75.209 946.291 75.209Z" fill="#424242"/>
</svg>
