<svg width="236" height="269" viewBox="0 0 236 269" fill="none" xmlns="http://www.w3.org/2000/svg">
<path d="M0 0H236V269H0V0Z" fill="#F5EDDD"/>
<path fill-rule="evenodd" clip-rule="evenodd" d="M232 4H4V265H232V4ZM0 0V269H236V0H0Z" fill="#424242"/>
<path d="M104.434 149C98.701 149 94.0677 147.433 90.5344 144.3C87.001 141.1 85.2344 136.9 85.2344 131.7C85.2344 128.567 86.301 125.433 88.4344 122.3C90.6344 119.1 94.2344 115.833 99.2344 112.5C95.5677 108.567 93.2677 105.6 92.3344 103.6C91.401 101.6 90.9344 99.2667 90.9344 96.6C90.9344 93.1333 92.5677 89.6667 95.8344 86.2C99.1677 82.7333 103.568 81 109.034 81C114.234 81 118.268 82.2 121.134 84.6C124.001 87 125.434 90.0667 125.434 93.8C125.434 96.8667 124.001 99.6 121.134 102C118.268 104.4 114.368 107.1 109.434 110.1C109.968 110.633 110.501 111.167 111.034 111.7C111.568 112.233 112.134 112.8 112.734 113.4L128.734 129.4C130.668 126.467 132.434 123.133 134.034 119.4C135.701 115.6 137.268 111.433 138.734 106.9L128.934 103V101.4H152.734V103L144.234 106.7C142.101 111.633 139.968 116.233 137.834 120.5C135.768 124.7 133.601 128.533 131.334 132L142.234 142.8L150.534 146.4V148H134.434L125.634 139.2C122.768 142.333 119.601 144.767 116.134 146.5C112.668 148.167 108.768 149 104.434 149ZM99.6344 94.6C99.6344 96.8 100.201 98.8667 101.334 100.8C102.468 102.667 104.368 104.967 107.034 107.7C110.168 105.433 112.601 103.3 114.334 101.3C116.068 99.3 116.934 96.9333 116.934 94.2C116.934 91.5333 116.101 89.4333 114.434 87.9C112.834 86.3 110.801 85.5 108.334 85.5C105.934 85.5 103.868 86.3 102.134 87.9C100.468 89.5 99.6344 91.7333 99.6344 94.6ZM94.4344 129.3C94.4344 133.5 95.801 136.767 98.5344 139.1C101.334 141.367 104.601 142.5 108.334 142.5C113.734 142.5 118.601 140.5 122.934 136.5L108.334 121.9C105.468 119.033 103.201 116.733 101.534 115C98.3344 117.533 96.3344 119.8 95.5344 121.8C94.801 123.733 94.4344 126.233 94.4344 129.3Z" fill="#424242"/>
<path d="M88.1276 220.2C87.3009 220.2 86.6009 220.127 86.0276 219.98C85.4543 219.82 84.8609 219.587 84.2476 219.28L84.0476 216H84.3676L85.3476 218.12C86.2676 218.88 87.1943 219.26 88.1276 219.26C88.9143 219.26 89.5276 219.053 89.9676 218.64C90.4209 218.227 90.6476 217.667 90.6476 216.96C90.6476 216.093 90.3543 215.48 89.7676 215.12C89.1943 214.747 88.4076 214.307 87.4076 213.8C86.4743 213.333 85.7476 212.86 85.2276 212.38C84.7209 211.887 84.4676 211.18 84.4676 210.26C84.4676 209.66 84.6543 209.08 85.0276 208.52C85.4143 207.96 85.9143 207.5 86.5276 207.14C87.1409 206.78 87.7809 206.6 88.4476 206.6C89.0609 206.6 89.6276 206.673 90.1476 206.82C90.6676 206.967 91.2009 207.173 91.7476 207.44L91.9476 210.64H91.6276L90.7076 208.54C90.2409 208.193 89.8343 207.947 89.4876 207.8C89.1409 207.64 88.7409 207.56 88.2876 207.56C87.7009 207.56 87.2143 207.76 86.8276 208.16C86.4543 208.56 86.2676 209.053 86.2676 209.64C86.2676 210.32 86.4743 210.853 86.8876 211.24C87.3009 211.613 87.9476 212.013 88.8276 212.44C90.0409 213.027 90.9343 213.58 91.5076 214.1C92.0809 214.62 92.3676 215.387 92.3676 216.4C92.3676 217.227 92.1409 217.927 91.6876 218.5C91.2343 219.06 90.6809 219.487 90.0276 219.78C89.3743 220.06 88.7409 220.2 88.1276 220.2Z" fill="#424242"/>
<path d="M94.4326 224.6V224.28L95.6926 223.64V213.08L94.4926 212.04V211.9L96.9726 210.8H97.0926L97.2526 212.02H97.3926C98.3526 211.207 99.3459 210.8 100.373 210.8C101.386 210.8 102.219 211.18 102.873 211.94C103.526 212.7 103.853 213.74 103.853 215.06C103.853 216.7 103.406 217.967 102.513 218.86C101.633 219.753 100.566 220.2 99.3126 220.2C98.5659 220.2 97.8926 220.133 97.2926 220V223.64L98.7126 224.28V224.6H94.4326ZM99.2726 212.18C98.5793 212.18 97.9193 212.38 97.2926 212.78V218.4C97.6926 218.72 98.0993 218.94 98.5126 219.06C98.9259 219.18 99.3859 219.24 99.8926 219.24C100.533 219.24 101.086 218.973 101.553 218.44C102.019 217.893 102.253 216.987 102.253 215.72C102.253 214.493 101.959 213.6 101.373 213.04C100.799 212.467 100.099 212.18 99.2726 212.18Z" fill="#424242"/>
<path d="M110.098 220.2C108.805 220.2 107.785 219.807 107.038 219.02C106.291 218.233 105.918 217.193 105.918 215.9C105.918 214.407 106.345 213.187 107.198 212.24C108.051 211.28 109.045 210.8 110.178 210.8C111.231 210.8 112.058 211.167 112.658 211.9C113.271 212.633 113.578 213.687 113.578 215.06L113.478 215.16H107.498C107.525 216.093 107.791 216.92 108.298 217.64C108.805 218.347 109.691 218.7 110.958 218.7C111.691 218.7 112.551 218.433 113.538 217.9H113.598V218.1C113.291 218.673 112.831 219.167 112.218 219.58C111.618 219.993 110.911 220.2 110.098 220.2ZM109.858 211.68C108.511 211.68 107.738 212.533 107.538 214.24H112.058C111.765 212.533 111.031 211.68 109.858 211.68Z" fill="#424242"/>
<path d="M119.785 220.2C118.492 220.2 117.472 219.807 116.725 219.02C115.979 218.233 115.605 217.193 115.605 215.9C115.605 214.407 116.045 213.187 116.925 212.24C117.805 211.28 118.899 210.8 120.205 210.8C120.739 210.8 121.259 210.893 121.765 211.08C122.272 211.253 122.659 211.487 122.925 211.78C123.139 212.033 123.245 212.233 123.245 212.38C123.245 212.567 123.159 212.727 122.985 212.86L122.225 213.5H122.085L121.405 212.58C121.205 212.313 120.952 212.1 120.645 211.94C120.352 211.767 119.985 211.68 119.545 211.68C118.812 211.68 118.232 211.973 117.805 212.56C117.392 213.133 117.185 213.94 117.185 214.98C117.185 215.94 117.432 216.8 117.925 217.56C118.432 218.32 119.339 218.7 120.645 218.7C121.379 218.7 122.239 218.433 123.225 217.9H123.285V218.1C122.979 218.673 122.519 219.167 121.905 219.58C121.305 219.993 120.599 220.2 119.785 220.2Z" fill="#424242"/>
<path d="M128.336 220.2C127.749 220.2 127.242 220.027 126.816 219.68C126.389 219.333 126.176 218.847 126.176 218.22V211.94H124.536V211.82L126.236 211L127.656 208.8H127.776V211H130.416V211.94H127.776V217.88C127.776 218.227 127.929 218.48 128.236 218.64C128.542 218.8 128.902 218.88 129.316 218.88C129.796 218.88 130.222 218.833 130.596 218.74H130.656V218.94C130.522 219.247 130.256 219.533 129.856 219.8C129.469 220.067 128.962 220.2 128.336 220.2Z" fill="#424242"/>
<path d="M132.481 220V219.68L133.741 219.04V213.08L132.541 212.04V211.9L135.021 210.8H135.141L135.321 212.5H135.401C135.855 211.753 136.261 211.287 136.621 211.1C136.981 210.9 137.328 210.8 137.661 210.8C137.875 210.8 138.115 210.86 138.381 210.98C138.528 211.047 138.661 211.127 138.781 211.22C138.915 211.313 138.981 211.42 138.981 211.54C138.981 211.66 138.955 211.78 138.901 211.9L138.501 212.88H138.361L137.601 212.58C137.455 212.513 137.308 212.473 137.161 212.46C137.028 212.447 136.895 212.44 136.761 212.44C136.201 212.44 135.728 212.727 135.341 213.3V219.04L136.761 219.68V220H132.481Z" fill="#424242"/>
<path d="M142.706 220.2C142.079 220.2 141.559 220.02 141.146 219.66C140.733 219.287 140.526 218.773 140.526 218.12C140.526 217.467 140.766 216.9 141.246 216.42C141.739 215.94 142.559 215.567 143.706 215.3L145.606 214.86V213.4C145.606 212.947 145.419 212.56 145.046 212.24C144.686 211.907 144.273 211.74 143.806 211.74C143.299 211.74 142.946 211.88 142.746 212.16C142.546 212.427 142.446 212.787 142.446 213.24V213.8L142.346 213.9H141.306C140.959 213.9 140.786 213.713 140.786 213.34C140.786 212.66 141.139 212.093 141.846 211.64C142.219 211.4 142.606 211.2 143.006 211.04C143.419 210.88 143.859 210.8 144.326 210.8C145.033 210.8 145.686 210.953 146.286 211.26C146.899 211.567 147.206 212.14 147.206 212.98V218.66C147.406 218.887 147.779 219 148.326 219H149.086L149.146 219.04V219.1C148.986 219.393 148.746 219.653 148.426 219.88C148.119 220.093 147.739 220.2 147.286 220.2C146.486 220.2 145.966 219.8 145.726 219H145.606C145.259 219.347 144.826 219.633 144.306 219.86C143.799 220.087 143.266 220.2 142.706 220.2ZM142.086 217.72C142.086 218.547 142.586 218.96 143.586 218.96C144.199 218.96 144.873 218.807 145.606 218.5V215.54C144.019 215.847 143.033 216.173 142.646 216.52C142.273 216.867 142.086 217.267 142.086 217.72Z" fill="#424242"/>
<path d="M150.153 220V219.68L151.413 219.04V207.28L150.213 206.24V206.1L152.893 205H153.013V219.04L154.273 219.68V220H150.153Z" fill="#424242"/>
</svg>
