<svg width="236" height="269" viewBox="0 0 236 269" fill="none" xmlns="http://www.w3.org/2000/svg">
<path d="M0 0H236V269H0V0Z" fill="#F5EDDD"/>
<path fill-rule="evenodd" clip-rule="evenodd" d="M232 4H4V265H232V4ZM0 0V269H236V0H0Z" fill="#424242"/>
<path d="M109.234 153.4C91.4337 153.4 82.5337 145.633 82.5337 130.1C82.5337 123.367 84.167 118.1 87.4337 114.3C90.7004 110.5 95.167 108.033 100.834 106.9C97.167 101.167 95.3337 96.5333 95.3337 93C95.3337 89.4 96.8004 86.0333 99.7337 82.9C102.734 79.7 107.167 78.1 113.034 78.1C116.234 78.1 118.834 78.5 120.834 79.3C122.834 80.0333 124.434 80.7333 125.634 81.4C126.834 82.0667 127.7 82.6333 128.234 83.1C130.3 84.7667 131.367 85.6 131.434 85.6L127.834 89.6C122.967 85.6 118.167 83.6 113.434 83.6C108.834 83.6 105.7 84.9333 104.034 87.6C102.567 89.7333 101.834 91.7667 101.834 93.7C101.834 98.2333 105.134 104.433 111.734 112.3C118.334 120.1 126.234 128.233 135.434 136.7C138.5 133.233 140.9 129.067 142.634 124.2C142.634 123.4 142.234 122.933 141.434 122.8H135.234C135.167 122.4 135.134 120.733 135.134 117.8L156.134 117.7C156.134 117.767 156.167 118.6 156.234 120.2V122.7H149.234C147.5 129.433 144.367 135.433 139.834 140.7C140.834 141.567 143.567 143.933 148.034 147.8H156.234L156.134 153L145.234 153.1C143.3 151.5 140.1 148.7 135.634 144.7C128.7 150.5 119.9 153.4 109.234 153.4ZM89.0337 130.1C89.0337 135.5 90.7004 139.833 94.0337 143.1C97.367 146.3 102.934 147.9 110.734 147.9C118.6 147.9 125.467 145.533 131.334 140.8C119.534 129.933 110.5 120.3 104.234 111.9C99.4337 112.433 95.7004 114.233 93.0337 117.3C90.367 120.367 89.0337 124.633 89.0337 130.1Z" fill="#424242"/>
<path d="M84.7853 221V219.9H86.0053L85.0853 217.3H78.9253L78.0253 219.9H79.4653V221H75.4253V219.9H76.7453L81.4053 207H82.6253L87.4453 219.9H88.8253V221H84.7853ZM81.9453 208.52L79.2653 216.3H84.7253L81.9453 208.52Z" fill="#424242"/>
<path d="M89.5604 212V211H92.2004V212.12C93.2938 211.373 94.3404 210.98 95.3404 210.94C96.3138 210.94 97.0538 211.133 97.5604 211.52C97.7871 211.693 97.9871 211.967 98.1604 212.34C98.3471 212.7 98.4404 213.133 98.4404 213.64V220H99.9804V221H95.9404V220H97.1404V214.14C97.1404 212.847 96.3804 212.2 94.8604 212.2C94.0338 212.227 93.1471 212.5 92.2004 213.02V220H93.7004V221H89.6604V220H90.9004V212H89.5604Z" fill="#424242"/>
<path d="M104.917 220.02L105.697 219.98L105.757 220.78C105.743 220.78 105.65 220.8 105.477 220.84C105.077 220.933 104.63 220.98 104.137 220.98C103.683 220.953 103.27 220.88 102.897 220.76C102.523 220.627 102.177 220.36 101.857 219.96C101.537 219.547 101.377 219.02 101.377 218.38V212.16H100.357L100.517 211.2L101.397 211.02L101.557 209.1L102.677 209V211H105.097V212.16H102.677V218.04C102.677 219.36 103.423 220.02 104.917 220.02Z" fill="#424242"/>
<path d="M106.733 212V211H109.373V220H110.873V221H106.833V220H108.073V212H106.733ZM108.693 208.32C108.426 208.32 108.219 208.24 108.073 208.08C107.926 207.907 107.853 207.687 107.853 207.42C107.853 207.14 107.926 206.92 108.073 206.76C108.233 206.587 108.446 206.5 108.713 206.5C108.979 206.5 109.193 206.587 109.353 206.76C109.526 206.92 109.613 207.147 109.613 207.44C109.613 207.72 109.526 207.94 109.353 208.1C109.179 208.247 108.959 208.32 108.693 208.32Z" fill="#424242"/>
<path d="M116.885 212.08C115.751 212.08 114.831 212.46 114.125 213.22C113.431 213.967 113.085 215.02 113.085 216.38C113.085 218.74 114.185 219.92 116.385 219.92C117.238 219.92 117.951 219.853 118.525 219.72C119.098 219.573 119.411 219.48 119.465 219.44L119.745 220.38C119.438 220.58 118.931 220.747 118.225 220.88C117.518 221.013 116.878 221.08 116.305 221.08C115.731 221.08 115.211 221.02 114.745 220.9C114.278 220.78 113.805 220.567 113.325 220.26C112.858 219.953 112.485 219.473 112.205 218.82C111.925 218.153 111.785 217.347 111.785 216.4C111.785 214.653 112.231 213.333 113.125 212.44C114.125 211.413 115.385 210.9 116.905 210.9C117.385 210.9 117.891 210.967 118.425 211.1C118.971 211.22 119.391 211.413 119.685 211.68V214.3L118.705 214.44L118.605 212.34C118.058 212.167 117.485 212.08 116.885 212.08Z" fill="#424242"/>
<path d="M131.172 219.82C132.652 219.82 133.752 219.447 134.472 218.7C134.885 218.273 135.092 217.767 135.092 217.18C135.092 216.593 134.945 216.113 134.652 215.74C134.372 215.353 134.005 215.06 133.552 214.86C133.099 214.647 132.592 214.467 132.032 214.32C131.485 214.16 130.932 213.993 130.372 213.82C129.825 213.647 129.325 213.44 128.872 213.2C128.419 212.96 128.045 212.62 127.752 212.18C127.472 211.74 127.332 211.213 127.332 210.6C127.332 209.533 127.732 208.66 128.532 207.98C129.332 207.3 130.392 206.96 131.712 206.96C133.032 206.96 134.272 207.093 135.432 207.36V207.38H135.492L135.712 209.88L134.732 210.04L134.512 208.36C133.765 208.227 132.939 208.16 132.032 208.16C131.139 208.16 130.359 208.36 129.692 208.76C129.025 209.147 128.692 209.7 128.692 210.42C128.692 211.14 128.959 211.687 129.492 212.06C130.025 212.433 130.672 212.72 131.432 212.92C132.192 213.107 132.952 213.32 133.712 213.56C134.472 213.8 135.119 214.213 135.652 214.8C136.185 215.387 136.452 216.16 136.452 217.12C136.452 218.413 135.972 219.387 135.012 220.04C134.052 220.693 132.859 221.02 131.432 221.02C129.632 221.02 128.125 220.613 126.912 219.8L126.932 217.68L127.912 217.58L127.952 219.1C128.965 219.58 130.039 219.82 131.172 219.82Z" fill="#424242"/>
<path d="M137.866 207V206H140.506V220H142.006V221H137.966V220H139.206V207H137.866Z" fill="#424242"/>
<path d="M145.638 221.08C143.865 221.08 142.925 220.38 142.818 218.98C142.805 218.887 142.798 218.793 142.798 218.7C142.798 217.58 143.471 216.833 144.818 216.46C145.565 216.273 147.005 216.06 149.138 215.82V214.28C149.138 212.827 148.378 212.1 146.858 212.1C145.765 212.113 144.605 212.367 143.378 212.86L143.038 212L143.238 211.92C144.278 211.467 145.071 211.193 145.618 211.1C146.165 211.007 146.565 210.96 146.818 210.96C147.071 210.947 147.311 210.947 147.538 210.96C147.778 210.973 148.085 211.033 148.458 211.14C148.831 211.247 149.151 211.4 149.418 211.6C149.698 211.787 149.938 212.073 150.138 212.46C150.338 212.847 150.438 213.307 150.438 213.84V220H151.978V221H149.338L149.138 220.24C147.938 220.8 146.771 221.08 145.638 221.08ZM145.998 220.16C147.011 220.16 148.058 219.933 149.138 219.48V216.62C147.138 216.687 145.845 216.82 145.258 217.02C144.805 217.14 144.485 217.36 144.298 217.68C144.111 217.987 144.018 218.233 144.018 218.42C144.018 218.607 144.018 218.733 144.018 218.8C144.058 219.28 144.265 219.627 144.638 219.84C145.011 220.053 145.465 220.16 145.998 220.16Z" fill="#424242"/>
<path d="M152.783 207V206H155.423V211.8C156.223 211.147 157.116 210.82 158.103 210.82C159.01 210.82 159.863 211.1 160.663 211.66C161.09 211.967 161.43 212.447 161.683 213.1C161.95 213.753 162.083 214.547 162.083 215.48C162.083 217.253 161.643 218.587 160.763 219.48C159.763 220.493 158.496 221 156.963 221C156.39 221 155.816 220.953 155.243 220.86C154.683 220.767 154.31 220.66 154.123 220.54V207H152.783ZM155.423 212.5V219.88C155.81 219.973 156.23 220.02 156.683 220.02C158.003 220.02 159.016 219.633 159.723 218.86C160.43 218.087 160.783 216.993 160.783 215.58C160.783 213.94 160.303 212.867 159.343 212.36C158.876 212.107 158.31 211.98 157.643 211.98C156.99 211.98 156.25 212.153 155.423 212.5Z" fill="#424242"/>
</svg>
