<svg width="236" height="269" viewBox="0 0 236 269" fill="none" xmlns="http://www.w3.org/2000/svg">
<path d="M0 0H236V269H0V0Z" fill="#F5EDDD"/>
<path fill-rule="evenodd" clip-rule="evenodd" d="M232 4H4V265H232V4ZM0 0V269H236V0H0Z" fill="#424242"/>
<path d="M110.334 156.6C106.468 156.6 102.734 155.967 99.1345 154.7C95.5345 153.367 92.5678 151.267 90.2345 148.4C87.9678 145.533 86.8345 141.733 86.8345 137C86.8345 132.667 88.2345 128.833 91.0345 125.5C93.9011 122.167 97.7345 119.467 102.534 117.4C99.8678 114.067 97.9345 110.967 96.7345 108.1C95.5345 105.233 94.9345 102.233 94.9345 99.1C95.0011 94.3 96.7678 90.5 100.234 87.7C103.701 84.8333 108.101 83.4 113.434 83.4C118.501 83.4 122.534 84.7667 125.534 87.5C128.601 90.1667 130.134 93.4667 130.134 97.4C130.134 101.067 128.901 104.533 126.434 107.8C123.968 111.067 119.734 114.233 113.734 117.3C115.534 119.167 117.501 121.233 119.634 123.5C121.834 125.767 124.034 128 126.234 130.2C128.434 132.333 130.434 134.267 132.234 136C132.568 134.8 132.801 133.667 132.934 132.6C133.134 131.467 133.234 130.467 133.234 129.6C133.234 128.067 133.001 126.567 132.534 125.1C132.134 123.567 131.368 122.3 130.234 121.3C129.168 120.233 127.634 119.667 125.634 119.6V116.3H143.134V120.4L134.834 120C135.901 120.867 136.668 122 137.134 123.4C137.601 124.8 137.868 126.433 137.934 128.3C138.001 129.567 137.868 131.2 137.534 133.2C137.268 135.133 136.734 137.167 135.934 139.3C136.668 139.967 137.434 140.7 138.234 141.5C139.101 142.233 140.001 143 140.934 143.8C143.934 146.467 146.501 148.467 148.634 149.8C150.834 151.067 152.468 151.7 153.534 151.7V155H144.234C143.634 155 142.268 154.4 140.134 153.2C138.068 151.933 135.301 149.767 131.834 146.7C129.701 149.433 126.868 151.767 123.334 153.7C119.868 155.633 115.534 156.6 110.334 156.6ZM111.534 114.9C115.268 112.433 118.034 109.7 119.834 106.7C121.634 103.633 122.534 100.633 122.534 97.7C122.534 94.5 121.701 91.8667 120.034 89.8C118.368 87.6667 116.001 86.6 112.934 86.6C110.201 86.6 107.901 87.6333 106.034 89.7C104.234 91.7 103.334 94.5667 103.334 98.3C103.334 101.167 104.101 104 105.634 106.8C107.234 109.6 109.201 112.3 111.534 114.9ZM111.534 151.6C115.734 151.733 119.201 151.067 121.934 149.6C124.734 148.067 126.968 146.167 128.634 143.9C128.168 143.433 127.701 143 127.234 142.6C126.768 142.133 126.268 141.667 125.734 141.2C121.268 136.8 117.301 132.9 113.834 129.5C110.434 126.1 107.534 123.033 105.134 120.3C103.001 121.567 101.334 123.133 100.134 125C98.9345 126.867 98.0678 128.733 97.5345 130.6C97.0678 132.467 96.8345 134.1 96.8345 135.5C96.8345 139.167 97.5345 142.167 98.9345 144.5C100.401 146.833 102.234 148.567 104.434 149.7C106.701 150.833 109.068 151.467 111.534 151.6Z" fill="#424242"/>
<path d="M99.0552 222V221.34C99.5618 221.313 99.9085 221.2 100.095 221C100.282 220.787 100.382 220.5 100.395 220.14C100.422 219.767 100.435 219.347 100.435 218.88V210.24C100.435 209.68 100.455 209.2 100.495 208.8C100.255 208.813 100.015 208.827 99.7752 208.84C99.5352 208.853 99.2952 208.867 99.0552 208.88V208H103.555V208.66C103.062 208.673 102.715 208.787 102.515 209C102.329 209.213 102.222 209.5 102.195 209.86C102.182 210.22 102.175 210.64 102.175 211.12V219.7C102.175 220.393 102.155 220.913 102.115 221.26L105.855 221.2C106.695 221.187 107.329 220.92 107.755 220.4C108.195 219.88 108.415 219.033 108.415 217.86H109.095L108.975 222H99.0552Z" fill="#424242"/>
<path d="M115.358 222.32C114.424 222.32 113.578 222.107 112.818 221.68C112.058 221.24 111.451 220.64 110.998 219.88C110.558 219.107 110.338 218.227 110.338 217.24C110.338 216.187 110.558 215.24 110.998 214.4C111.438 213.56 112.038 212.9 112.798 212.42C113.558 211.927 114.411 211.68 115.358 211.68C116.291 211.68 117.138 211.907 117.898 212.36C118.658 212.8 119.264 213.4 119.718 214.16C120.171 214.92 120.398 215.787 120.398 216.76C120.398 217.787 120.171 218.727 119.718 219.58C119.278 220.42 118.678 221.087 117.918 221.58C117.158 222.073 116.304 222.32 115.358 222.32ZM115.518 221.52C116.224 221.52 116.784 221.32 117.198 220.92C117.611 220.52 117.904 220 118.078 219.36C118.264 218.72 118.358 218.047 118.358 217.34C118.358 216.74 118.298 216.153 118.178 215.58C118.071 214.993 117.898 214.467 117.658 214C117.418 213.52 117.104 213.14 116.718 212.86C116.344 212.58 115.891 212.44 115.358 212.44C114.664 212.44 114.098 212.64 113.658 213.04C113.218 213.44 112.891 213.96 112.678 214.6C112.478 215.24 112.378 215.927 112.378 216.66C112.378 217.487 112.491 218.273 112.718 219.02C112.944 219.753 113.291 220.353 113.758 220.82C114.224 221.287 114.811 221.52 115.518 221.52Z" fill="#424242"/>
<path d="M122.097 221.4C122.51 221.4 122.797 221.3 122.957 221.1C123.117 220.887 123.21 220.6 123.237 220.24C123.264 219.867 123.277 219.44 123.277 218.96V214.4C123.277 214.187 123.277 213.973 123.277 213.76C123.29 213.547 123.317 213.327 123.357 213.1C123.117 213.113 122.877 213.127 122.637 213.14C122.41 213.14 122.177 213.147 121.937 213.16V212.34H122.557C123.13 212.34 123.524 212.287 123.737 212.18C123.964 212.06 124.15 211.933 124.297 211.8H124.877C124.904 212.013 124.924 212.28 124.937 212.6C124.95 212.907 124.964 213.3 124.977 213.78C125.177 213.447 125.45 213.12 125.797 212.8C126.144 212.48 126.53 212.213 126.957 212C127.397 211.787 127.857 211.68 128.337 211.68C128.71 211.68 129.037 211.78 129.317 211.98C129.597 212.18 129.737 212.5 129.737 212.94C129.737 213.113 129.657 213.32 129.497 213.56C129.35 213.8 129.097 213.913 128.737 213.9C128.444 213.887 128.21 213.773 128.037 213.56C127.864 213.333 127.797 213.073 127.837 212.78C127.33 212.753 126.817 212.947 126.297 213.36C125.777 213.773 125.344 214.307 124.997 214.96L125.017 219.88C125.017 220.147 125.01 220.387 124.997 220.6C124.997 220.8 124.977 221.013 124.937 221.24C125.15 221.227 125.357 221.22 125.557 221.22C125.77 221.207 125.984 221.193 126.197 221.18V222H122.097V221.4Z" fill="#424242"/>
<path d="M136.693 222C136.653 221.773 136.626 221.573 136.613 221.4C136.599 221.227 136.579 221.047 136.553 220.86C136.099 221.313 135.606 221.673 135.073 221.94C134.553 222.193 133.999 222.32 133.413 222.32C132.399 222.32 131.646 222.093 131.153 221.64C130.659 221.173 130.413 220.607 130.413 219.94C130.413 219.327 130.599 218.8 130.973 218.36C131.359 217.907 131.853 217.54 132.453 217.26C133.066 216.967 133.726 216.753 134.433 216.62C135.153 216.473 135.846 216.407 136.513 216.42V215.18C136.513 214.713 136.473 214.273 136.393 213.86C136.313 213.447 136.139 213.107 135.873 212.84C135.606 212.573 135.179 212.433 134.593 212.42C134.206 212.407 133.806 212.48 133.393 212.64C132.993 212.8 132.699 213.073 132.513 213.46C132.619 213.567 132.686 213.693 132.713 213.84C132.753 213.973 132.773 214.1 132.773 214.22C132.773 214.38 132.706 214.567 132.573 214.78C132.439 214.98 132.206 215.073 131.873 215.06C131.593 215.06 131.379 214.967 131.233 214.78C131.086 214.58 131.013 214.347 131.013 214.08C131.013 213.627 131.179 213.22 131.513 212.86C131.859 212.5 132.333 212.213 132.933 212C133.533 211.787 134.213 211.68 134.973 211.68C136.093 211.68 136.919 211.98 137.453 212.58C137.986 213.167 138.246 214.1 138.233 215.38C138.233 216.127 138.226 216.88 138.213 217.64C138.213 218.387 138.213 219.133 138.213 219.88C138.213 220.093 138.206 220.307 138.193 220.52C138.179 220.733 138.159 220.973 138.133 221.24C138.373 221.227 138.606 221.213 138.833 221.2C139.073 221.187 139.313 221.173 139.553 221.16V222H136.693ZM136.513 217.1C136.059 217.113 135.579 217.173 135.073 217.28C134.579 217.373 134.119 217.52 133.693 217.72C133.279 217.92 132.939 218.187 132.673 218.52C132.419 218.84 132.299 219.233 132.313 219.7C132.339 220.193 132.499 220.567 132.793 220.82C133.099 221.06 133.459 221.18 133.873 221.18C134.419 221.18 134.893 221.08 135.293 220.88C135.706 220.667 136.113 220.373 136.513 220C136.499 219.853 136.493 219.693 136.493 219.52C136.493 219.347 136.493 219.167 136.493 218.98C136.493 218.913 136.493 218.7 136.493 218.34C136.506 217.98 136.513 217.567 136.513 217.1Z" fill="#424242"/>
</svg>
