<svg width="236" height="269" viewBox="0 0 236 269" fill="none" xmlns="http://www.w3.org/2000/svg">
<path d="M0 0H236V269H0V0Z" fill="#F5EDDD"/>
<path fill-rule="evenodd" clip-rule="evenodd" d="M232 4H4V265H232V4ZM0 0V269H236V0H0Z" fill="#424242"/>
<path d="M108.416 143.1C111.616 143.1 114.549 142.4 117.216 141C119.883 139.533 122.183 137.833 124.116 135.9C122.383 133.767 120.616 131.667 118.816 129.6C117.083 127.533 115.149 125.333 113.016 123C111.416 121.267 109.849 119.567 108.316 117.9C106.849 116.167 105.349 114.433 103.816 112.7C101.883 113.767 100.249 114.933 98.9161 116.2C97.6494 117.4 96.6161 118.667 95.8161 120C95.0828 121.267 94.5494 122.567 94.2161 123.9C93.9494 125.233 93.8161 126.533 93.8161 127.8C93.8161 129.733 94.1494 131.633 94.8161 133.5C95.4828 135.3 96.4161 136.933 97.6161 138.4C98.8828 139.8 100.416 140.933 102.216 141.8C104.016 142.667 106.083 143.1 108.416 143.1ZM108.416 106.5C111.016 104.567 113.083 102.467 114.616 100.2C116.149 97.9333 116.916 95.4333 116.916 92.7C116.916 89.7 116.083 87.3667 114.416 85.7C112.816 84.0333 110.749 83.2 108.216 83.2C105.616 83.2 103.416 84 101.616 85.6C99.8828 87.1333 99.0161 89.1667 99.0161 91.7C99.0161 93.4333 99.4494 95.1667 100.316 96.9C101.249 98.5667 102.683 100.433 104.616 102.5L108.416 106.5ZM145.316 105.9C143.583 110.767 141.616 115.4 139.416 119.8C137.283 124.2 134.816 128.467 132.016 132.6C133.416 134.333 134.783 136.033 136.116 137.7C137.516 139.3 138.816 140.833 140.016 142.3L150.816 144.4V148C149.749 148.333 148.616 148.567 147.416 148.7C146.216 148.9 144.916 149 143.516 149C140.116 149 137.449 148.5 135.516 147.5C133.649 146.433 131.916 144.933 130.316 143C129.783 142.333 129.216 141.7 128.616 141.1C128.083 140.5 127.549 139.9 127.016 139.3C125.883 140.7 124.616 142.033 123.216 143.3C121.883 144.5 120.349 145.567 118.616 146.5C116.949 147.433 115.116 148.167 113.116 148.7C111.116 149.233 108.916 149.5 106.516 149.5C103.316 149.5 100.383 149 97.7161 148C95.1161 147 92.8494 145.633 90.9161 143.9C89.0494 142.167 87.5828 140.167 86.5161 137.9C85.5161 135.567 85.0161 133.1 85.0161 130.5C85.0161 126.033 86.3828 122.167 89.1161 118.9C91.9161 115.633 95.9494 112.633 101.216 109.9L100.316 109C97.8494 106.467 95.8161 104.033 94.2161 101.7C92.6828 99.3 91.9161 96.6 91.9161 93.6C91.9161 91.4667 92.3161 89.5333 93.1161 87.8C93.9828 86.0667 95.1494 84.6 96.6161 83.4C98.1494 82.2 99.9161 81.2667 101.916 80.6C103.983 79.9333 106.216 79.6 108.616 79.6C113.416 79.6 117.083 80.8 119.616 83.2C122.216 85.5333 123.516 88.6 123.516 92.4C123.516 95.7333 122.516 98.7333 120.516 101.4C118.583 104.067 115.416 106.667 111.016 109.2L118.416 117C119.949 118.6 121.649 120.5 123.516 122.7C125.449 124.9 127.416 127.167 129.416 129.5C131.749 125.9 133.816 122.167 135.616 118.3C137.416 114.433 139.049 110.4 140.516 106.2L130.716 104.8V100.7H152.216V104.8L145.316 105.9Z" fill="#424242"/>
<path d="M53.3157 212.46C53.9823 212.713 54.549 212.98 55.0157 213.26C55.4823 213.54 55.8557 213.84 56.1357 214.16C56.429 214.48 56.6423 214.827 56.7757 215.2C56.909 215.573 56.9757 215.987 56.9757 216.44C56.9757 217.04 56.8557 217.58 56.6157 218.06C56.389 218.527 56.0623 218.927 55.6357 219.26C55.2223 219.593 54.7223 219.847 54.1357 220.02C53.549 220.207 52.909 220.3 52.2157 220.3C51.4557 220.3 50.729 220.2 50.0357 220C49.3557 219.787 48.7823 219.533 48.3157 219.24L48.4357 216.44H49.6557L50.0557 218.76C50.3757 218.947 50.6957 219.087 51.0157 219.18C51.349 219.26 51.729 219.3 52.1557 219.3C53.1023 219.3 53.8557 219.087 54.4157 218.66C54.989 218.233 55.2757 217.627 55.2757 216.84C55.2757 216.533 55.2223 216.267 55.1157 216.04C55.0223 215.8 54.8757 215.587 54.6757 215.4C54.4757 215.213 54.2157 215.04 53.8957 214.88C53.589 214.72 53.2223 214.56 52.7957 214.4L52.0157 214.1C51.4957 213.9 51.0223 213.673 50.5957 213.42C50.1823 213.167 49.8223 212.88 49.5157 212.56C49.209 212.227 48.969 211.86 48.7957 211.46C48.6357 211.06 48.5557 210.607 48.5557 210.1C48.5557 209.527 48.669 209.007 48.8957 208.54C49.1223 208.073 49.4357 207.673 49.8357 207.34C50.2357 207.007 50.709 206.753 51.2557 206.58C51.8157 206.407 52.4157 206.32 53.0557 206.32C53.7357 206.32 54.349 206.42 54.8957 206.62C55.4423 206.807 55.929 207.06 56.3557 207.38L56.2357 210H54.9957L54.5757 207.72C54.069 207.467 53.529 207.34 52.9557 207.34C52.1823 207.34 51.5357 207.533 51.0157 207.92C50.4957 208.307 50.2357 208.887 50.2357 209.66C50.2357 210.3 50.429 210.807 50.8157 211.18C51.2157 211.553 51.7823 211.88 52.5157 212.16L53.3157 212.46Z" fill="#424242"/>
<path d="M63.25 211.1C62.37 211.1 61.6967 211.46 61.23 212.18C60.7634 212.887 60.53 213.92 60.53 215.28C60.53 216.627 60.7634 217.653 61.23 218.36C61.6967 219.053 62.37 219.4 63.25 219.4C64.1167 219.4 64.7834 219.053 65.25 218.36C65.7167 217.653 65.9501 216.627 65.9501 215.28C65.9501 213.92 65.7167 212.887 65.25 212.18C64.7834 211.46 64.1167 211.1 63.25 211.1ZM63.25 210.18C63.8234 210.18 64.3834 210.293 64.93 210.52C65.49 210.733 65.9834 211.06 66.41 211.5C66.8367 211.927 67.1834 212.46 67.4501 213.1C67.7167 213.727 67.85 214.453 67.85 215.28C67.85 216.107 67.7167 216.833 67.4501 217.46C67.1967 218.087 66.85 218.613 66.41 219.04C65.9834 219.453 65.49 219.767 64.93 219.98C64.3834 220.193 63.8234 220.3 63.25 220.3C62.6634 220.3 62.09 220.193 61.53 219.98C60.9834 219.767 60.4967 219.453 60.07 219.04C59.6434 218.613 59.2967 218.087 59.03 217.46C58.7767 216.833 58.65 216.107 58.65 215.28C58.65 214.453 58.7767 213.727 59.03 213.1C59.2967 212.46 59.6434 211.927 60.07 211.5C60.51 211.06 61.0034 210.733 61.55 210.52C62.0967 210.293 62.6634 210.18 63.25 210.18Z" fill="#424242"/>
<path d="M79.5508 219.28V220L76.7708 220.2L76.5508 218.42C76.0042 219.087 75.4308 219.567 74.8308 219.86C74.2308 220.153 73.6242 220.3 73.0108 220.3C72.6108 220.3 72.2442 220.233 71.9108 220.1C71.5908 219.98 71.3175 219.78 71.0908 219.5C70.8642 219.207 70.6908 218.833 70.5708 218.38C70.4642 217.927 70.4108 217.367 70.4108 216.7L70.4708 211.66L69.0508 211.36V210.66L71.9908 210.38L72.1908 210.58L72.0908 213.38V216.48C72.0908 217.373 72.2175 218 72.4708 218.36C72.7375 218.707 73.1442 218.88 73.6908 218.88C74.6242 218.88 75.5575 218.447 76.4908 217.58L76.5508 211.66L75.1308 211.36V210.66L78.0308 210.38L78.2308 210.58L78.1708 213.38V218.98L79.5508 219.28Z" fill="#424242"/>
<path d="M84.2305 212.72C84.5772 211.92 85.0039 211.3 85.5105 210.86C86.0305 210.407 86.5639 210.18 87.1105 210.18C87.4039 210.18 87.6839 210.26 87.9505 210.42C88.2305 210.567 88.4039 210.813 88.4705 211.16C88.4705 211.493 88.3572 211.76 88.1305 211.96C87.9039 212.147 87.6172 212.24 87.2705 212.24C86.8572 212.24 86.4772 212.073 86.1305 211.74L85.9905 211.6C85.5772 211.907 85.2305 212.273 84.9505 212.7C84.6705 213.113 84.4372 213.62 84.2505 214.22V215.8C84.2505 216.24 84.2505 216.753 84.2505 217.34C84.2639 217.927 84.2772 218.473 84.2905 218.98L85.9305 219.28V220H81.0905V219.28L82.5305 219.02C82.5439 218.513 82.5505 217.967 82.5505 217.38C82.5639 216.78 82.5705 216.253 82.5705 215.8V214.78C82.5705 214.233 82.5639 213.78 82.5505 213.42C82.5372 213.06 82.5239 212.68 82.5105 212.28L80.9305 212.1V211.4L83.7105 210.18L84.0105 210.38L84.2305 212.72Z" fill="#424242"/>
<path d="M97.6327 217.72C97.366 218.56 96.9127 219.2 96.2727 219.64C95.646 220.08 94.8527 220.3 93.8927 220.3C93.2127 220.3 92.5927 220.187 92.0327 219.96C91.486 219.72 91.0127 219.38 90.6127 218.94C90.226 218.5 89.926 217.973 89.7127 217.36C89.5127 216.733 89.4127 216.04 89.4127 215.28C89.4127 214.493 89.5394 213.787 89.7927 213.16C90.046 212.52 90.386 211.98 90.8127 211.54C91.2527 211.1 91.746 210.767 92.2927 210.54C92.8527 210.3 93.4327 210.18 94.0327 210.18C94.486 210.18 94.9127 210.247 95.3127 210.38C95.726 210.513 96.086 210.7 96.3927 210.94C96.7127 211.167 96.9727 211.44 97.1727 211.76C97.3727 212.067 97.506 212.407 97.5727 212.78C97.4794 213.287 97.1727 213.54 96.6527 213.54C96.3194 213.54 96.0727 213.453 95.9127 213.28C95.7527 213.093 95.6394 212.86 95.5727 212.58L95.2127 211.26C95.026 211.193 94.8394 211.153 94.6527 211.14C94.466 211.113 94.2927 211.1 94.1327 211.1C93.266 211.1 92.5527 211.44 91.9927 212.12C91.446 212.8 91.1727 213.787 91.1727 215.08C91.1727 216.36 91.466 217.34 92.0527 218.02C92.6527 218.687 93.426 219.02 94.3727 219.02C94.946 219.02 95.4727 218.887 95.9527 218.62C96.4327 218.353 96.826 217.967 97.1327 217.46L97.6327 217.72Z" fill="#424242"/>
<path d="M104.658 214.3C105.138 214.3 105.458 214.2 105.618 214C105.778 213.8 105.858 213.553 105.858 213.26C105.858 212.98 105.798 212.713 105.678 212.46C105.572 212.193 105.418 211.96 105.218 211.76C105.032 211.56 104.805 211.4 104.538 211.28C104.285 211.16 104.005 211.1 103.698 211.1C103.418 211.1 103.125 211.16 102.818 211.28C102.525 211.387 102.252 211.573 101.998 211.84C101.758 212.093 101.545 212.427 101.358 212.84C101.185 213.24 101.072 213.727 101.018 214.3H104.658ZM100.978 215.16C101.005 216.4 101.312 217.353 101.898 218.02C102.485 218.687 103.258 219.02 104.218 219.02C104.858 219.02 105.392 218.887 105.818 218.62C106.245 218.353 106.638 218.007 106.998 217.58L107.478 217.96C107.132 218.68 106.632 219.253 105.978 219.68C105.338 220.093 104.558 220.3 103.638 220.3C102.958 220.3 102.345 220.187 101.798 219.96C101.252 219.733 100.785 219.407 100.398 218.98C100.012 218.54 99.7117 218.013 99.4983 217.4C99.285 216.787 99.1783 216.1 99.1783 215.34C99.1783 214.58 99.2983 213.887 99.5383 213.26C99.7783 212.62 100.105 212.073 100.518 211.62C100.945 211.167 101.438 210.813 101.998 210.56C102.558 210.307 103.152 210.18 103.778 210.18C104.298 210.18 104.785 210.267 105.238 210.44C105.705 210.613 106.105 210.867 106.438 211.2C106.772 211.533 107.032 211.94 107.218 212.42C107.418 212.9 107.518 213.44 107.518 214.04C107.518 214.267 107.505 214.473 107.478 214.66C107.452 214.847 107.418 215.013 107.378 215.16H100.978Z" fill="#424242"/>
<path d="M118.902 212.46C119.568 212.713 120.135 212.98 120.602 213.26C121.068 213.54 121.442 213.84 121.722 214.16C122.015 214.48 122.228 214.827 122.362 215.2C122.495 215.573 122.562 215.987 122.562 216.44C122.562 217.04 122.442 217.58 122.202 218.06C121.975 218.527 121.648 218.927 121.222 219.26C120.808 219.593 120.308 219.847 119.722 220.02C119.135 220.207 118.495 220.3 117.802 220.3C117.042 220.3 116.315 220.2 115.622 220C114.942 219.787 114.368 219.533 113.902 219.24L114.022 216.44H115.242L115.642 218.76C115.962 218.947 116.282 219.087 116.602 219.18C116.935 219.26 117.315 219.3 117.742 219.3C118.688 219.3 119.442 219.087 120.002 218.66C120.575 218.233 120.862 217.627 120.862 216.84C120.862 216.533 120.808 216.267 120.702 216.04C120.608 215.8 120.462 215.587 120.262 215.4C120.062 215.213 119.802 215.04 119.482 214.88C119.175 214.72 118.808 214.56 118.382 214.4L117.602 214.1C117.082 213.9 116.608 213.673 116.182 213.42C115.768 213.167 115.408 212.88 115.102 212.56C114.795 212.227 114.555 211.86 114.382 211.46C114.222 211.06 114.142 210.607 114.142 210.1C114.142 209.527 114.255 209.007 114.482 208.54C114.708 208.073 115.022 207.673 115.422 207.34C115.822 207.007 116.295 206.753 116.842 206.58C117.402 206.407 118.002 206.32 118.642 206.32C119.322 206.32 119.935 206.42 120.482 206.62C121.028 206.807 121.515 207.06 121.942 207.38L121.822 210H120.582L120.162 207.72C119.655 207.467 119.115 207.34 118.542 207.34C117.768 207.34 117.122 207.533 116.602 207.92C116.082 208.307 115.822 208.887 115.822 209.66C115.822 210.3 116.015 210.807 116.402 211.18C116.802 211.553 117.368 211.88 118.102 212.16L118.902 212.46Z" fill="#424242"/>
<path d="M129.756 214.3C130.236 214.3 130.556 214.2 130.716 214C130.876 213.8 130.956 213.553 130.956 213.26C130.956 212.98 130.896 212.713 130.776 212.46C130.669 212.193 130.516 211.96 130.316 211.76C130.129 211.56 129.903 211.4 129.636 211.28C129.383 211.16 129.103 211.1 128.796 211.1C128.516 211.1 128.223 211.16 127.916 211.28C127.623 211.387 127.349 211.573 127.096 211.84C126.856 212.093 126.643 212.427 126.456 212.84C126.283 213.24 126.169 213.727 126.116 214.3H129.756ZM126.076 215.16C126.103 216.4 126.409 217.353 126.996 218.02C127.583 218.687 128.356 219.02 129.316 219.02C129.956 219.02 130.489 218.887 130.916 218.62C131.343 218.353 131.736 218.007 132.096 217.58L132.576 217.96C132.229 218.68 131.729 219.253 131.076 219.68C130.436 220.093 129.656 220.3 128.736 220.3C128.056 220.3 127.443 220.187 126.896 219.96C126.349 219.733 125.883 219.407 125.496 218.98C125.109 218.54 124.809 218.013 124.596 217.4C124.383 216.787 124.276 216.1 124.276 215.34C124.276 214.58 124.396 213.887 124.636 213.26C124.876 212.62 125.203 212.073 125.616 211.62C126.043 211.167 126.536 210.813 127.096 210.56C127.656 210.307 128.249 210.18 128.876 210.18C129.396 210.18 129.883 210.267 130.336 210.44C130.803 210.613 131.203 210.867 131.536 211.2C131.869 211.533 132.129 211.94 132.316 212.42C132.516 212.9 132.616 213.44 132.616 214.04C132.616 214.267 132.603 214.473 132.576 214.66C132.549 214.847 132.516 215.013 132.476 215.16H126.076Z" fill="#424242"/>
<path d="M137.531 212.72C137.878 211.92 138.305 211.3 138.811 210.86C139.331 210.407 139.865 210.18 140.411 210.18C140.705 210.18 140.985 210.26 141.251 210.42C141.531 210.567 141.705 210.813 141.771 211.16C141.771 211.493 141.658 211.76 141.431 211.96C141.205 212.147 140.918 212.24 140.571 212.24C140.158 212.24 139.778 212.073 139.431 211.74L139.291 211.6C138.878 211.907 138.531 212.273 138.251 212.7C137.971 213.113 137.738 213.62 137.551 214.22V215.8C137.551 216.24 137.551 216.753 137.551 217.34C137.565 217.927 137.578 218.473 137.591 218.98L139.231 219.28V220H134.391V219.28L135.831 219.02C135.845 218.513 135.851 217.967 135.851 217.38C135.865 216.78 135.871 216.253 135.871 215.8V214.78C135.871 214.233 135.865 213.78 135.851 213.42C135.838 213.06 135.825 212.68 135.811 212.28L134.231 212.1V211.4L137.011 210.18L137.311 210.38L137.531 212.72Z" fill="#424242"/>
<path d="M145.048 208.04C144.662 208.04 144.342 207.92 144.088 207.68C143.835 207.44 143.708 207.127 143.708 206.74C143.708 206.353 143.835 206.047 144.088 205.82C144.342 205.58 144.662 205.46 145.048 205.46C145.435 205.46 145.755 205.58 146.008 205.82C146.262 206.047 146.388 206.353 146.388 206.74C146.388 207.127 146.262 207.44 146.008 207.68C145.755 207.92 145.435 208.04 145.048 208.04ZM147.328 219.28V220H142.688V219.28L144.188 219C144.202 218.493 144.208 217.947 144.208 217.36C144.222 216.76 144.228 216.24 144.228 215.8V214.8C144.228 214.253 144.222 213.8 144.208 213.44C144.195 213.067 144.182 212.68 144.168 212.28L142.588 212.1V211.4L145.668 210.18L145.968 210.38L145.908 213.1V215.8C145.908 216.24 145.908 216.76 145.908 217.36C145.922 217.947 145.935 218.493 145.948 219L147.328 219.28Z" fill="#424242"/>
<path d="M150.305 210.5C150.359 209.967 150.419 209.487 150.485 209.06C150.565 208.633 150.659 208.253 150.765 207.92C150.872 207.573 151.005 207.267 151.165 207C151.325 206.72 151.512 206.467 151.725 206.24C152.152 205.773 152.612 205.453 153.105 205.28C153.599 205.107 154.072 205.02 154.525 205.02C155.005 205.02 155.419 205.1 155.765 205.26C156.125 205.42 156.359 205.693 156.465 206.08C156.439 206.347 156.319 206.567 156.105 206.74C155.892 206.913 155.605 207 155.245 207C154.992 207 154.752 206.947 154.525 206.84C154.299 206.733 154.059 206.58 153.805 206.38L153.305 205.98C153.039 206.18 152.812 206.447 152.625 206.78C152.412 207.127 152.239 207.6 152.105 208.2C151.972 208.8 151.919 209.58 151.945 210.54H154.685V211.6H151.985V215.8C151.985 216.333 151.985 216.867 151.985 217.4C151.999 217.92 152.012 218.447 152.025 218.98L153.805 219.28V220H148.665V219.28L150.245 219C150.259 218.467 150.265 217.933 150.265 217.4C150.279 216.867 150.285 216.333 150.285 215.8V211.6H148.645V210.72L150.305 210.5Z" fill="#424242"/>
<path d="M164.364 207.56C164.337 208.427 164.324 209.3 164.324 210.18C164.324 211.047 164.324 211.927 164.324 212.82V213.78H165.284C165.964 213.78 166.537 213.707 167.004 213.56C167.484 213.4 167.87 213.18 168.164 212.9C168.47 212.62 168.69 212.287 168.824 211.9C168.97 211.513 169.044 211.08 169.044 210.6C169.044 209.64 168.77 208.893 168.224 208.36C167.677 207.827 166.797 207.56 165.584 207.56H164.364ZM164.324 214.72C164.324 215.427 164.324 216.133 164.324 216.84C164.324 217.533 164.337 218.24 164.364 218.96L166.224 219.18V220H160.564V219.18L162.404 218.96C162.43 218.12 162.444 217.273 162.444 216.42C162.444 215.553 162.444 214.68 162.444 213.8V212.82C162.444 211.953 162.444 211.093 162.444 210.24C162.444 209.387 162.43 208.527 162.404 207.66L160.564 207.44V206.62H165.944C166.784 206.62 167.524 206.72 168.164 206.92C168.804 207.107 169.33 207.38 169.744 207.74C170.17 208.087 170.49 208.507 170.704 209C170.917 209.48 171.024 210.013 171.024 210.6C171.024 211.16 170.91 211.687 170.684 212.18C170.47 212.673 170.124 213.113 169.644 213.5C169.164 213.873 168.537 214.173 167.764 214.4C167.004 214.613 166.077 214.72 164.984 214.72H164.324Z" fill="#424242"/>
<path d="M175.266 212.72C175.612 211.92 176.039 211.3 176.546 210.86C177.066 210.407 177.599 210.18 178.146 210.18C178.439 210.18 178.719 210.26 178.986 210.42C179.266 210.567 179.439 210.813 179.506 211.16C179.506 211.493 179.392 211.76 179.166 211.96C178.939 212.147 178.652 212.24 178.306 212.24C177.892 212.24 177.512 212.073 177.166 211.74L177.026 211.6C176.612 211.907 176.266 212.273 175.986 212.7C175.706 213.113 175.472 213.62 175.286 214.22V215.8C175.286 216.24 175.286 216.753 175.286 217.34C175.299 217.927 175.312 218.473 175.326 218.98L176.966 219.28V220H172.126V219.28L173.566 219.02C173.579 218.513 173.586 217.967 173.586 217.38C173.599 216.78 173.606 216.253 173.606 215.8V214.78C173.606 214.233 173.599 213.78 173.586 213.42C173.572 213.06 173.559 212.68 173.546 212.28L171.966 212.1V211.4L174.746 210.18L175.046 210.38L175.266 212.72Z" fill="#424242"/>
<path d="M185.008 211.1C184.128 211.1 183.455 211.46 182.988 212.18C182.521 212.887 182.288 213.92 182.288 215.28C182.288 216.627 182.521 217.653 182.988 218.36C183.455 219.053 184.128 219.4 185.008 219.4C185.875 219.4 186.541 219.053 187.008 218.36C187.475 217.653 187.708 216.627 187.708 215.28C187.708 213.92 187.475 212.887 187.008 212.18C186.541 211.46 185.875 211.1 185.008 211.1ZM185.008 210.18C185.581 210.18 186.141 210.293 186.688 210.52C187.248 210.733 187.741 211.06 188.168 211.5C188.595 211.927 188.941 212.46 189.208 213.1C189.475 213.727 189.608 214.453 189.608 215.28C189.608 216.107 189.475 216.833 189.208 217.46C188.955 218.087 188.608 218.613 188.168 219.04C187.741 219.453 187.248 219.767 186.688 219.98C186.141 220.193 185.581 220.3 185.008 220.3C184.421 220.3 183.848 220.193 183.288 219.98C182.741 219.767 182.255 219.453 181.828 219.04C181.401 218.613 181.055 218.087 180.788 217.46C180.535 216.833 180.408 216.107 180.408 215.28C180.408 214.453 180.535 213.727 180.788 213.1C181.055 212.46 181.401 211.927 181.828 211.5C182.268 211.06 182.761 210.733 183.308 210.52C183.855 210.293 184.421 210.18 185.008 210.18Z" fill="#424242"/>
</svg>
