<svg width="236" height="269" viewBox="0 0 236 269" fill="none" xmlns="http://www.w3.org/2000/svg">
<path d="M0 0H236V269H0V0Z" fill="#F5EDDD"/>
<path fill-rule="evenodd" clip-rule="evenodd" d="M232 4H4V265H232V4ZM0 0V269H236V0H0Z" fill="#424242"/>
<path d="M162.824 103.6V102.4L127.924 103.2V104.4C129.458 104.467 130.991 104.567 132.524 104.7C134.058 104.767 135.458 105 136.724 105.4C137.991 105.8 138.991 106.4 139.724 107.2C140.524 108 140.924 109.133 140.924 110.6C140.924 111.467 140.624 112.633 140.024 114.1C139.424 115.5 138.591 117.067 137.524 118.8C136.524 120.533 135.324 122.367 133.924 124.3C132.591 126.233 131.158 128.167 129.624 130.1C128.491 128.233 127.124 126.2 125.524 124C123.991 121.8 122.291 119.633 120.424 117.5C118.758 115.633 117.058 113.833 115.324 112.1C113.591 110.3 111.691 108.6 109.624 107C110.291 106.6 111.258 105.967 112.524 105.1C113.791 104.233 115.024 103.167 116.224 101.9C117.491 100.567 118.591 99.0333 119.524 97.3C120.458 95.5667 120.924 93.6333 120.924 91.5C120.924 89.3667 120.491 87.5 119.624 85.9C118.758 84.3 117.624 83 116.224 82C114.891 80.9333 113.358 80.1333 111.624 79.6C109.891 79.0667 108.124 78.8 106.324 78.8C104.258 78.8 102.191 79.1667 100.124 79.9C98.1242 80.6333 96.2908 81.6667 94.6242 83C93.0242 84.2667 91.6908 85.8333 90.6242 87.7C89.6242 89.5 89.1242 91.5 89.1242 93.7C89.1242 95.9 89.3908 97.8 89.9242 99.4C90.5242 101 91.2908 102.467 92.2242 103.8C93.1575 105.133 94.2575 106.433 95.5242 107.7C96.7908 108.9 98.1575 110.267 99.6242 111.8C97.3575 112.933 95.0575 114.267 92.7242 115.8C90.3908 117.267 88.2575 118.967 86.3242 120.9C84.4575 122.767 82.9242 124.9 81.7242 127.3C80.5908 129.633 80.0242 132.2 80.0242 135C80.0242 137.4 80.4575 139.7 81.3242 141.9C82.2575 144.1 83.5575 146.033 85.2242 147.7C86.8908 149.3 88.9575 150.567 91.4242 151.5C93.8908 152.367 96.6575 152.8 99.7242 152.8C102.458 152.8 105.058 152.367 107.524 151.5C109.991 150.567 112.224 149.4 114.224 148C116.291 146.6 118.091 145.1 119.624 143.5C121.158 141.9 122.358 140.467 123.224 139.2C124.358 141 125.624 142.767 127.024 144.5C128.424 146.167 129.924 147.667 131.524 149C133.191 150.333 134.958 151.367 136.824 152.1C138.691 152.9 140.724 153.3 142.924 153.3C145.258 153.3 147.491 152.833 149.624 151.9C151.824 150.967 153.791 149.767 155.524 148.3C157.258 146.833 158.724 145.267 159.924 143.6C161.191 141.867 162.058 140.333 162.524 139L161.624 138.6C161.158 139.4 160.524 140.267 159.724 141.2C158.924 142.133 158.024 143 157.024 143.8C156.024 144.6 154.924 145.267 153.724 145.8C152.591 146.333 151.358 146.6 150.024 146.6C147.424 146.6 145.224 146.033 143.424 144.9C141.691 143.767 139.958 142.3 138.224 140.5C136.424 138.633 134.924 136.933 133.724 135.4C132.524 133.8 131.458 132.4 130.524 131.2C133.191 128.133 135.724 125.067 138.124 122C140.524 118.867 142.958 116.033 145.424 113.5C147.958 110.9 150.624 108.733 153.424 107C156.224 105.2 159.358 104.067 162.824 103.6ZM113.624 93.5C113.624 96.3 113.224 98.6667 112.424 100.6C111.691 102.533 110.458 104.4 108.724 106.2C106.924 104.6 105.358 103.233 104.024 102.1C102.758 100.9 101.558 99.5 100.424 97.9C99.4242 96.5 98.7242 95.2 98.3242 94C97.9242 92.8 97.7242 91.1333 97.7242 89C97.7242 88.2 97.8575 87.3333 98.1242 86.4C98.3908 85.4667 98.7908 84.6 99.3242 83.8C99.8575 83 100.558 82.3333 101.424 81.8C102.291 81.2667 103.324 81 104.524 81C105.858 81 107.091 81.3667 108.224 82.1C109.358 82.8333 110.324 83.8 111.124 85C111.924 86.1333 112.524 87.4667 112.924 89C113.391 90.4667 113.624 91.9667 113.624 93.5ZM122.524 138.1C121.124 139.367 119.791 140.5 118.524 141.5C117.258 142.433 115.924 143.233 114.524 143.9C113.191 144.5 111.724 144.967 110.124 145.3C108.524 145.633 106.691 145.8 104.624 145.8C102.558 145.8 100.658 145.433 98.9242 144.7C97.1908 143.9 95.6908 142.833 94.4242 141.5C93.1575 140.1 92.1908 138.5 91.5242 136.7C90.8575 134.9 90.5242 133 90.5242 131C90.5242 129 90.8242 127.1 91.4242 125.3C92.0908 123.433 92.9242 121.733 93.9242 120.2C94.9242 118.667 96.0242 117.267 97.2242 116C98.4242 114.733 99.5908 113.633 100.724 112.7C101.391 113.3 102.191 114.033 103.124 114.9C104.124 115.767 105.124 116.7 106.124 117.7C107.191 118.633 108.191 119.6 109.124 120.6C110.124 121.6 110.958 122.5 111.624 123.3C112.824 124.767 113.891 126.1 114.824 127.3C115.824 128.433 116.724 129.567 117.524 130.7C118.391 131.767 119.224 132.9 120.024 134.1C120.824 135.233 121.658 136.567 122.524 138.1Z" fill="#424242"/>
<path d="M86.4886 217.06C86.4886 216.527 86.3753 216.053 86.1486 215.64C85.9353 215.213 85.642 214.847 85.2686 214.54C84.9086 214.233 84.4953 213.993 84.0286 213.82C83.562 213.633 83.0886 213.513 82.6086 213.46V213.38C83.5153 213.193 84.2486 212.833 84.8086 212.3C85.382 211.753 85.6686 211.04 85.6686 210.16C85.6686 209.36 85.4486 208.7 85.0086 208.18C84.5686 207.66 84.0086 207.273 83.3286 207.02C82.902 206.86 82.4553 206.753 81.9886 206.7C81.5353 206.633 81.0553 206.6 80.5486 206.6H73.8086V206.8C74.1686 206.84 74.4486 206.9 74.6486 206.98C74.8486 207.047 75.0486 207.187 75.2486 207.4C75.3286 207.48 75.3886 207.613 75.4286 207.8C75.482 207.973 75.522 208.173 75.5486 208.4C75.5886 208.627 75.6153 208.867 75.6286 209.12C75.642 209.36 75.6486 209.6 75.6486 209.84C75.6486 210.24 75.6486 210.593 75.6486 210.9C75.662 211.207 75.6686 211.507 75.6686 211.8C75.6686 212.08 75.6686 212.373 75.6686 212.68C75.6686 212.987 75.6686 213.34 75.6686 213.74C75.6686 214.1 75.6686 214.487 75.6686 214.9C75.6686 215.3 75.662 215.693 75.6486 216.08C75.6486 216.453 75.642 216.8 75.6286 217.12C75.6286 217.44 75.6286 217.693 75.6286 217.88C75.6286 218.093 75.622 218.313 75.6086 218.54C75.5953 218.753 75.5686 218.96 75.5286 219.16C75.502 219.36 75.4686 219.54 75.4286 219.7C75.3886 219.847 75.3353 219.96 75.2686 220.04C75.082 220.253 74.8353 220.42 74.5286 220.54C74.2353 220.66 73.922 220.747 73.5886 220.8V221H80.4886C81.0753 221 81.682 220.98 82.3086 220.94C82.9353 220.9 83.502 220.787 84.0086 220.6C84.302 220.493 84.5953 220.34 84.8886 220.14C85.182 219.927 85.4486 219.673 85.6886 219.38C85.9286 219.087 86.122 218.747 86.2686 218.36C86.4153 217.973 86.4886 217.54 86.4886 217.06ZM83.3686 210.16C83.3686 211.067 83.0553 211.827 82.4286 212.44C81.8153 213.053 80.9086 213.393 79.7086 213.46C79.522 213.473 79.2753 213.48 78.9686 213.48C78.662 213.48 78.2886 213.48 77.8486 213.48C77.8486 213.413 77.8486 213.2 77.8486 212.84C77.8486 212.48 77.8486 212.053 77.8486 211.56C77.8486 211.053 77.8486 210.52 77.8486 209.96C77.862 209.4 77.8753 208.887 77.8886 208.42C77.902 208.18 77.9086 207.987 77.9086 207.84C77.922 207.693 77.9286 207.573 77.9286 207.48C77.942 207.373 77.9553 207.287 77.9686 207.22C77.982 207.153 77.9953 207.08 78.0086 207C78.1286 206.96 78.302 206.927 78.5286 206.9C78.7553 206.873 79.0086 206.86 79.2886 206.86C80.222 206.86 80.9886 206.993 81.5886 207.26C82.0953 207.487 82.5153 207.86 82.8486 208.38C83.1953 208.9 83.3686 209.493 83.3686 210.16ZM84.1486 217.28C84.1486 217.96 83.9953 218.547 83.6886 219.04C83.382 219.52 82.9486 219.907 82.3886 220.2C81.962 220.427 81.522 220.567 81.0686 220.62C80.6153 220.673 80.1953 220.7 79.8086 220.7C79.3553 220.7 79.0086 220.653 78.7686 220.56C78.5286 220.453 78.3486 220.327 78.2286 220.18C78.0686 219.967 77.9686 219.7 77.9286 219.38C77.902 219.047 77.882 218.627 77.8686 218.12C77.8686 217.893 77.862 217.627 77.8486 217.32C77.8486 217 77.8486 216.653 77.8486 216.28C77.8486 215.893 77.8486 215.487 77.8486 215.06C77.8486 214.633 77.8486 214.207 77.8486 213.78H79.7886C80.1753 213.78 80.5086 213.8 80.7886 213.84C81.082 213.867 81.3753 213.927 81.6686 214.02C82.0286 214.14 82.3553 214.307 82.6486 214.52C82.9553 214.72 83.2153 214.967 83.4286 215.26C83.6553 215.54 83.8286 215.853 83.9486 216.2C84.082 216.533 84.1486 216.893 84.1486 217.28Z" fill="#424242"/>
<path d="M91.251 208.18C91.251 207.873 91.1443 207.62 90.931 207.42C90.731 207.22 90.4776 207.12 90.171 207.12C89.8643 207.12 89.6043 207.22 89.391 207.42C89.191 207.62 89.091 207.873 89.091 208.18C89.091 208.473 89.1976 208.727 89.411 208.94C89.6243 209.153 89.8776 209.26 90.171 209.26C90.4776 209.26 90.731 209.16 90.931 208.96C91.1443 208.747 91.251 208.487 91.251 208.18ZM92.371 221V220.8C92.2376 220.773 92.0976 220.76 91.951 220.76C91.8176 220.747 91.691 220.727 91.571 220.7C91.451 220.673 91.3443 220.633 91.251 220.58C91.171 220.513 91.1176 220.413 91.091 220.28V211.34H90.971L88.271 212.22V212.34C88.4576 212.407 88.631 212.48 88.791 212.56C88.9643 212.64 89.111 212.72 89.231 212.8C89.3243 212.867 89.3776 212.94 89.391 213.02C89.4176 213.1 89.431 213.193 89.431 213.3V220.16C89.431 220.28 89.3843 220.38 89.291 220.46C89.211 220.54 89.1043 220.607 88.971 220.66C88.851 220.7 88.711 220.733 88.551 220.76C88.391 220.773 88.231 220.787 88.071 220.8V221H92.371Z" fill="#424242"/>
<path d="M103.489 212.44C103.489 212.213 103.416 212.02 103.269 211.86C103.122 211.7 102.936 211.62 102.709 211.62C102.549 211.62 102.409 211.647 102.289 211.7C102.169 211.74 102.056 211.793 101.949 211.86C101.842 211.913 101.722 211.967 101.589 212.02C101.469 212.06 101.329 212.08 101.169 212.08C101.009 212.08 100.869 212.073 100.749 212.06C100.642 212.047 100.509 212.013 100.349 211.96C99.9224 211.733 99.5091 211.573 99.1091 211.48C98.7224 211.387 98.2758 211.34 97.7691 211.34C97.2091 211.34 96.6891 211.42 96.2091 211.58C95.7424 211.74 95.3358 211.96 94.9891 212.24C94.6424 212.507 94.3691 212.827 94.1691 213.2C93.9824 213.573 93.8891 213.973 93.8891 214.4C93.8891 215.08 94.0491 215.64 94.3691 216.08C94.7024 216.52 95.1624 216.853 95.7491 217.08V217.14C95.4158 217.18 95.1024 217.267 94.8091 217.4C94.5291 217.52 94.2824 217.673 94.0691 217.86C93.8558 218.047 93.6891 218.253 93.5691 218.48C93.4491 218.707 93.3891 218.947 93.3891 219.2C93.3891 219.707 93.5691 220.113 93.9291 220.42C94.3024 220.727 94.8291 220.92 95.5091 221V221.04C95.2291 221.213 94.9424 221.387 94.6491 221.56C94.3691 221.747 94.1091 221.94 93.8691 222.14C93.6424 222.353 93.4491 222.573 93.2891 222.8C93.1424 223.027 93.0691 223.28 93.0691 223.56C93.0691 224.32 93.4691 224.913 94.2691 225.34C95.0824 225.78 96.2158 226 97.6691 226C98.4291 226 99.1224 225.893 99.7491 225.68C100.389 225.48 100.942 225.2 101.409 224.84C101.876 224.48 102.236 224.06 102.489 223.58C102.756 223.113 102.889 222.62 102.889 222.1C102.889 221.7 102.816 221.333 102.669 221C102.536 220.68 102.336 220.393 102.069 220.14C101.802 219.887 101.482 219.687 101.109 219.54C100.736 219.393 100.316 219.32 99.8491 219.32H96.6491C96.4224 219.32 96.1891 219.307 95.9491 219.28C95.7091 219.253 95.4891 219.2 95.2891 219.12C95.0891 219.04 94.9224 218.933 94.7891 218.8C94.6558 218.653 94.5891 218.473 94.5891 218.26C94.5891 217.993 94.7158 217.773 94.9691 217.6C95.2224 217.427 95.5624 217.327 95.9891 217.3C96.2558 217.3 96.4824 217.313 96.6691 217.34C96.8691 217.367 97.0624 217.38 97.2491 217.38C98.5424 217.38 99.5558 217.12 100.289 216.6C101.022 216.067 101.389 215.273 101.389 214.22C101.389 213.793 101.316 213.447 101.169 213.18C101.036 212.913 100.869 212.627 100.669 212.32L100.749 212.24C100.909 212.333 101.089 212.44 101.289 212.56C101.489 212.667 101.682 212.767 101.869 212.86C102.069 212.953 102.249 213.033 102.409 213.1C102.569 213.167 102.689 213.2 102.769 213.2C102.969 213.2 103.136 213.127 103.269 212.98C103.416 212.82 103.489 212.64 103.489 212.44ZM99.7891 214.22C99.7891 214.593 99.7424 214.953 99.6491 215.3C99.5558 215.633 99.4158 215.933 99.2291 216.2C99.0424 216.467 98.8091 216.68 98.5291 216.84C98.2624 217 97.9491 217.08 97.5891 217.08C97.0024 217.08 96.5024 216.84 96.0891 216.36C95.6891 215.867 95.4891 215.22 95.4891 214.42C95.4891 214.073 95.5358 213.733 95.6291 213.4C95.7224 213.067 95.8558 212.773 96.0291 212.52C96.2158 212.253 96.4424 212.047 96.7091 211.9C96.9758 211.74 97.2758 211.66 97.6091 211.66C97.9691 211.66 98.2824 211.733 98.5491 211.88C98.8291 212.013 99.0558 212.2 99.2291 212.44C99.4158 212.667 99.5558 212.933 99.6491 213.24C99.7424 213.547 99.7891 213.873 99.7891 214.22ZM101.549 222.92C101.549 223.493 101.369 223.987 101.009 224.4C100.662 224.813 100.256 225.113 99.7891 225.3C99.5624 225.38 99.3024 225.44 99.0091 225.48C98.7291 225.52 98.3891 225.54 97.9891 225.54C97.6558 225.54 97.2891 225.487 96.8891 225.38C96.5024 225.273 96.1358 225.107 95.7891 224.88C95.4424 224.667 95.1491 224.4 94.9091 224.08C94.6824 223.76 94.5691 223.387 94.5691 222.96C94.5691 222.547 94.6891 222.167 94.9291 221.82C95.1691 221.473 95.6024 221.22 96.2291 221.06C96.4158 221.033 96.6558 221.007 96.9491 220.98C97.2424 220.953 97.5291 220.94 97.8091 220.94C98.5824 220.94 99.1891 220.967 99.6291 221.02C100.069 221.087 100.436 221.193 100.729 221.34C100.956 221.447 101.149 221.64 101.309 221.92C101.469 222.2 101.549 222.533 101.549 222.92Z" fill="#424242"/>
<path d="M122.036 211.22V206.74H121.816C121.736 206.86 121.649 206.98 121.556 207.1C121.463 207.207 121.369 207.307 121.276 207.4C121.196 207.48 121.116 207.553 121.036 207.62C120.969 207.673 120.923 207.7 120.896 207.7C120.869 207.7 120.749 207.627 120.536 207.48C120.323 207.333 120.016 207.173 119.616 207C119.216 206.827 118.716 206.667 118.116 206.52C117.516 206.373 116.816 206.3 116.016 206.3C115.136 206.3 114.343 206.393 113.636 206.58C112.929 206.767 112.296 207.02 111.736 207.34C111.176 207.647 110.689 208.007 110.276 208.42C109.863 208.833 109.516 209.267 109.236 209.72C108.996 210.107 108.796 210.493 108.636 210.88C108.489 211.253 108.369 211.613 108.276 211.96C108.196 212.307 108.136 212.633 108.096 212.94C108.069 213.247 108.056 213.52 108.056 213.76C108.056 214.84 108.243 215.833 108.616 216.74C108.989 217.633 109.523 218.407 110.216 219.06C110.923 219.7 111.776 220.2 112.776 220.56C113.776 220.907 114.896 221.08 116.136 221.08C116.883 221.08 117.543 221.02 118.116 220.9C118.689 220.767 119.176 220.62 119.576 220.46C119.976 220.287 120.283 220.133 120.496 220C120.709 219.853 120.829 219.78 120.856 219.78C120.923 219.78 121.043 219.873 121.216 220.06C121.389 220.247 121.556 220.453 121.716 220.68H121.956L122.016 216.28H121.776C121.656 216.853 121.429 217.413 121.096 217.96C120.776 218.493 120.376 218.967 119.896 219.38C119.429 219.793 118.889 220.127 118.276 220.38C117.676 220.633 117.029 220.76 116.336 220.76C115.456 220.76 114.656 220.58 113.936 220.22C113.216 219.86 112.603 219.373 112.096 218.76C111.589 218.133 111.196 217.4 110.916 216.56C110.649 215.72 110.516 214.82 110.516 213.86C110.516 212.953 110.643 212.073 110.896 211.22C111.163 210.353 111.536 209.58 112.016 208.9C112.509 208.22 113.116 207.673 113.836 207.26C114.556 206.847 115.376 206.64 116.296 206.64C116.963 206.64 117.589 206.76 118.176 207C118.776 207.24 119.309 207.567 119.776 207.98C120.256 208.393 120.669 208.88 121.016 209.44C121.363 210 121.623 210.6 121.796 211.24L122.036 211.22Z" fill="#424242"/>
<path d="M132.323 219.04H132.203C132.15 219.24 132.05 219.407 131.903 219.54C131.757 219.66 131.53 219.72 131.223 219.72C130.957 219.72 130.717 219.627 130.503 219.44C130.303 219.24 130.203 218.84 130.203 218.24C130.203 217.787 130.203 217.373 130.203 217C130.217 216.613 130.223 216.24 130.223 215.88C130.223 215.52 130.223 215.147 130.223 214.76C130.237 214.373 130.243 213.94 130.243 213.46C130.243 213.233 130.237 213.007 130.223 212.78C130.21 212.54 130.177 212.373 130.123 212.28C129.99 212.013 129.77 211.793 129.463 211.62C129.157 211.433 128.83 211.34 128.483 211.34C128.31 211.34 128.083 211.38 127.803 211.46C127.537 211.54 127.237 211.647 126.903 211.78C126.583 211.913 126.243 212.073 125.883 212.26C125.523 212.447 125.17 212.64 124.823 212.84C124.717 212.907 124.59 212.98 124.443 213.06C124.31 213.14 124.183 213.233 124.063 213.34C123.943 213.447 123.843 213.567 123.763 213.7C123.683 213.833 123.643 213.98 123.643 214.14C123.643 214.34 123.717 214.52 123.863 214.68C124.023 214.827 124.21 214.9 124.423 214.9C124.65 214.9 124.857 214.827 125.043 214.68C125.243 214.533 125.343 214.367 125.343 214.18V213.28C125.343 213.2 125.39 213.107 125.483 213C125.577 212.88 125.703 212.767 125.863 212.66C126.023 212.54 126.203 212.447 126.403 212.38C126.617 212.3 126.83 212.26 127.043 212.26C127.363 212.26 127.623 212.307 127.823 212.4C128.023 212.48 128.177 212.573 128.283 212.68C128.403 212.787 128.483 212.893 128.523 213C128.577 213.093 128.603 213.153 128.603 213.18V215.24C128.47 215.32 128.303 215.413 128.103 215.52C127.917 215.613 127.697 215.733 127.443 215.88C127.19 216.013 126.89 216.18 126.543 216.38C126.21 216.58 125.823 216.82 125.383 217.1C124.943 217.38 124.57 217.693 124.263 218.04C123.97 218.387 123.823 218.747 123.823 219.12C123.823 219.467 123.877 219.76 123.983 220C124.103 220.24 124.25 220.44 124.423 220.6C124.61 220.747 124.81 220.853 125.023 220.92C125.25 220.973 125.47 221 125.683 221C126.043 221 126.37 220.947 126.663 220.84C126.97 220.72 127.243 220.567 127.483 220.38C127.737 220.193 127.95 219.993 128.123 219.78C128.31 219.567 128.457 219.373 128.563 219.2L128.603 219.22C128.603 219.887 128.777 220.353 129.123 220.62C129.483 220.887 129.89 221.02 130.343 221.02C130.623 221.02 130.877 220.973 131.103 220.88C131.343 220.773 131.55 220.627 131.723 220.44C131.897 220.24 132.037 220.02 132.143 219.78C132.25 219.54 132.31 219.293 132.323 219.04ZM128.603 218.64C128.603 218.867 128.523 219.053 128.363 219.2C128.137 219.427 127.89 219.58 127.623 219.66C127.357 219.74 127.05 219.78 126.703 219.78C126.317 219.78 126.003 219.64 125.763 219.36C125.523 219.08 125.403 218.767 125.403 218.42C125.403 218.073 125.523 217.767 125.763 217.5C126.017 217.22 126.31 216.967 126.643 216.74C126.99 216.513 127.343 216.307 127.703 216.12C128.063 215.92 128.363 215.733 128.603 215.56V218.64Z" fill="#424242"/>
<path d="M139.368 218.08C139.368 217.4 139.155 216.827 138.728 216.36C138.315 215.893 137.808 215.587 137.208 215.44C136.955 215.373 136.655 215.307 136.308 215.24C135.962 215.16 135.642 215.087 135.348 215.02C134.922 214.913 134.568 214.753 134.288 214.54C134.008 214.327 133.868 213.973 133.868 213.48C133.868 213.173 133.922 212.907 134.028 212.68C134.135 212.44 134.268 212.247 134.428 212.1C134.602 211.94 134.795 211.82 135.008 211.74C135.235 211.66 135.462 211.62 135.688 211.62C136.062 211.62 136.388 211.687 136.668 211.82C136.962 211.953 137.222 212.147 137.448 212.4C137.675 212.64 137.882 212.933 138.068 213.28C138.255 213.613 138.442 213.98 138.628 214.38L138.788 214.34L138.548 211.86C138.162 211.713 137.755 211.593 137.328 211.5C136.902 211.393 136.408 211.34 135.848 211.34C135.408 211.34 134.995 211.407 134.608 211.54C134.222 211.66 133.882 211.84 133.588 212.08C133.295 212.32 133.062 212.607 132.888 212.94C132.715 213.273 132.628 213.647 132.628 214.06C132.628 214.66 132.782 215.173 133.088 215.6C133.408 216.027 133.822 216.327 134.328 216.5C134.595 216.593 134.895 216.68 135.228 216.76C135.562 216.84 135.908 216.913 136.268 216.98C136.722 217.073 137.075 217.26 137.328 217.54C137.595 217.807 137.728 218.147 137.728 218.56C137.728 219.32 137.535 219.887 137.148 220.26C136.775 220.62 136.268 220.8 135.628 220.8C135.188 220.8 134.808 220.707 134.488 220.52C134.168 220.32 133.895 220.073 133.668 219.78C133.442 219.473 133.248 219.147 133.088 218.8C132.928 218.44 132.795 218.1 132.688 217.78H132.528V220.42C132.968 220.62 133.448 220.773 133.968 220.88C134.488 220.987 135.042 221.04 135.628 221.04C136.122 221.04 136.588 220.987 137.028 220.88C137.482 220.773 137.882 220.6 138.228 220.36C138.575 220.12 138.848 219.813 139.048 219.44C139.262 219.053 139.368 218.6 139.368 218.08Z" fill="#424242"/>
<path d="M144.425 221V220.78C144.172 220.753 143.952 220.74 143.765 220.74C143.578 220.727 143.425 220.707 143.305 220.68C143.185 220.653 143.092 220.607 143.025 220.54C142.972 220.473 142.945 220.373 142.945 220.24V206.54H142.805L139.945 207.48V207.6C140.105 207.667 140.305 207.773 140.545 207.92C140.785 208.053 140.965 208.153 141.085 208.22C141.178 208.287 141.232 208.347 141.245 208.4C141.272 208.453 141.285 208.533 141.285 208.64V220.14C141.285 220.353 141.185 220.507 140.985 220.6C140.785 220.68 140.378 220.74 139.765 220.78V221H144.425Z" fill="#424242"/>
<path d="M154.387 216.1C154.387 215.3 154.24 214.607 153.947 214.02C153.667 213.42 153.3 212.927 152.847 212.54C152.407 212.14 151.914 211.84 151.367 211.64C150.82 211.44 150.28 211.34 149.747 211.34C149.027 211.34 148.367 211.473 147.767 211.74C147.18 212.007 146.674 212.36 146.247 212.8C145.834 213.24 145.507 213.747 145.267 214.32C145.04 214.893 144.927 215.487 144.927 216.1C144.927 216.953 145.074 217.7 145.367 218.34C145.674 218.967 146.06 219.487 146.527 219.9C147.007 220.3 147.527 220.593 148.087 220.78C148.647 220.967 149.187 221.06 149.707 221.06C150.334 221.06 150.927 220.933 151.487 220.68C152.06 220.427 152.56 220.073 152.987 219.62C153.414 219.167 153.754 218.64 154.007 218.04C154.26 217.427 154.387 216.78 154.387 216.1ZM152.527 216.08C152.527 216.547 152.474 217.053 152.367 217.6C152.274 218.147 152.114 218.66 151.887 219.14C151.674 219.607 151.387 220 151.027 220.32C150.68 220.627 150.247 220.78 149.727 220.78C149.207 220.78 148.76 220.66 148.387 220.42C148.014 220.167 147.707 219.833 147.467 219.42C147.227 218.993 147.054 218.507 146.947 217.96C146.84 217.413 146.787 216.833 146.787 216.22C146.787 215.66 146.847 215.113 146.967 214.58C147.1 214.033 147.287 213.547 147.527 213.12C147.78 212.68 148.08 212.327 148.427 212.06C148.774 211.793 149.167 211.66 149.607 211.66C150.154 211.66 150.614 211.807 150.987 212.1C151.36 212.38 151.66 212.74 151.887 213.18C152.114 213.62 152.274 214.1 152.367 214.62C152.474 215.14 152.527 215.627 152.527 216.08Z" fill="#424242"/>
<path d="M165.002 221V220.82C164.882 220.807 164.748 220.793 164.602 220.78C164.468 220.753 164.342 220.727 164.222 220.7C164.102 220.66 163.995 220.607 163.902 220.54C163.822 220.473 163.782 220.393 163.782 220.3V214.42C163.782 213.513 163.575 212.773 163.162 212.2C162.748 211.627 162.155 211.34 161.382 211.34C161.022 211.34 160.675 211.413 160.342 211.56C160.008 211.693 159.702 211.867 159.422 212.08C159.142 212.293 158.888 212.533 158.662 212.8C158.448 213.053 158.268 213.293 158.122 213.52L158.082 213.5V211.34H157.962L155.342 212.28V212.4C155.502 212.467 155.662 212.547 155.822 212.64C155.982 212.72 156.122 212.793 156.242 212.86C156.335 212.927 156.388 212.987 156.402 213.04C156.428 213.093 156.442 213.173 156.442 213.28V220.16C156.442 220.373 156.328 220.527 156.102 220.62C155.888 220.713 155.628 220.773 155.322 220.8V221H159.182V220.8C159.048 220.773 158.922 220.76 158.802 220.76C158.682 220.747 158.575 220.727 158.482 220.7C158.388 220.673 158.308 220.633 158.242 220.58C158.175 220.513 158.128 220.413 158.102 220.28V213.72C158.462 213.36 158.788 213.087 159.082 212.9C159.375 212.713 159.742 212.62 160.182 212.62C160.875 212.62 161.368 212.86 161.662 213.34C161.955 213.807 162.102 214.427 162.102 215.2V220.24C162.102 220.453 161.995 220.593 161.782 220.66C161.568 220.713 161.282 220.753 160.922 220.78V221H165.002Z" fill="#424242"/>
</svg>
