<svg width="236" height="269" viewBox="0 0 236 269" fill="none" xmlns="http://www.w3.org/2000/svg">
<path d="M0 0H236V269H0V0Z" fill="#F5EDDD"/>
<path fill-rule="evenodd" clip-rule="evenodd" d="M232 4H4V265H232V4ZM0 0V269H236V0H0Z" fill="#424242"/>
<path d="M155.423 153.4C151.757 154.667 147.857 155.3 143.723 155.3C138.857 155.3 134.057 154.167 129.323 151.9C123.923 154.3 117.59 155.5 110.323 155.5C105.323 155.5 100.79 154.733 96.7235 153.2C92.7235 151.667 89.5568 149.5 87.2235 146.7C84.9568 143.833 83.8235 140.5 83.8235 136.7C83.8235 132.1 85.3902 128.267 88.5235 125.2C91.6568 122.067 96.5568 119.233 103.223 116.7C102.557 113.433 102.223 109.933 102.223 106.2C102.223 102.067 103.09 98.3333 104.823 95C106.557 91.6667 108.923 89.0667 111.923 87.2C114.923 85.2667 118.29 84.3 122.023 84.3C125.357 84.3 128.257 84.9667 130.723 86.3C133.257 87.6333 135.19 89.4333 136.523 91.7C137.923 93.9 138.623 96.3333 138.623 99C138.623 103.8 136.523 108.1 132.323 111.9C128.19 115.633 122.19 118.7 114.323 121.1C115.857 125.567 117.923 129.667 120.523 133.4C123.19 137.067 126.157 140.1 129.423 142.5C132.357 140.567 134.623 138.333 136.223 135.8C137.823 133.2 138.623 130.433 138.623 127.5C138.623 125.767 138.39 124.233 137.923 122.9C137.523 121.5 136.89 120.1 136.023 118.7L144.423 115C146.957 119 148.223 123.167 148.223 127.5C148.223 130.767 147.323 134.133 145.523 137.6C143.79 141 141.223 144.033 137.823 146.7C139.623 147.233 141.357 147.5 143.023 147.5C146.957 147.5 150.523 146.933 153.723 145.8L155.423 153.4ZM122.223 92.3C120.557 92.3 118.923 92.8333 117.323 93.9C115.723 94.9 114.39 96.4667 113.323 98.6C112.323 100.667 111.823 103.2 111.823 106.2C111.823 108.733 112.023 111.167 112.423 113.5C123.49 109.967 129.023 105.2 129.023 99.2C129.023 97.0667 128.39 95.4 127.123 94.2C125.857 92.9333 124.223 92.3 122.223 92.3ZM110.923 147.5C114.39 147.5 117.623 147.1 120.623 146.3C117.29 143.5 114.29 140.233 111.623 136.5C109.023 132.7 106.923 128.6 105.323 124.2C101.123 125.867 98.0568 127.633 96.1235 129.5C94.2568 131.3 93.3235 133.5 93.3235 136.1C93.3235 139.5 94.9568 142.267 98.2235 144.4C101.49 146.467 105.723 147.5 110.923 147.5Z" fill="#424242"/>
<path d="M75.6454 214.9C77.6854 215.38 78.7054 216.5 78.7054 218.26C78.7054 219.46 78.2521 220.387 77.3454 221.04C76.4388 221.68 75.1454 222 73.4654 222H65.3254V220.34H67.9054V209.94H65.3254V208.28H73.1454C74.5988 208.28 75.7188 208.607 76.5054 209.26C77.3054 209.913 77.7054 210.773 77.7054 211.84C77.7054 212.56 77.5188 213.18 77.1454 213.7C76.7854 214.207 76.2854 214.607 75.6454 214.9ZM69.9454 209.94V214.32H72.6454C73.5788 214.32 74.3054 214.14 74.8254 213.78C75.3588 213.407 75.6254 212.84 75.6254 212.08C75.6254 211.347 75.3788 210.807 74.8854 210.46C74.3921 210.113 73.7654 209.94 73.0054 209.94H69.9454ZM73.2654 220.34C75.5054 220.34 76.6254 219.593 76.6254 218.1C76.6254 217.327 76.3254 216.76 75.7254 216.4C75.1388 216.04 74.3121 215.853 73.2454 215.84H69.9454V220.34H73.2654Z" fill="#424242"/>
<path d="M83.1826 210.44C82.756 210.44 82.396 210.327 82.1026 210.1C81.8093 209.873 81.6626 209.587 81.6626 209.24C81.6626 208.88 81.8093 208.587 82.1026 208.36C82.396 208.12 82.756 208 83.1826 208C83.636 208 84.0093 208.12 84.3026 208.36C84.596 208.587 84.7426 208.88 84.7426 209.24C84.7426 209.587 84.596 209.873 84.3026 210.1C84.0093 210.327 83.636 210.44 83.1826 210.44ZM86.5226 220.42V222H80.3026V220.42H82.4226V214.16H80.3026V212.58H84.3826V220.42H86.5226Z" fill="#424242"/>
<path d="M92.7543 222.28C91.8343 222.28 90.9743 222.073 90.1743 221.66C89.3743 221.247 88.7343 220.66 88.2543 219.9C87.7877 219.14 87.5543 218.273 87.5543 217.3C87.5543 216.313 87.7877 215.447 88.2543 214.7C88.7343 213.94 89.3743 213.353 90.1743 212.94C90.9743 212.527 91.8343 212.32 92.7543 212.32C93.661 212.32 94.5077 212.527 95.2943 212.94C96.0943 213.353 96.7343 213.94 97.2143 214.7C97.6943 215.46 97.9343 216.327 97.9343 217.3C97.9343 218.273 97.701 219.14 97.2343 219.9C96.7677 220.66 96.1343 221.247 95.3343 221.66C94.5477 222.073 93.6877 222.28 92.7543 222.28ZM92.7543 220.7C93.3543 220.7 93.8943 220.56 94.3743 220.28C94.8543 220 95.2277 219.607 95.4943 219.1C95.7743 218.58 95.9143 217.98 95.9143 217.3C95.9143 216.62 95.7743 216.027 95.4943 215.52C95.2277 215 94.8543 214.6 94.3743 214.32C93.8943 214.04 93.3543 213.9 92.7543 213.9C91.8343 213.9 91.0743 214.213 90.4743 214.84C89.8877 215.453 89.5943 216.273 89.5943 217.3C89.5943 218.327 89.8877 219.153 90.4743 219.78C91.0743 220.393 91.8343 220.7 92.7543 220.7Z" fill="#424242"/>
<path d="M114.675 220.84C113.835 221.8 112.862 222.28 111.755 222.28C110.595 222.28 109.615 221.86 108.815 221.02C108.029 220.18 107.389 218.887 106.895 217.14L106.575 216.14H103.715V220.34H106.235V222H99.0754V220.36H101.655V209.94H99.0754V208.28H107.035C108.595 208.28 109.829 208.633 110.735 209.34C111.642 210.047 112.095 211.007 112.095 212.22C112.095 213.22 111.769 214.067 111.115 214.76C110.475 215.44 109.569 215.867 108.395 216.04L108.755 217.02C109.169 218.193 109.629 219.047 110.135 219.58C110.642 220.113 111.215 220.38 111.855 220.38C112.255 220.38 112.595 220.3 112.875 220.14C113.155 219.98 113.415 219.767 113.655 219.5L114.675 220.84ZM103.715 214.58H107.095C107.949 214.58 108.655 214.373 109.215 213.96C109.775 213.533 110.055 212.953 110.055 212.22C110.055 211.513 109.775 210.96 109.215 210.56C108.669 210.147 107.962 209.94 107.095 209.94H103.715V214.58Z" fill="#424242"/>
<path d="M128.354 220.42V222H122.794V220.42H124.534V216.52C124.534 215.747 124.347 215.147 123.974 214.72C123.614 214.293 123.087 214.08 122.394 214.08C121.314 214.08 120.114 214.813 118.794 216.28V220.42H120.514V222H114.714V220.42H116.834V209.86H114.714V208.28H118.794V214.74C119.527 213.94 120.234 213.34 120.914 212.94C121.607 212.54 122.361 212.34 123.174 212.34C124.254 212.34 125.074 212.687 125.634 213.38C126.194 214.06 126.474 215.087 126.474 216.46V220.42H128.354Z" fill="#424242"/>
<path d="M140.942 214.16H139.462L135.502 223.04C134.942 224.28 134.309 225.207 133.602 225.82C132.909 226.447 132.096 226.76 131.162 226.76C130.642 226.76 130.169 226.673 129.742 226.5C129.329 226.34 128.876 226.1 128.382 225.78L129.182 224.28C129.862 224.773 130.522 225.02 131.162 225.02C131.736 225.02 132.249 224.833 132.702 224.46C133.156 224.1 133.556 223.52 133.902 222.72L134.042 222.4L130.002 214.16H128.442V212.58H133.722V214.02H132.102L134.942 220.34L137.722 214.02H136.182V212.58H140.942V214.16Z" fill="#424242"/>
<path d="M162.048 220.42V222H156.528V220.42H158.228V216.4C158.228 215.707 158.075 215.16 157.768 214.76C157.462 214.36 157.002 214.16 156.388 214.16C155.842 214.16 155.282 214.34 154.708 214.7C154.135 215.06 153.575 215.573 153.028 216.24V216.34V220.42H154.748V222H149.348V220.42H151.068V216.4C151.068 215.707 150.908 215.16 150.588 214.76C150.268 214.36 149.802 214.16 149.188 214.16C148.642 214.16 148.082 214.347 147.508 214.72C146.935 215.08 146.368 215.6 145.808 216.28V220.42H147.548V222H141.728V220.42H143.848V214.16H141.728V212.58H145.808V214.64C146.395 213.907 147.035 213.34 147.728 212.94C148.422 212.54 149.142 212.34 149.888 212.34C150.648 212.34 151.282 212.553 151.788 212.98C152.308 213.393 152.668 214.007 152.868 214.82C153.468 214.033 154.122 213.427 154.828 213C155.548 212.56 156.295 212.34 157.068 212.34C158.042 212.34 158.802 212.687 159.348 213.38C159.908 214.06 160.188 215.047 160.188 216.34V220.42H162.048Z" fill="#424242"/>
<path d="M172.643 220.6C171.363 221.72 169.903 222.28 168.263 222.28C167.369 222.28 166.523 222.093 165.723 221.72C164.923 221.347 164.276 220.8 163.783 220.08C163.289 219.36 163.043 218.507 163.043 217.52C163.043 216.467 163.296 215.547 163.803 214.76C164.309 213.973 164.969 213.373 165.783 212.96C166.596 212.533 167.449 212.32 168.343 212.32C169.129 212.32 169.829 212.447 170.443 212.7C171.069 212.953 171.556 213.307 171.903 213.76C172.263 214.213 172.443 214.733 172.443 215.32C172.443 216.2 172.063 216.887 171.303 217.38C170.556 217.86 169.656 218.1 168.603 218.1C167.923 218.1 167.289 218.033 166.703 217.9C166.116 217.753 165.523 217.547 164.923 217.28V217.46C164.923 218.087 165.069 218.64 165.363 219.12C165.669 219.6 166.076 219.967 166.583 220.22C167.089 220.473 167.643 220.6 168.243 220.6C169.603 220.6 170.789 220.173 171.803 219.32L172.643 220.6ZM168.483 213.88C167.763 213.88 167.089 214.087 166.463 214.5C165.849 214.913 165.409 215.473 165.143 216.18C166.156 216.54 167.169 216.72 168.183 216.72C168.849 216.72 169.396 216.6 169.823 216.36C170.263 216.107 170.483 215.76 170.483 215.32C170.483 214.893 170.296 214.547 169.923 214.28C169.549 214.013 169.069 213.88 168.483 213.88Z" fill="#424242"/>
</svg>
