<svg width="236" height="269" viewBox="0 0 236 269" fill="none" xmlns="http://www.w3.org/2000/svg">
<path d="M0 0H236V269H0V0Z" fill="#F5EDDD"/>
<path fill-rule="evenodd" clip-rule="evenodd" d="M232 4H4V265H232V4ZM0 0V269H236V0H0Z" fill="#424242"/>
<path d="M134.796 113.8L141.896 114.3C142.962 114.3 144.629 114.067 146.896 113.6C149.229 113.067 150.629 112.8 151.096 112.8C151.562 112.8 151.929 112.9 152.196 113.1C152.529 113.3 152.696 113.567 152.696 113.9C152.696 114.167 152.396 114.5 151.796 114.9C151.196 115.3 150.662 115.533 150.196 115.6C147.462 115.8 145.029 116.833 142.896 118.7L124.996 137.5L126.696 139.9C128.229 142.1 129.262 143.567 129.796 144.3C130.396 145.033 131.329 146.067 132.596 147.4C133.862 148.667 135.162 149.533 136.496 150C137.829 150.4 139.029 150.6 140.096 150.6C141.162 150.6 141.829 150.6 142.096 150.6C142.429 150.533 142.696 150.5 142.896 150.5C143.162 150.433 143.429 150.367 143.696 150.3C144.029 150.167 144.262 150.1 144.396 150.1C144.529 150.033 144.762 149.9 145.096 149.7C145.496 149.367 145.929 149.067 146.396 148.8C147.396 148.133 148.229 147.8 148.896 147.8C149.562 147.8 149.896 148.533 149.896 150C149.896 150.333 149.262 150.933 147.996 151.8C146.796 152.667 145.196 153.5 143.196 154.3C141.196 155.1 139.362 155.5 137.696 155.5C134.229 155.5 131.496 154.7 129.496 153.1C127.562 151.433 125.162 148.367 122.296 143.9L120.996 141.8C120.196 142.6 119.129 143.733 117.796 145.2C116.529 146.667 115.662 147.633 115.196 148.1C114.729 148.5 113.929 149.267 112.796 150.4C111.662 151.467 110.729 152.2 109.996 152.6C109.329 152.933 108.429 153.4 107.296 154C105.429 155 103.096 155.5 100.296 155.5C95.5623 155.5 91.4623 154.267 87.9957 151.8C84.529 149.267 82.7957 145.9 82.7957 141.7C82.7957 132.233 88.3957 124.933 99.5957 119.8L101.596 118.9L100.096 117.3C95.8957 113.1 93.7957 109.2 93.7957 105.6C93.7957 101.933 95.1623 99.1 97.8957 97.1C100.629 95.1 103.729 94.1 107.196 94.1C110.662 94.1 113.629 95.0666 116.096 97C118.562 98.8666 119.796 101.367 119.796 104.5C119.796 107.567 118.929 110.3 117.196 112.7C115.529 115.033 113.162 116.767 110.096 117.9L108.696 118.4L109.596 119.4C110.396 120.333 112.362 122.433 115.496 125.7C118.696 128.9 121.062 131.633 122.596 133.9L123.796 135.7L125.596 133.8C127.996 131.2 130.429 128.233 132.896 124.9C135.362 121.567 136.596 119.6 136.596 119C136.596 118.4 136.329 117.8 135.796 117.2C135.262 116.533 134.729 116.167 134.196 116.1C133.729 115.967 133.329 115.767 132.996 115.5C132.729 115.233 132.596 115.033 132.596 114.9C132.596 114.167 133.329 113.8 134.796 113.8ZM103.096 120.6L100.996 121.4C96.529 123.133 93.629 125.667 92.2957 129C91.2957 131.667 90.7957 134.633 90.7957 137.9C90.7957 141.167 91.929 143.833 94.1957 145.9C96.4623 147.967 99.229 149 102.496 149C105.762 149 108.662 148.367 111.196 147.1C113.729 145.767 116.296 143.7 118.896 140.9L119.796 140L118.596 138.1C116.862 135.433 114.262 132.333 110.796 128.8C107.396 125.2 105.229 122.9 104.296 121.9L103.096 120.6ZM106.996 116.4L108.296 115.8C111.962 114.133 113.796 110.433 113.796 104.7C113.796 102.767 113.129 101 111.796 99.4C110.462 97.7333 108.829 96.9 106.896 96.9C104.962 96.9 103.296 97.4666 101.896 98.6C100.496 99.6666 99.7957 101.033 99.7957 102.7C99.7957 105.967 101.696 109.967 105.496 114.7L106.996 116.4Z" fill="#424242"/>
<path d="M72.4455 215.26L72.4855 216.62C72.4855 216.847 72.4255 216.96 72.3055 216.96C72.0922 216.96 71.9388 216.807 71.8455 216.5C71.6455 215.9 71.3388 215.6 70.9255 215.6H69.0655C68.8122 215.6 68.6322 215.633 68.5255 215.7C68.4322 215.767 68.3855 215.907 68.3855 216.12V219.96C68.3855 220.453 68.4855 220.8 68.6855 221C68.8988 221.2 69.2388 221.3 69.7055 221.3H71.7855C72.4922 221.3 72.9855 221.193 73.2655 220.98C73.5455 220.753 73.8388 220.32 74.1455 219.68C74.2255 219.533 74.3322 219.473 74.4655 219.5C74.6122 219.513 74.6855 219.58 74.6855 219.7C74.6855 220.233 74.5722 220.92 74.3455 221.76C74.2922 221.987 74.1988 222.1 74.0655 222.1L67.5255 221.98L65.2255 222.1C64.8388 222.1 64.6455 222.027 64.6455 221.88C64.6455 221.72 64.8855 221.6 65.3655 221.52C65.8455 221.427 66.1988 221.273 66.4255 221.06C66.6655 220.833 66.7855 220.487 66.7855 220.02V211.02C66.7855 210.553 66.6855 210.22 66.4855 210.02C66.2988 209.807 65.9655 209.66 65.4855 209.58C65.0188 209.487 64.7855 209.347 64.7855 209.16C64.7855 209.013 64.9788 208.94 65.3655 208.94L68.9055 209L73.3455 208.94C73.5722 208.94 73.6922 209 73.7055 209.12C73.9055 210.2 74.0055 210.867 74.0055 211.12C74.0055 211.36 73.9122 211.48 73.7255 211.48C73.6188 211.48 73.5455 211.413 73.5055 211.28C73.3055 210.653 73.1588 210.287 73.0655 210.18C72.7455 209.82 72.2988 209.64 71.7255 209.64H69.1055C68.9722 209.64 68.8188 209.707 68.6455 209.84C68.4722 209.96 68.3855 210.107 68.3855 210.28V214.52C68.3855 214.64 68.4188 214.747 68.4855 214.84C68.5655 214.92 68.6522 214.96 68.7455 214.96H70.6655C71.2522 214.96 71.6588 214.7 71.8855 214.18C71.9122 214.127 71.9655 214.06 72.0455 213.98C72.1388 213.887 72.2055 213.84 72.2455 213.84C72.2988 213.84 72.3522 213.873 72.4055 213.94C72.4722 213.993 72.5055 214.067 72.5055 214.16L72.4455 215.26Z" fill="#424242"/>
<path d="M79.9686 214.58C80.8086 214.58 81.5486 214.387 82.1886 214C82.402 213.88 82.602 213.66 82.7886 213.34C82.9886 213.02 83.0886 212.553 83.0886 211.94C83.0886 211.327 82.8886 210.76 82.4886 210.24C82.0886 209.72 81.382 209.46 80.3686 209.46C79.8486 209.46 79.4953 209.533 79.3086 209.68C79.1353 209.813 79.0486 210.04 79.0486 210.36V213.84C79.0486 214.333 79.3553 214.58 79.9686 214.58ZM80.3486 222.08L78.4486 222C78.4486 222 77.582 222.033 75.8486 222.1C75.462 222.1 75.2686 222.027 75.2686 221.88C75.2686 221.72 75.5086 221.6 75.9886 221.52C76.482 221.427 76.8553 221.267 77.1086 221.04C77.362 220.813 77.4886 220.473 77.4886 220.02V211.02C77.4886 210.54 77.382 210.187 77.1686 209.96C76.9686 209.733 76.6353 209.6 76.1686 209.56C75.7153 209.52 75.4886 209.387 75.4886 209.16C75.4886 209.013 75.682 208.94 76.0686 208.94L78.1486 208.96L80.3686 208.86C81.8753 208.86 82.9886 209.093 83.7086 209.56C84.442 210.013 84.8086 210.773 84.8086 211.84C84.8086 212.667 84.582 213.307 84.1286 213.76C83.7286 214.133 83.282 214.42 82.7886 214.62C82.7353 214.647 82.7086 214.68 82.7086 214.72C82.7086 214.76 82.7353 214.793 82.7886 214.82C84.162 215.233 85.022 215.86 85.3686 216.7C85.542 217.1 85.6286 217.567 85.6286 218.1C85.6286 218.633 85.562 219.093 85.4286 219.48C85.3086 219.867 85.122 220.187 84.8686 220.44C84.6286 220.693 84.422 220.88 84.2486 221C83.2086 221.72 81.9086 222.08 80.3486 222.08ZM80.6286 221.26C81.4286 221.26 82.1486 220.967 82.7886 220.38C83.4286 219.78 83.7486 219.06 83.7486 218.22C83.7486 217.047 83.2553 216.187 82.2686 215.64C81.6686 215.307 80.9753 215.14 80.1886 215.14C79.802 215.14 79.5153 215.22 79.3286 215.38C79.142 215.527 79.0486 215.687 79.0486 215.86V219.84C79.0486 220.373 79.1753 220.747 79.4286 220.96C79.682 221.16 80.082 221.26 80.6286 221.26Z" fill="#424242"/>
<path d="M102.115 216.28L103.895 216.2C104.175 216.2 104.315 216.307 104.315 216.52C104.315 216.6 104.262 216.68 104.155 216.76C104.048 216.827 103.908 216.88 103.735 216.92C103.362 217.027 103.135 217.333 103.055 217.84C102.988 218.333 102.955 218.84 102.955 219.36V219.9C102.955 220.047 103.015 220.187 103.135 220.32C103.268 220.44 103.335 220.52 103.335 220.56C103.335 220.787 103.242 220.913 103.055 220.94C103.002 220.953 102.742 221.073 102.275 221.3C101.808 221.527 101.215 221.747 100.495 221.96C99.775 222.173 99.0417 222.28 98.295 222.28C96.415 222.28 94.7884 221.653 93.415 220.4C92.0417 219.147 91.355 217.573 91.355 215.68C91.355 213.787 92.075 212.16 93.515 210.8C94.9684 209.427 96.7017 208.74 98.715 208.74C99.275 208.74 100.102 208.84 101.195 209.04C102.302 209.227 102.862 209.387 102.875 209.52C103.022 210.547 103.095 211.2 103.095 211.48C103.095 211.933 102.995 212.16 102.795 212.16C102.608 212.16 102.448 211.973 102.315 211.6C102.182 211.213 102.002 210.887 101.775 210.62C101.548 210.34 101.155 210.087 100.595 209.86C100.048 209.62 99.3617 209.5 98.535 209.5C97.0284 209.5 95.7817 210.1 94.795 211.3C93.8217 212.487 93.335 213.94 93.335 215.66C93.335 217.38 93.855 218.793 94.895 219.9C95.935 220.993 97.1617 221.54 98.575 221.54C99.7084 221.54 100.495 221.32 100.935 220.88C101.388 220.427 101.615 219.887 101.615 219.26L101.655 218.1C101.655 217.78 101.622 217.58 101.555 217.5C101.408 217.3 101.115 217.147 100.675 217.04C100.235 216.933 99.9284 216.88 99.755 216.88C99.5817 216.88 99.4417 216.847 99.335 216.78C99.2417 216.713 99.195 216.633 99.195 216.54C99.195 216.447 99.2417 216.367 99.335 216.3C99.4417 216.233 99.5284 216.2 99.595 216.2L102.115 216.28Z" fill="#424242"/>
<path d="M107.325 220.26C107.325 220.607 107.432 220.88 107.645 221.08C107.859 221.267 108.119 221.36 108.425 221.36C108.732 221.36 109.092 221.18 109.505 220.82C109.652 220.7 109.732 220.433 109.745 220.02L109.785 219.04C109.799 218.76 109.739 218.62 109.605 218.62C109.512 218.62 109.419 218.64 109.325 218.68C107.992 219.133 107.325 219.66 107.325 220.26ZM107.345 215.72L107.365 216C107.365 216.12 107.172 216.267 106.785 216.44C106.412 216.613 106.159 216.7 106.025 216.7C105.892 216.7 105.825 216.64 105.825 216.52C105.825 216.067 106.052 215.64 106.505 215.24C106.972 214.827 107.485 214.473 108.045 214.18C108.605 213.873 109.119 213.72 109.585 213.72C110.065 213.72 110.465 213.893 110.785 214.24C111.105 214.587 111.259 215.007 111.245 215.5L111.145 219.82V219.94C111.145 220.887 111.385 221.36 111.865 221.36C112.199 221.36 112.465 221.267 112.665 221.08C112.719 221.027 112.785 221.027 112.865 221.08C112.945 221.12 112.985 221.18 112.985 221.26V221.28C112.905 221.453 112.699 221.667 112.365 221.92C112.032 222.16 111.699 222.28 111.365 222.28C111.045 222.28 110.772 222.193 110.545 222.02C110.332 221.847 110.179 221.673 110.085 221.5C109.992 221.327 109.932 221.24 109.905 221.24C109.852 221.24 109.732 221.327 109.545 221.5C109.359 221.673 109.079 221.847 108.705 222.02C108.345 222.193 107.939 222.28 107.485 222.28C107.045 222.28 106.639 222.113 106.265 221.78C105.905 221.447 105.725 221.087 105.725 220.7C105.725 219.9 106.212 219.3 107.185 218.9L109.225 218.06C109.479 217.953 109.632 217.86 109.685 217.78C109.739 217.7 109.772 217.527 109.785 217.26L109.825 216.02V215.98C109.825 215.633 109.712 215.333 109.485 215.08C109.272 214.827 109.019 214.7 108.725 214.7C108.445 214.7 108.179 214.773 107.925 214.92C107.672 215.053 107.512 215.18 107.445 215.3C107.379 215.42 107.345 215.56 107.345 215.72Z" fill="#424242"/>
<path d="M115.614 221.96L113.994 222.06C113.727 222.06 113.594 222 113.594 221.88C113.594 221.747 113.714 221.64 113.954 221.56C114.194 221.48 114.354 221.427 114.434 221.4C114.514 221.36 114.594 221.287 114.674 221.18C114.767 221.073 114.814 220.933 114.814 220.76V216.46C114.814 215.62 114.54 215.14 113.994 215.02C113.887 214.993 113.834 214.913 113.834 214.78C113.834 214.633 113.88 214.547 113.974 214.52C114.48 214.413 114.854 214.28 115.094 214.12C115.547 213.827 115.847 213.64 115.994 213.56C116.14 213.467 116.214 213.42 116.214 213.42C116.214 213.407 116.227 213.4 116.254 213.4C116.294 213.4 116.327 213.447 116.354 213.54C116.354 213.9 116.34 214.247 116.314 214.58C116.3 214.913 116.3 215.08 116.314 215.08C116.34 215.08 116.38 215.047 116.434 214.98C116.62 214.753 116.74 214.62 116.794 214.58C117.434 214.007 118.047 213.72 118.634 213.72C118.914 213.72 119.14 213.78 119.314 213.9C119.5 214.02 119.594 214.18 119.594 214.38C119.594 214.58 119.507 214.8 119.334 215.04C119.174 215.28 119.02 215.4 118.874 215.4C118.727 215.4 118.514 215.34 118.234 215.22C117.954 215.1 117.747 215.04 117.614 215.04C117.227 215.04 116.894 215.167 116.614 215.42C116.347 215.673 116.214 216.107 116.214 216.72V220.66C116.227 221.02 116.587 221.307 117.294 221.52C117.6 221.627 117.754 221.747 117.754 221.88C117.754 222 117.62 222.06 117.354 222.06L115.614 221.96Z" fill="#424242"/>
<path d="M121.993 220.26C121.993 220.607 122.1 220.88 122.313 221.08C122.527 221.267 122.787 221.36 123.093 221.36C123.4 221.36 123.76 221.18 124.173 220.82C124.32 220.7 124.4 220.433 124.413 220.02L124.453 219.04C124.467 218.76 124.407 218.62 124.273 218.62C124.18 218.62 124.087 218.64 123.993 218.68C122.66 219.133 121.993 219.66 121.993 220.26ZM122.013 215.72L122.033 216C122.033 216.12 121.84 216.267 121.453 216.44C121.08 216.613 120.827 216.7 120.693 216.7C120.56 216.7 120.493 216.64 120.493 216.52C120.493 216.067 120.72 215.64 121.173 215.24C121.64 214.827 122.153 214.473 122.713 214.18C123.273 213.873 123.787 213.72 124.253 213.72C124.733 213.72 125.133 213.893 125.453 214.24C125.773 214.587 125.927 215.007 125.913 215.5L125.813 219.82V219.94C125.813 220.887 126.053 221.36 126.533 221.36C126.867 221.36 127.133 221.267 127.333 221.08C127.387 221.027 127.453 221.027 127.533 221.08C127.613 221.12 127.653 221.18 127.653 221.26V221.28C127.573 221.453 127.367 221.667 127.033 221.92C126.7 222.16 126.367 222.28 126.033 222.28C125.713 222.28 125.44 222.193 125.213 222.02C125 221.847 124.847 221.673 124.753 221.5C124.66 221.327 124.6 221.24 124.573 221.24C124.52 221.24 124.4 221.327 124.213 221.5C124.027 221.673 123.747 221.847 123.373 222.02C123.013 222.193 122.607 222.28 122.153 222.28C121.713 222.28 121.307 222.113 120.933 221.78C120.573 221.447 120.393 221.087 120.393 220.7C120.393 219.9 120.88 219.3 121.853 218.9L123.893 218.06C124.147 217.953 124.3 217.86 124.353 217.78C124.407 217.7 124.44 217.527 124.453 217.26L124.493 216.02V215.98C124.493 215.633 124.38 215.333 124.153 215.08C123.94 214.827 123.687 214.7 123.393 214.7C123.113 214.7 122.847 214.773 122.593 214.92C122.34 215.053 122.18 215.18 122.113 215.3C122.047 215.42 122.013 215.56 122.013 215.72Z" fill="#424242"/>
<path d="M131.042 213.54L130.942 214.82C130.942 214.953 130.955 215.033 130.982 215.06C131.942 214.167 132.995 213.72 134.142 213.72C135.075 213.72 135.695 214.12 136.002 214.92C136.068 215.067 136.135 215.14 136.202 215.14C136.282 215.14 136.428 215.02 136.642 214.78C136.855 214.527 137.228 214.287 137.762 214.06C138.295 213.833 138.862 213.72 139.462 213.72C140.075 213.72 140.562 214 140.922 214.56C141.282 215.107 141.462 215.753 141.462 216.5V220.76C141.462 221.027 141.542 221.2 141.702 221.28C141.875 221.36 142.095 221.447 142.362 221.54C142.642 221.633 142.782 221.747 142.782 221.88C142.782 222 142.648 222.06 142.382 222.06L140.802 221.96L139.142 222.06C138.875 222.06 138.742 222 138.742 221.88C138.742 221.747 138.895 221.627 139.202 221.52C139.215 221.52 139.242 221.513 139.282 221.5C139.722 221.367 139.975 221.187 140.042 220.96C140.055 220.893 140.062 220.827 140.062 220.76V216.56C140.062 216.067 139.902 215.627 139.582 215.24C139.262 214.853 138.888 214.66 138.462 214.66C137.755 214.66 137.195 214.82 136.782 215.14C136.368 215.46 136.162 215.96 136.162 216.64V220.76C136.162 220.907 136.182 221.007 136.222 221.06C136.262 221.1 136.288 221.14 136.302 221.18C136.315 221.207 136.348 221.233 136.402 221.26C136.455 221.287 136.488 221.313 136.502 221.34C136.528 221.353 136.575 221.373 136.642 221.4C136.722 221.413 136.768 221.427 136.782 221.44C136.902 221.493 136.995 221.52 137.062 221.52C137.368 221.627 137.522 221.747 137.522 221.88C137.522 222 137.388 222.06 137.122 222.06L135.482 221.96L133.822 222.06C133.555 222.06 133.422 222 133.422 221.88C133.422 221.747 133.608 221.62 133.982 221.5C134.355 221.38 134.575 221.26 134.642 221.14C134.722 221.007 134.762 220.88 134.762 220.76V216.56C134.762 216.067 134.602 215.627 134.282 215.24C133.962 214.853 133.588 214.66 133.162 214.66C132.455 214.66 131.895 214.82 131.482 215.14C131.082 215.447 130.882 215.947 130.882 216.64V220.76C130.882 221.013 130.955 221.187 131.102 221.28C131.262 221.36 131.368 221.407 131.422 221.42C131.942 221.553 132.202 221.707 132.202 221.88C132.202 222 132.068 222.06 131.802 222.06L130.182 221.96L128.562 222.06C128.295 222.06 128.162 222 128.162 221.88C128.162 221.747 128.268 221.647 128.482 221.58C128.708 221.5 128.835 221.46 128.862 221.46C128.902 221.447 128.975 221.413 129.082 221.36C129.188 221.307 129.255 221.26 129.282 221.22C129.415 221.073 129.482 220.92 129.482 220.76V216.46C129.482 216.047 129.428 215.72 129.322 215.48C129.215 215.24 129.008 215.087 128.702 215.02C128.595 214.993 128.542 214.913 128.542 214.78C128.542 214.633 128.588 214.547 128.682 214.52C129.295 214.373 129.928 214.067 130.582 213.6C130.742 213.493 130.842 213.433 130.882 213.42C130.922 213.407 130.975 213.447 131.042 213.54Z" fill="#424242"/>
<path d="M147.988 214.34C146.388 214.34 145.588 215.493 145.588 217.8C145.588 218.827 145.855 219.733 146.388 220.52C146.921 221.293 147.575 221.68 148.348 221.68C149.348 221.68 150.035 221.313 150.408 220.58C150.675 220.06 150.808 219.287 150.808 218.26C150.808 217.233 150.541 216.327 150.008 215.54C149.475 214.74 148.801 214.34 147.988 214.34ZM143.948 218.28C143.948 217.12 144.375 216.073 145.228 215.14C146.095 214.193 147.115 213.72 148.288 213.72C149.461 213.72 150.448 214.12 151.248 214.92C152.048 215.707 152.448 216.687 152.448 217.86C152.448 219.033 152.048 220.067 151.248 220.96C150.461 221.84 149.355 222.28 147.928 222.28C146.795 222.28 145.848 221.9 145.088 221.14C144.328 220.38 143.948 219.427 143.948 218.28Z" fill="#424242"/>
<path d="M161.25 221.96L159.61 222.06C159.344 222.06 159.21 222 159.21 221.88C159.21 221.747 159.364 221.627 159.67 221.52C159.684 221.52 159.71 221.513 159.75 221.5C160.19 221.367 160.444 221.187 160.51 220.96C160.524 220.893 160.53 220.827 160.53 220.76V216.56C160.53 215.987 160.364 215.533 160.03 215.2C159.697 214.867 159.204 214.7 158.55 214.7C157.91 214.7 157.384 214.84 156.97 215.12C156.557 215.4 156.35 215.907 156.35 216.64V220.76C156.35 221.027 156.43 221.2 156.59 221.28C156.764 221.36 156.984 221.447 157.25 221.54C157.53 221.633 157.67 221.747 157.67 221.88C157.67 222 157.537 222.06 157.27 222.06L155.65 221.96L154.03 222.06C153.764 222.06 153.63 222 153.63 221.88C153.63 221.747 153.737 221.647 153.95 221.58C154.177 221.5 154.304 221.46 154.33 221.46C154.37 221.447 154.444 221.413 154.55 221.36C154.657 221.307 154.724 221.26 154.75 221.22C154.884 221.073 154.95 220.92 154.95 220.76V216.46C154.95 215.607 154.677 215.127 154.13 215.02C154.024 214.993 153.97 214.907 153.97 214.76C153.97 214.613 154.017 214.533 154.11 214.52C154.804 214.36 155.537 213.993 156.31 213.42C156.324 213.407 156.344 213.4 156.37 213.4C156.41 213.4 156.45 213.46 156.49 213.58L156.35 214.88C156.35 214.973 156.357 215.027 156.37 215.04C156.744 214.733 157.244 214.44 157.87 214.16C158.51 213.867 159.13 213.72 159.73 213.72C160.33 213.72 160.844 213.987 161.27 214.52C161.71 215.053 161.93 215.713 161.93 216.5V220.76C161.93 221.027 162.01 221.2 162.17 221.28C162.344 221.36 162.564 221.447 162.83 221.54C163.11 221.633 163.25 221.747 163.25 221.88C163.25 222 163.117 222.06 162.85 222.06L161.25 221.96Z" fill="#424242"/>
<path d="M170.617 222.3L170.717 220.98V220.86C170.477 221.233 170.131 221.567 169.677 221.86C169.224 222.14 168.697 222.28 168.097 222.28C167.004 222.28 166.111 221.867 165.417 221.04C164.737 220.213 164.397 219.233 164.397 218.1C164.397 216.953 164.811 215.94 165.637 215.06C166.464 214.167 167.551 213.72 168.897 213.72C169.164 213.72 169.471 213.773 169.817 213.88C170.177 213.973 170.397 214.073 170.477 214.18C170.557 214.273 170.617 214.32 170.657 214.32C170.711 214.32 170.737 214.16 170.737 213.84V210.68C170.737 210.173 170.657 209.827 170.497 209.64C170.351 209.44 170.091 209.3 169.717 209.22C169.611 209.193 169.557 209.107 169.557 208.96C169.557 208.813 169.604 208.733 169.697 208.72C170.217 208.6 170.737 208.44 171.257 208.24C171.777 208.027 172.071 207.92 172.137 207.92C172.217 207.92 172.257 207.953 172.257 208.02C172.271 208.073 172.271 208.2 172.257 208.4C172.177 209.16 172.137 209.947 172.137 210.76V219.8C172.137 220.667 172.277 221.1 172.557 221.1C172.971 221.1 173.277 221.08 173.477 221.04C173.677 221 173.777 221.08 173.777 221.28C173.777 221.48 173.684 221.58 173.497 221.58C172.804 221.673 172.197 221.827 171.677 222.04C171.171 222.267 170.864 222.38 170.757 222.38C170.664 222.38 170.617 222.353 170.617 222.3ZM168.277 214.42C167.797 214.42 167.304 214.633 166.797 215.06C166.531 215.287 166.311 215.633 166.137 216.1C165.964 216.567 165.877 217.133 165.877 217.8C165.877 218.467 165.984 219.06 166.197 219.58C166.424 220.087 166.704 220.46 167.037 220.7C167.664 221.153 168.257 221.38 168.817 221.38C169.377 221.38 169.837 221.207 170.197 220.86C170.557 220.513 170.737 220.093 170.737 219.6V216.9C170.737 216.287 170.511 215.72 170.057 215.2C169.604 214.68 169.011 214.42 168.277 214.42Z" fill="#424242"/>
</svg>
