<svg width="236" height="269" viewBox="0 0 236 269" fill="none" xmlns="http://www.w3.org/2000/svg">
<path d="M0 0H236V269H0V0Z" fill="#F5EDDD"/>
<path fill-rule="evenodd" clip-rule="evenodd" d="M232 4H4V265H232V4ZM0 0V269H236V0H0Z" fill="#424242"/>
<path d="M114.506 111.1C113.706 110.1 112.906 109.1 112.106 108.1C111.306 107.1 110.573 106.1 109.906 105.1C109.239 104.033 108.673 102.967 108.206 101.9C107.806 100.833 107.606 99.7666 107.606 98.7C107.606 96.1 108.473 94.2 110.206 93C111.939 91.7333 113.806 91.1 115.806 91.1C118.339 91.1 120.339 91.8666 121.806 93.4C123.273 94.8666 124.006 96.6333 124.006 98.7C124.006 100.233 123.706 101.633 123.106 102.9C122.506 104.1 121.739 105.2 120.806 106.2C119.873 107.2 118.839 108.1 117.706 108.9C116.573 109.7 115.506 110.433 114.506 111.1ZM132.806 146.1L140.406 155H151.506L137.606 138.9C138.339 137.3 138.973 135.9 139.506 134.7C140.039 133.433 140.473 132.167 140.806 130.9C141.206 129.633 141.506 128.267 141.706 126.8C141.973 125.267 142.206 123.433 142.406 121.3H134.306C134.106 124.967 133.339 128.667 132.006 132.4L119.106 116.7C120.839 115.7 122.506 114.6 124.106 113.4C125.706 112.133 127.139 110.733 128.406 109.2C129.673 107.667 130.673 106 131.406 104.2C132.139 102.333 132.506 100.333 132.506 98.2C132.506 95.8 132.006 93.7 131.006 91.9C130.073 90.0333 128.806 88.5 127.206 87.3C125.606 86.0333 123.739 85.1 121.606 84.5C119.539 83.9 117.406 83.6 115.206 83.6C112.606 83.6 110.306 84 108.306 84.8C106.306 85.6 104.606 86.7 103.206 88.1C101.873 89.4333 100.839 91 100.106 92.8C99.4392 94.5333 99.1059 96.3666 99.1059 98.3C99.1059 100.1 99.3059 101.733 99.7059 103.2C100.173 104.6 100.773 105.967 101.506 107.3C102.306 108.567 103.173 109.833 104.106 111.1C105.039 112.367 106.006 113.7 107.006 115.1C104.739 116.3 102.573 117.6 100.506 119C98.5059 120.333 96.7392 121.867 95.2059 123.6C93.7392 125.267 92.5392 127.167 91.6059 129.3C90.7392 131.433 90.3059 133.9 90.3059 136.7C90.3059 138.167 90.5392 140 91.0059 142.2C91.5392 144.4 92.6059 146.533 94.2059 148.6C95.8059 150.667 98.0726 152.433 101.006 153.9C103.939 155.367 107.806 156.1 112.606 156.1C116.539 156.1 120.339 155.267 124.006 153.6C127.739 151.933 130.673 149.433 132.806 146.1ZM111.706 120.5L128.106 140.2C126.373 142.8 124.206 144.867 121.606 146.4C119.073 147.933 116.173 148.7 112.906 148.7C111.173 148.7 109.473 148.4 107.806 147.8C106.206 147.2 104.773 146.4 103.506 145.4C102.239 144.333 101.206 143.067 100.406 141.6C99.6726 140.067 99.3059 138.4 99.3059 136.6C99.3059 134.467 99.6392 132.633 100.306 131.1C100.973 129.5 101.873 128.067 103.006 126.8C104.139 125.533 105.439 124.4 106.906 123.4C108.439 122.4 110.039 121.433 111.706 120.5Z" fill="#424242"/>
<path d="M52.9722 207.72V222H54.8722V215.46H62.3922V222H64.2922V207.72H62.3922V213.86H54.8722V207.72H52.9722Z" fill="#424242"/>
<path d="M74.3058 215.84H68.3658C68.3924 215.44 68.4791 215.067 68.6258 214.72C68.7724 214.36 68.9724 214.047 69.2258 213.78C69.4791 213.513 69.7791 213.307 70.1258 213.16C70.4858 213 70.8858 212.92 71.3258 212.92C71.7524 212.92 72.1391 213 72.4858 213.16C72.8458 213.307 73.1524 213.513 73.4058 213.78C73.6724 214.033 73.8791 214.34 74.0258 214.7C74.1858 215.06 74.2791 215.44 74.3058 215.84ZM75.9458 218.72H74.2658C74.1191 219.4 73.8124 219.907 73.3458 220.24C72.8924 220.573 72.3058 220.74 71.5858 220.74C71.0258 220.74 70.5391 220.647 70.1258 220.46C69.7124 220.273 69.3724 220.027 69.1058 219.72C68.8391 219.4 68.6458 219.04 68.5258 218.64C68.4058 218.227 68.3524 217.793 68.3658 217.34H76.1058C76.1324 216.713 76.0724 216.053 75.9258 215.36C75.7924 214.667 75.5391 214.027 75.1658 213.44C74.8058 212.853 74.3191 212.373 73.7058 212C73.1058 211.613 72.3458 211.42 71.4258 211.42C70.7191 211.42 70.0658 211.553 69.4658 211.82C68.8791 212.087 68.3658 212.46 67.9258 212.94C67.4991 213.42 67.1658 213.987 66.9258 214.64C66.6858 215.293 66.5658 216.013 66.5658 216.8C66.5924 217.587 66.7058 218.313 66.9058 218.98C67.1191 219.647 67.4324 220.22 67.8458 220.7C68.2591 221.18 68.7658 221.553 69.3658 221.82C69.9791 222.087 70.6991 222.22 71.5258 222.22C72.6991 222.22 73.6724 221.927 74.4458 221.34C75.2191 220.753 75.7191 219.88 75.9458 218.72Z" fill="#424242"/>
<path d="M77.968 207.72V222H79.668V207.72H77.968Z" fill="#424242"/>
<path d="M86.9615 222L90.7415 211.66H88.9615L86.1415 220.28H86.1015L83.2015 211.66H81.3015L85.1415 222H86.9615Z" fill="#424242"/>
<path d="M99.4815 215.84H93.5415C93.5682 215.44 93.6549 215.067 93.8015 214.72C93.9482 214.36 94.1482 214.047 94.4015 213.78C94.6549 213.513 94.9549 213.307 95.3015 213.16C95.6615 213 96.0615 212.92 96.5015 212.92C96.9282 212.92 97.3149 213 97.6615 213.16C98.0215 213.307 98.3282 213.513 98.5815 213.78C98.8482 214.033 99.0549 214.34 99.2015 214.7C99.3615 215.06 99.4549 215.44 99.4815 215.84ZM101.122 218.72H99.4415C99.2949 219.4 98.9882 219.907 98.5215 220.24C98.0682 220.573 97.4815 220.74 96.7615 220.74C96.2015 220.74 95.7149 220.647 95.3015 220.46C94.8882 220.273 94.5482 220.027 94.2815 219.72C94.0149 219.4 93.8215 219.04 93.7015 218.64C93.5815 218.227 93.5282 217.793 93.5415 217.34H101.282C101.308 216.713 101.248 216.053 101.102 215.36C100.968 214.667 100.715 214.027 100.342 213.44C99.9815 212.853 99.4949 212.373 98.8815 212C98.2815 211.613 97.5215 211.42 96.6015 211.42C95.8949 211.42 95.2415 211.553 94.6415 211.82C94.0549 212.087 93.5415 212.46 93.1015 212.94C92.6749 213.42 92.3415 213.987 92.1015 214.64C91.8615 215.293 91.7415 216.013 91.7415 216.8C91.7682 217.587 91.8815 218.313 92.0815 218.98C92.2949 219.647 92.6082 220.22 93.0215 220.7C93.4349 221.18 93.9415 221.553 94.5415 221.82C95.1549 222.087 95.8749 222.22 96.7015 222.22C97.8749 222.22 98.8482 221.927 99.6215 221.34C100.395 220.753 100.895 219.88 101.122 218.72Z" fill="#424242"/>
<path d="M105.404 211.66V208.56H103.704V211.66H101.944V213.16H103.704V219.74C103.704 220.22 103.75 220.607 103.844 220.9C103.937 221.193 104.077 221.42 104.264 221.58C104.464 221.74 104.717 221.853 105.024 221.92C105.344 221.973 105.724 222 106.164 222H107.464V220.5H106.684C106.417 220.5 106.197 220.493 106.024 220.48C105.864 220.453 105.737 220.407 105.644 220.34C105.55 220.273 105.484 220.18 105.444 220.06C105.417 219.94 105.404 219.78 105.404 219.58V213.16H107.464V211.66H105.404Z" fill="#424242"/>
<path d="M111.152 209.8V207.72H109.452V209.8H111.152ZM109.452 211.66V222H111.152V211.66H109.452Z" fill="#424242"/>
<path d="M120.806 214.98H122.566C122.499 214.367 122.339 213.84 122.086 213.4C121.833 212.947 121.506 212.573 121.106 212.28C120.719 211.987 120.266 211.773 119.746 211.64C119.239 211.493 118.693 211.42 118.106 211.42C117.293 211.42 116.579 211.567 115.966 211.86C115.353 212.14 114.839 212.533 114.426 213.04C114.026 213.533 113.726 214.12 113.526 214.8C113.326 215.467 113.226 216.187 113.226 216.96C113.226 217.733 113.326 218.447 113.526 219.1C113.739 219.74 114.046 220.293 114.446 220.76C114.859 221.227 115.366 221.587 115.966 221.84C116.579 222.093 117.279 222.22 118.066 222.22C119.386 222.22 120.426 221.873 121.186 221.18C121.959 220.487 122.439 219.5 122.626 218.22H120.886C120.779 219.02 120.486 219.64 120.006 220.08C119.539 220.52 118.886 220.74 118.046 220.74C117.513 220.74 117.053 220.633 116.666 220.42C116.279 220.207 115.966 219.927 115.726 219.58C115.486 219.22 115.306 218.813 115.186 218.36C115.079 217.907 115.026 217.44 115.026 216.96C115.026 216.44 115.079 215.94 115.186 215.46C115.293 214.967 115.466 214.533 115.706 214.16C115.959 213.787 116.293 213.487 116.706 213.26C117.119 213.033 117.633 212.92 118.246 212.92C118.966 212.92 119.539 213.1 119.966 213.46C120.393 213.82 120.673 214.327 120.806 214.98Z" fill="#424242"/>
<path d="M133.688 221.96C133.395 222.133 132.988 222.22 132.468 222.22C132.028 222.22 131.675 222.1 131.408 221.86C131.155 221.607 131.028 221.2 131.028 220.64C130.561 221.2 130.015 221.607 129.388 221.86C128.775 222.1 128.108 222.22 127.388 222.22C126.921 222.22 126.475 222.167 126.048 222.06C125.635 221.953 125.275 221.787 124.968 221.56C124.661 221.333 124.415 221.04 124.228 220.68C124.055 220.307 123.968 219.86 123.968 219.34C123.968 218.753 124.068 218.273 124.268 217.9C124.468 217.527 124.728 217.227 125.048 217C125.381 216.76 125.755 216.58 126.168 216.46C126.595 216.34 127.028 216.24 127.468 216.16C127.935 216.067 128.375 216 128.788 215.96C129.215 215.907 129.588 215.84 129.908 215.76C130.228 215.667 130.481 215.54 130.668 215.38C130.855 215.207 130.948 214.96 130.948 214.64C130.948 214.267 130.875 213.967 130.728 213.74C130.595 213.513 130.415 213.34 130.188 213.22C129.975 213.1 129.728 213.02 129.448 212.98C129.181 212.94 128.915 212.92 128.648 212.92C127.928 212.92 127.328 213.06 126.848 213.34C126.368 213.607 126.108 214.12 126.068 214.88H124.368C124.395 214.24 124.528 213.7 124.768 213.26C125.008 212.82 125.328 212.467 125.728 212.2C126.128 211.92 126.581 211.72 127.088 211.6C127.608 211.48 128.161 211.42 128.748 211.42C129.215 211.42 129.675 211.453 130.128 211.52C130.595 211.587 131.015 211.727 131.388 211.94C131.761 212.14 132.061 212.427 132.288 212.8C132.515 213.173 132.628 213.66 132.628 214.26V219.58C132.628 219.98 132.648 220.273 132.688 220.46C132.741 220.647 132.901 220.74 133.168 220.74C133.315 220.74 133.488 220.707 133.688 220.64V221.96ZM130.928 216.66C130.715 216.82 130.435 216.94 130.088 217.02C129.741 217.087 129.375 217.147 128.988 217.2C128.615 217.24 128.235 217.293 127.848 217.36C127.461 217.413 127.115 217.507 126.808 217.64C126.501 217.773 126.248 217.967 126.048 218.22C125.861 218.46 125.768 218.793 125.768 219.22C125.768 219.5 125.821 219.74 125.928 219.94C126.048 220.127 126.195 220.28 126.368 220.4C126.555 220.52 126.768 220.607 127.008 220.66C127.248 220.713 127.501 220.74 127.768 220.74C128.328 220.74 128.808 220.667 129.208 220.52C129.608 220.36 129.935 220.167 130.188 219.94C130.441 219.7 130.628 219.447 130.748 219.18C130.868 218.9 130.928 218.64 130.928 218.4V216.66Z" fill="#424242"/>
<path d="M141.097 207.72V222H142.897V210.54H142.937L150.397 222H152.477V207.72H150.677V219.3H150.637L143.117 207.72H141.097Z" fill="#424242"/>
<path d="M162.45 215.84H156.51C156.537 215.44 156.624 215.067 156.77 214.72C156.917 214.36 157.117 214.047 157.37 213.78C157.624 213.513 157.924 213.307 158.27 213.16C158.63 213 159.03 212.92 159.47 212.92C159.897 212.92 160.284 213 160.63 213.16C160.99 213.307 161.297 213.513 161.55 213.78C161.817 214.033 162.024 214.34 162.17 214.7C162.33 215.06 162.424 215.44 162.45 215.84ZM164.09 218.72H162.41C162.264 219.4 161.957 219.907 161.49 220.24C161.037 220.573 160.45 220.74 159.73 220.74C159.17 220.74 158.684 220.647 158.27 220.46C157.857 220.273 157.517 220.027 157.25 219.72C156.984 219.4 156.79 219.04 156.67 218.64C156.55 218.227 156.497 217.793 156.51 217.34H164.25C164.277 216.713 164.217 216.053 164.07 215.36C163.937 214.667 163.684 214.027 163.31 213.44C162.95 212.853 162.464 212.373 161.85 212C161.25 211.613 160.49 211.42 159.57 211.42C158.864 211.42 158.21 211.553 157.61 211.82C157.024 212.087 156.51 212.46 156.07 212.94C155.644 213.42 155.31 213.987 155.07 214.64C154.83 215.293 154.71 216.013 154.71 216.8C154.737 217.587 154.85 218.313 155.05 218.98C155.264 219.647 155.577 220.22 155.99 220.7C156.404 221.18 156.91 221.553 157.51 221.82C158.124 222.087 158.844 222.22 159.67 222.22C160.844 222.22 161.817 221.927 162.59 221.34C163.364 220.753 163.864 219.88 164.09 218.72Z" fill="#424242"/>
<path d="M174.572 222V211.66H172.872V217.5C172.872 217.967 172.806 218.4 172.672 218.8C172.552 219.187 172.366 219.527 172.112 219.82C171.859 220.113 171.539 220.34 171.152 220.5C170.779 220.66 170.332 220.74 169.812 220.74C169.159 220.74 168.646 220.553 168.272 220.18C167.899 219.807 167.712 219.3 167.712 218.66V211.66H166.012V218.46C166.012 219.02 166.066 219.533 166.172 220C166.292 220.453 166.492 220.847 166.772 221.18C167.052 221.513 167.419 221.773 167.872 221.96C168.326 222.133 168.892 222.22 169.572 222.22C170.332 222.22 170.992 222.073 171.552 221.78C172.112 221.473 172.572 221 172.932 220.36H172.972V222H174.572Z" fill="#424242"/>
<path d="M184.306 215.84H178.366C178.392 215.44 178.479 215.067 178.626 214.72C178.772 214.36 178.972 214.047 179.226 213.78C179.479 213.513 179.779 213.307 180.126 213.16C180.486 213 180.886 212.92 181.326 212.92C181.752 212.92 182.139 213 182.486 213.16C182.846 213.307 183.152 213.513 183.406 213.78C183.672 214.033 183.879 214.34 184.026 214.7C184.186 215.06 184.279 215.44 184.306 215.84ZM185.946 218.72H184.266C184.119 219.4 183.812 219.907 183.346 220.24C182.892 220.573 182.306 220.74 181.586 220.74C181.026 220.74 180.539 220.647 180.126 220.46C179.712 220.273 179.372 220.027 179.106 219.72C178.839 219.4 178.646 219.04 178.526 218.64C178.406 218.227 178.352 217.793 178.366 217.34H186.106C186.132 216.713 186.072 216.053 185.926 215.36C185.792 214.667 185.539 214.027 185.166 213.44C184.806 212.853 184.319 212.373 183.706 212C183.106 211.613 182.346 211.42 181.426 211.42C180.719 211.42 180.066 211.553 179.466 211.82C178.879 212.087 178.366 212.46 177.926 212.94C177.499 213.42 177.166 213.987 176.926 214.64C176.686 215.293 176.566 216.013 176.566 216.8C176.592 217.587 176.706 218.313 176.906 218.98C177.119 219.647 177.432 220.22 177.846 220.7C178.259 221.18 178.766 221.553 179.366 221.82C179.979 222.087 180.699 222.22 181.526 222.22C182.699 222.22 183.672 221.927 184.446 221.34C185.219 220.753 185.719 219.88 185.946 218.72Z" fill="#424242"/>
</svg>
