<svg width="78" height="27" viewBox="0 0 78 27" fill="none" xmlns="http://www.w3.org/2000/svg">
<path d="M25.0684 1.03435H26.1976V1.11262C26.1529 1.15734 26.1231 1.20579 26.1082 1.25797C26.1007 1.31014 26.097 1.39959 26.097 1.52631V3.93017L33.0962 3.93017V1.03435H34.2254V1.11262C34.1807 1.15734 34.1509 1.20579 34.136 1.25797C34.1285 1.31014 34.1248 1.39959 34.1248 1.52631V7.99998H33.0962V4.75755H26.097V7.99998H25.0684V1.03435Z" fill="#424242"/>
<path d="M36.9871 7.99998V7.1726H40.1177V1.86173H37.1436V1.03435L44.1651 1.03435V1.86173L41.1463 1.86173V7.18378H44.2993V7.99998H36.9871Z" fill="#424242"/>
<path d="M52.5731 8.11179C51.4625 8.11179 50.5046 7.96644 49.6996 7.67574C48.8946 7.38504 48.2722 6.97507 47.8324 6.44585C47.4001 5.91663 47.184 5.30168 47.184 4.60102C47.169 3.99726 47.2771 3.48667 47.5082 3.06925C47.7393 2.64438 48.0486 2.29405 48.4362 2.01826C48.8313 1.74247 49.2636 1.52631 49.7332 1.36977C50.2102 1.21324 50.6873 1.10516 51.1643 1.04553C51.6488 0.985901 52.096 0.956085 52.506 0.956085C53.0576 0.956085 53.598 1.00826 54.1272 1.11262C54.6639 1.20952 55.1484 1.34369 55.5807 1.51512C56.013 1.68656 56.3596 1.89154 56.6205 2.13007L55.9273 2.74501L55.8379 2.82328L55.7932 2.76737C55.7932 2.70029 55.7745 2.65184 55.7373 2.62202C55.7 2.59221 55.6292 2.54003 55.5248 2.46549C55.1447 2.24188 54.6825 2.07416 54.1384 1.96236C53.5943 1.84309 53.0427 1.78346 52.4836 1.78346C51.9842 1.78346 51.4811 1.82446 50.9742 1.90645C50.4674 1.98099 50.0052 2.11516 49.5878 2.30896C49.1779 2.50276 48.8462 2.7711 48.5927 3.11398C48.3393 3.45685 48.2126 3.89663 48.2126 4.43331C48.2126 4.91781 48.3281 5.33895 48.5592 5.69674C48.7903 6.05452 49.107 6.35268 49.5096 6.5912C49.9121 6.82972 50.3742 7.00862 50.896 7.12788C51.4252 7.23969 51.9842 7.29559 52.5731 7.29559C52.8787 7.29559 53.2253 7.27696 53.6129 7.23969C54.0005 7.20242 54.3732 7.15024 54.731 7.08316C55.0962 7.00862 55.3981 6.9229 55.6366 6.826V5.40604H52.6849V4.58984H56.6653V7.38504C55.3385 7.86954 53.9744 8.11179 52.5731 8.11179Z" fill="#424242"/>
<path d="M58.6107 1.03435L59.74 1.03435V1.11262C59.6952 1.15734 59.6654 1.20579 59.6505 1.25797C59.6431 1.31014 59.6393 1.39959 59.6393 1.52631V3.93017L66.6385 3.93017V1.03435L67.7678 1.03435V1.11262C67.723 1.15734 67.6932 1.20579 67.6783 1.25797C67.6709 1.31014 67.6671 1.39959 67.6671 1.52631V7.99998H66.6385V4.75755L59.6393 4.75755V7.99998H58.6107V1.03435Z" fill="#424242"/>
<path d="M7 4.49998L19 0.602866L19 8.39709L7 4.49998Z" fill="#424242"/>
<path d="M5.6907 26.3937C3.69452 26.3937 2.07936 26.0665 0.845215 25.4122L1.51613 24.6418L1.6031 24.5424L1.66522 24.6046C1.6735 24.6708 1.70249 24.7205 1.75219 24.7537C1.80189 24.7785 1.88886 24.8241 2.0131 24.8903C2.46038 25.0891 3.01947 25.2382 3.69038 25.3376C4.36958 25.4287 5.11918 25.4743 5.93918 25.4743C6.40302 25.4743 6.85858 25.4453 7.30586 25.3873C7.75313 25.3293 8.159 25.2465 8.52344 25.1388C8.88789 25.0229 9.17779 24.8862 9.39314 24.7288C9.61678 24.5714 9.7286 24.3934 9.7286 24.1946C9.7286 23.9378 9.58365 23.7307 9.29375 23.5734C9.01213 23.416 8.56486 23.2669 7.95192 23.1261C7.34727 22.9853 6.5604 22.8113 5.5913 22.6043C4.51453 22.3972 3.66553 22.1818 3.04432 21.9582C2.43139 21.7263 1.99239 21.4778 1.72734 21.2127C1.47057 20.9477 1.34219 20.6578 1.34219 20.343C1.34219 19.7549 1.75219 19.2911 2.57219 18.9515C3.40048 18.6036 4.54766 18.4297 6.01373 18.4297C6.85858 18.4297 7.66202 18.5125 8.42405 18.6782C9.18607 18.8438 9.83214 19.084 10.3622 19.3988L9.7286 20.1442L9.64163 20.2436L9.57951 20.1815C9.57123 20.1153 9.53809 20.0697 9.48011 20.0448C9.43042 20.02 9.34759 19.9786 9.23163 19.9206C8.77607 19.7301 8.24597 19.5893 7.64132 19.4982C7.03667 19.3988 6.40302 19.3491 5.74039 19.3491C5.33453 19.3491 4.93696 19.3698 4.54766 19.4112C4.15837 19.4443 3.80634 19.5023 3.49159 19.5851C3.18513 19.6597 2.94078 19.7549 2.75856 19.8709C2.57634 19.9869 2.48522 20.1235 2.48522 20.2809C2.48522 20.5791 2.83725 20.8566 3.54129 21.1133C4.25362 21.3618 5.39251 21.6434 6.95798 21.9582C7.96849 22.1653 8.75536 22.3723 9.3186 22.5794C9.89012 22.7865 10.2877 23.0184 10.5113 23.2752C10.7433 23.5237 10.8592 23.8177 10.8592 24.1573C10.8592 24.5383 10.6811 24.8986 10.325 25.2382C9.9688 25.5778 9.40971 25.8553 8.64769 26.0706C7.88566 26.286 6.9 26.3937 5.6907 26.3937Z" fill="#424242"/>
<path d="M19.0468 26.3937C17.8707 26.3937 16.8353 26.2404 15.9408 25.934C15.0545 25.6275 14.3587 25.1802 13.8535 24.5921C13.3565 23.9958 13.108 23.2793 13.108 22.4427C13.108 21.8547 13.2198 21.3411 13.4435 20.9021C13.6671 20.4631 13.9736 20.0904 14.3629 19.7839C14.7522 19.4692 15.1953 19.2166 15.6923 19.0261C16.1892 18.8355 16.7152 18.6947 17.2702 18.6036C17.8334 18.5125 18.3925 18.467 18.9474 18.467C20.0656 18.467 21.0223 18.6078 21.8175 18.8894C22.6209 19.1627 23.2214 19.5313 23.619 19.9952L22.7866 20.517L22.6747 20.5915L22.6375 20.517C22.654 20.4507 22.6375 20.3969 22.5878 20.3555C22.5464 20.314 22.4718 20.2519 22.3641 20.1691C21.9251 19.8543 21.4116 19.6473 20.8235 19.5479C20.2437 19.4402 19.6018 19.3864 18.8977 19.3864C18.3179 19.3864 17.7506 19.4361 17.1956 19.5355C16.6489 19.6348 16.152 19.8005 15.7047 20.0324C15.2657 20.2643 14.9178 20.575 14.6611 20.9642C14.4043 21.3453 14.2759 21.8174 14.2759 22.3806C14.2759 22.919 14.396 23.3828 14.6362 23.7721C14.8847 24.1614 15.2243 24.4845 15.655 24.7412C16.094 24.9897 16.5951 25.1761 17.1583 25.3003C17.7216 25.4163 18.3262 25.4743 18.9723 25.4743C19.3864 25.4743 19.8213 25.4411 20.2768 25.3749C20.7407 25.3003 21.1714 25.1927 21.569 25.0518C21.9666 24.911 22.2813 24.7454 22.5132 24.5549L23.3953 25.1264C22.8984 25.5405 22.302 25.8553 21.6062 26.0706C20.9105 26.286 20.0573 26.3937 19.0468 26.3937Z" fill="#424242"/>
<path d="M30.6139 26.4061C29.4708 26.4061 28.4852 26.2446 27.6569 25.9215C26.8286 25.5902 26.1908 25.1305 25.7435 24.5424C25.2963 23.9461 25.0726 23.2462 25.0726 22.4427C25.0726 21.6642 25.2963 20.9808 25.7435 20.3927C26.1908 19.7964 26.8286 19.3284 27.6569 18.9888C28.4852 18.6492 29.4708 18.4794 30.6139 18.4794C31.7569 18.4794 32.7426 18.6492 33.5709 18.9888C34.3991 19.3284 35.0369 19.7964 35.4842 20.3927C35.9315 20.9808 36.1551 21.6642 36.1551 22.4427C36.1551 23.2462 35.9315 23.9461 35.4842 24.5424C35.0369 25.1305 34.3991 25.5902 33.5709 25.9215C32.7426 26.2446 31.7569 26.4061 30.6139 26.4061ZM30.6139 25.4867C31.4836 25.4867 32.2456 25.3666 32.8999 25.1264C33.5626 24.8862 34.0761 24.5425 34.4406 24.0952C34.805 23.6396 34.9872 23.0888 34.9872 22.4427C34.9872 21.8298 34.805 21.2956 34.4406 20.84C34.0761 20.3844 33.5626 20.0324 32.8999 19.7839C32.2456 19.5272 31.4836 19.3988 30.6139 19.3988C29.7442 19.3988 28.978 19.5272 28.3154 19.7839C27.661 20.0324 27.1516 20.3844 26.7872 20.84C26.4227 21.2956 26.2405 21.8298 26.2405 22.4427C26.2405 23.0888 26.4227 23.6396 26.7872 24.0952C27.1516 24.5425 27.661 24.8862 28.3154 25.1264C28.978 25.3666 29.7442 25.4867 30.6139 25.4867Z" fill="#424242"/>
<path d="M38.2175 26.2694V18.5291H43.7836C45.1255 18.5291 46.1525 18.732 46.8649 19.1379C47.5772 19.5437 47.9334 20.078 47.9334 20.7406C47.9334 21.1299 47.8008 21.4778 47.5358 21.7843C47.2707 22.0907 46.898 22.3351 46.4176 22.5173C45.9455 22.6995 45.3988 22.8072 44.7776 22.8403L48.3558 26.2694H46.7903L43.3612 22.9273H39.3606V26.2694H38.2175ZM39.3606 22.0079H43.8582C44.8687 22.0079 45.61 21.9002 46.0821 21.6849C46.5625 21.4695 46.8028 21.1548 46.8028 20.7406C46.8028 20.3513 46.5584 20.0407 46.0697 19.8088C45.5893 19.5686 44.8107 19.4485 43.7339 19.4485H39.3606V22.0079Z" fill="#424242"/>
<path d="M50.5922 26.2694V18.5167H60.3328V19.4361H51.7352V21.7718H58.9662V22.6912H51.7352V25.35H60.2583V26.2694H50.5922Z" fill="#424242"/>
<path d="M78 22.5L66 26.3971L66 18.6029L78 22.5Z" fill="#424242"/>
</svg>
