<svg width="236" height="269" viewBox="0 0 236 269" fill="none" xmlns="http://www.w3.org/2000/svg">
<path d="M0 0H236V269H0V0Z" fill="#F5EDDD"/>
<path fill-rule="evenodd" clip-rule="evenodd" d="M232 4H4V265H232V4ZM0 0V269H236V0H0Z" fill="#424242"/>
<path d="M112.274 81.9C115.874 81.9 119.041 82.5667 121.774 83.9C124.574 85.1667 126.741 86.9667 128.274 89.3C129.808 91.6333 130.574 94.2333 130.574 97.1C130.574 101.033 129.308 104.433 126.774 107.3C124.308 110.1 120.874 112.8 116.474 115.4L134.074 132C136.741 126.6 138.741 120.967 140.074 115.1L148.674 117.6C146.341 125.333 143.374 131.9 139.774 137.3L150.974 147.8L144.374 153.2L134.674 143.8C131.808 146.933 128.574 149.3 124.974 150.9C121.374 152.433 117.241 153.2 112.574 153.2C108.174 153.2 104.274 152.433 100.874 150.9C97.541 149.367 94.9077 147.2 92.9743 144.4C91.1076 141.533 90.1743 138.233 90.1743 134.5C90.1743 130.367 91.341 126.767 93.6743 123.7C96.0076 120.567 99.4743 117.533 104.074 114.6C100.741 111.4 98.2743 108.533 96.6743 106C95.141 103.467 94.3743 100.6 94.3743 97.4C94.3743 92.8667 95.941 89.1667 99.0743 86.3C102.274 83.3667 106.674 81.9 112.274 81.9ZM112.374 88.7C109.574 88.7 107.374 89.5 105.774 91.1C104.174 92.7 103.374 94.7667 103.374 97.3C103.374 99.7 104.008 101.867 105.274 103.8C106.541 105.667 108.541 107.9 111.274 110.5C114.674 108.433 117.241 106.4 118.974 104.4C120.708 102.333 121.574 100.067 121.574 97.6C121.574 94.8 120.741 92.6333 119.074 91.1C117.408 89.5 115.174 88.7 112.374 88.7ZM109.374 119.6C106.041 121.8 103.574 124.067 101.974 126.4C100.374 128.667 99.5743 131.267 99.5743 134.2C99.5743 137.867 100.841 140.733 103.374 142.8C105.974 144.867 109.374 145.9 113.574 145.9C116.708 145.9 119.541 145.3 122.074 144.1C124.608 142.9 127.041 141.1 129.374 138.7L109.374 119.6Z" fill="#424242"/>
<path d="M80.6094 221V207.22H87.9294L87.7094 208.74H82.5094V213.44H87.0094V214.94H82.5094V221H80.6094Z" fill="#424242"/>
<path d="M91.4705 210.46V221H89.6305V210.46H91.4705ZM90.5305 205.4C90.9171 205.4 91.2305 205.52 91.4705 205.76C91.7105 206 91.8305 206.3 91.8305 206.66C91.8305 207.02 91.7105 207.32 91.4705 207.56C91.2305 207.787 90.9171 207.9 90.5305 207.9C90.1571 207.9 89.8505 207.787 89.6105 207.56C89.3705 207.32 89.2505 207.02 89.2505 206.66C89.2505 206.3 89.3705 206 89.6105 205.76C89.8505 205.52 90.1571 205.4 90.5305 205.4Z" fill="#424242"/>
<path d="M99.855 210.22C100.228 210.22 100.575 210.26 100.895 210.34L100.555 212.14C100.235 212.06 99.9283 212.02 99.635 212.02C98.9817 212.02 98.455 212.26 98.055 212.74C97.655 213.22 97.3417 213.967 97.115 214.98V221H95.275V210.46H96.855L97.035 212.6C97.315 211.813 97.695 211.22 98.175 210.82C98.655 210.42 99.215 210.22 99.855 210.22Z" fill="#424242"/>
<path d="M109.387 218.54C109.387 218.967 109.46 219.287 109.607 219.5C109.753 219.7 109.973 219.853 110.267 219.96L109.847 221.24C109.3 221.173 108.86 221.02 108.527 220.78C108.193 220.54 107.947 220.167 107.787 219.66C107.08 220.713 106.033 221.24 104.647 221.24C103.607 221.24 102.787 220.947 102.187 220.36C101.587 219.773 101.287 219.007 101.287 218.06C101.287 216.94 101.687 216.08 102.487 215.48C103.3 214.88 104.447 214.58 105.927 214.58H107.547V213.8C107.547 213.053 107.367 212.52 107.007 212.2C106.647 211.88 106.093 211.72 105.347 211.72C104.573 211.72 103.627 211.907 102.507 212.28L102.047 210.94C103.353 210.46 104.567 210.22 105.687 210.22C106.927 210.22 107.853 210.527 108.467 211.14C109.08 211.74 109.387 212.6 109.387 213.72V218.54ZM105.067 219.86C106.12 219.86 106.947 219.313 107.547 218.22V215.8H106.167C104.22 215.8 103.247 216.52 103.247 217.96C103.247 218.587 103.4 219.06 103.707 219.38C104.013 219.7 104.467 219.86 105.067 219.86Z" fill="#424242"/>
<path d="M121.959 206.98C122.879 206.98 123.665 207.113 124.319 207.38C124.972 207.633 125.605 208.033 126.219 208.58L125.179 209.74C124.659 209.327 124.145 209.027 123.639 208.84C123.145 208.64 122.612 208.54 122.039 208.54C121.319 208.54 120.725 208.707 120.259 209.04C119.792 209.373 119.559 209.86 119.559 210.5C119.559 210.9 119.639 211.24 119.799 211.52C119.959 211.787 120.252 212.033 120.679 212.26C121.119 212.487 121.752 212.727 122.579 212.98C123.445 213.247 124.165 213.533 124.739 213.84C125.312 214.147 125.772 214.573 126.119 215.12C126.479 215.653 126.659 216.333 126.659 217.16C126.659 217.96 126.459 218.667 126.059 219.28C125.672 219.893 125.105 220.373 124.359 220.72C123.625 221.067 122.752 221.24 121.739 221.24C119.832 221.24 118.272 220.647 117.059 219.46L118.099 218.3C118.659 218.753 119.225 219.1 119.799 219.34C120.372 219.567 121.012 219.68 121.719 219.68C122.572 219.68 123.279 219.473 123.839 219.06C124.399 218.633 124.679 218.02 124.679 217.22C124.679 216.767 124.592 216.393 124.419 216.1C124.245 215.793 123.945 215.52 123.519 215.28C123.105 215.04 122.499 214.8 121.699 214.56C120.285 214.133 119.252 213.62 118.599 213.02C117.945 212.42 117.619 211.607 117.619 210.58C117.619 209.887 117.799 209.267 118.159 208.72C118.532 208.173 119.045 207.747 119.699 207.44C120.365 207.133 121.119 206.98 121.959 206.98Z" fill="#424242"/>
<path d="M136.457 218.54C136.457 218.967 136.53 219.287 136.677 219.5C136.824 219.7 137.044 219.853 137.337 219.96L136.917 221.24C136.37 221.173 135.93 221.02 135.597 220.78C135.264 220.54 135.017 220.167 134.857 219.66C134.15 220.713 133.104 221.24 131.717 221.24C130.677 221.24 129.857 220.947 129.257 220.36C128.657 219.773 128.357 219.007 128.357 218.06C128.357 216.94 128.757 216.08 129.557 215.48C130.37 214.88 131.517 214.58 132.997 214.58H134.617V213.8C134.617 213.053 134.437 212.52 134.077 212.2C133.717 211.88 133.164 211.72 132.417 211.72C131.644 211.72 130.697 211.907 129.577 212.28L129.117 210.94C130.424 210.46 131.637 210.22 132.757 210.22C133.997 210.22 134.924 210.527 135.537 211.14C136.15 211.74 136.457 212.6 136.457 213.72V218.54ZM132.137 219.86C133.19 219.86 134.017 219.313 134.617 218.22V215.8H133.237C131.29 215.8 130.317 216.52 130.317 217.96C130.317 218.587 130.47 219.06 130.777 219.38C131.084 219.7 131.537 219.86 132.137 219.86Z" fill="#424242"/>
<path d="M145.196 210.22C146.156 210.22 146.903 210.507 147.436 211.08C147.983 211.653 148.256 212.44 148.256 213.44V221H146.416V213.7C146.416 212.953 146.276 212.427 145.996 212.12C145.716 211.813 145.303 211.66 144.756 211.66C144.196 211.66 143.703 211.82 143.276 212.14C142.849 212.46 142.449 212.92 142.076 213.52V221H140.236V210.46H141.816L141.976 212.02C142.349 211.46 142.809 211.02 143.356 210.7C143.916 210.38 144.529 210.22 145.196 210.22Z" fill="#424242"/>
<path d="M154.815 210.22C155.535 210.22 156.181 210.32 156.755 210.52C157.328 210.72 157.875 211.02 158.395 211.42L157.615 212.58C157.135 212.273 156.675 212.047 156.235 211.9C155.808 211.753 155.355 211.68 154.875 211.68C154.275 211.68 153.801 211.807 153.455 212.06C153.108 212.3 152.935 212.633 152.935 213.06C152.935 213.487 153.095 213.82 153.415 214.06C153.748 214.3 154.341 214.533 155.195 214.76C156.368 215.053 157.241 215.453 157.815 215.96C158.401 216.467 158.695 217.16 158.695 218.04C158.695 219.08 158.288 219.873 157.475 220.42C156.675 220.967 155.695 221.24 154.535 221.24C152.935 221.24 151.608 220.78 150.555 219.86L151.535 218.74C152.428 219.42 153.415 219.76 154.495 219.76C155.188 219.76 155.735 219.62 156.135 219.34C156.548 219.047 156.755 218.653 156.755 218.16C156.755 217.8 156.681 217.513 156.535 217.3C156.388 217.073 156.135 216.88 155.775 216.72C155.415 216.547 154.888 216.367 154.195 216.18C153.075 215.887 152.261 215.493 151.755 215C151.261 214.507 151.015 213.88 151.015 213.12C151.015 212.573 151.175 212.08 151.495 211.64C151.828 211.187 152.281 210.84 152.855 210.6C153.441 210.347 154.095 210.22 154.815 210.22Z" fill="#424242"/>
</svg>
