<svg width="236" height="269" viewBox="0 0 236 269" fill="none" xmlns="http://www.w3.org/2000/svg">
<path d="M0 0H236V269H0V0Z" fill="#F5EDDD"/>
<path fill-rule="evenodd" clip-rule="evenodd" d="M232 4H4V265H232V4ZM0 0V269H236V0H0Z" fill="#424242"/>
<path d="M114.285 155.994C120.961 155.994 128.418 153.651 133.141 148.821L138.29 155H148.375L138.326 142.749C141.06 139.233 144.114 133.338 144.114 123.182H136.017C136.017 128.153 134.881 132.557 132.999 136.214L117.196 116.932L122.523 112.955C128.489 108.551 132.182 103.722 132.182 96.7614C132.182 88.6648 125.506 81.5625 114.569 81.5625C103.915 81.5625 96.955 88.2386 96.955 98.0398C96.955 104.503 100.471 109.474 105.478 115.511C96.9905 121.406 91.1311 126.875 91.1311 135.682C91.1311 147.472 99.9379 155.994 114.285 155.994ZM128.134 142.749C124.121 146.513 119.043 148.608 114 148.608C105.336 148.608 99.6538 142.5 99.6538 135.682C99.6538 133.693 101.5 128.58 108.035 123.75L110.733 121.761L128.134 142.749ZM112.047 110.682C108.496 106.349 105.478 102.23 105.478 98.1818C105.478 93.6364 109.313 88.8068 114.853 88.8068C120.108 88.8068 123.66 93.0682 123.66 96.7614C123.66 101.733 120.961 104.432 116.841 107.131L112.047 110.682Z" fill="#424242"/>
<path d="M100.912 207.455H99.1501V222H100.912V207.455Z" fill="#424242"/>
<path d="M105.892 215.438C105.892 213.534 107.071 212.455 108.676 212.455C110.231 212.455 111.176 213.47 111.176 215.182V222H112.852V215.068C112.852 212.284 111.368 210.949 109.159 210.949C107.511 210.949 106.489 211.687 105.977 212.795H105.835V211.091H104.216V222H105.892V215.438Z" fill="#424242"/>
<path d="M120.659 211.091H118.33V208.477H116.654V211.091H115.006V212.511H116.654V219.33C116.654 221.233 118.188 222.142 119.608 222.142C120.233 222.142 120.631 222.028 120.858 221.943L120.517 220.438C120.375 220.466 120.148 220.523 119.779 220.523C119.04 220.523 118.33 220.295 118.33 218.875V212.511H120.659V211.091Z" fill="#424242"/>
<path d="M127.637 222.227C129.853 222.227 131.473 221.119 131.984 219.472L130.365 219.017C129.939 220.153 128.951 220.722 127.637 220.722C125.67 220.722 124.313 219.45 124.235 217.114H132.154V216.403C132.154 212.341 129.74 210.949 127.467 210.949C124.512 210.949 122.552 213.278 122.552 216.631C122.552 219.983 124.484 222.227 127.637 222.227ZM124.235 215.665C124.349 213.967 125.549 212.455 127.467 212.455C129.285 212.455 130.45 213.818 130.45 215.665H124.235Z" fill="#424242"/>
<path d="M134.704 222H136.38V215.097C136.38 213.619 137.545 212.54 139.136 212.54C139.583 212.54 140.045 212.625 140.159 212.653V210.949C139.967 210.935 139.527 210.92 139.278 210.92C137.971 210.92 136.835 211.659 136.437 212.739H136.323V211.091H134.704V222Z" fill="#424242"/>
</svg>
