<svg width="236" height="269" viewBox="0 0 236 269" fill="none" xmlns="http://www.w3.org/2000/svg">
<path d="M0 0H236V269H0V0Z" fill="#F5EDDD"/>
<path fill-rule="evenodd" clip-rule="evenodd" d="M232 4H4V265H232V4ZM0 0V269H236V0H0Z" fill="#424242"/>
<path d="M137.248 141.2C139.848 143.933 142.014 145.767 143.748 146.7C145.548 147.567 147.648 148 150.048 148L148.048 154C145.381 154 142.981 153.5 140.848 152.5C138.714 151.5 136.081 149.433 132.948 146.3C130.348 148.767 127.381 150.667 124.048 152C120.714 153.333 117.081 154 113.148 154C109.081 154 105.448 153.267 102.248 151.8C99.0477 150.333 96.5477 148.3 94.7477 145.7C93.0144 143.1 92.1477 140.167 92.1477 136.9C92.1477 132.767 93.3477 129.1 95.7477 125.9C98.2144 122.633 102.281 119.5 107.948 116.5C105.081 112.767 103.081 109.8 101.948 107.6C100.881 105.4 100.348 103.067 100.348 100.6C100.348 98.1333 100.948 95.8 102.148 93.6C103.348 91.3333 105.114 89.5 107.448 88.1C109.781 86.7 112.581 86 115.848 86C120.181 86 123.814 87.1333 126.748 89.4C129.748 91.6 131.248 95 131.248 99.6C131.248 103.4 130.348 106.7 128.548 109.5C126.814 112.3 123.381 115.2 118.248 118.2C119.381 119.733 121.581 122.5 124.848 126.5L128.448 131L132.848 136.3C135.648 131.7 137.048 126.333 137.048 120.2C137.048 119 137.014 118.1 136.948 117.5L143.348 118.3L143.448 120.7C143.448 124.433 142.914 128.067 141.848 131.6C140.781 135.067 139.248 138.267 137.248 141.2ZM115.748 92.8C113.214 92.8 111.248 93.5333 109.848 95C108.514 96.4667 107.848 98.3 107.848 100.5C107.848 102.233 108.248 103.933 109.048 105.6C109.848 107.2 111.614 109.767 114.348 113.3C118.414 111.1 121.048 108.967 122.248 106.9C123.514 104.833 124.148 102.467 124.148 99.8C124.148 95.1333 121.348 92.8 115.748 92.8ZM112.848 147.5C115.848 147.5 118.681 147 121.348 146C124.014 145 126.414 143.533 128.548 141.6C126.281 139.133 123.248 135.533 119.448 130.8L112.048 121.7C107.181 124.5 103.881 127 102.148 129.2C100.481 131.333 99.6477 133.7 99.6477 136.3C99.6477 139.5 100.948 142.167 103.548 144.3C106.148 146.433 109.248 147.5 112.848 147.5Z" fill="#424242"/>
<path d="M73.8715 221H71.8915L67.9915 207.8H69.7115L72.8915 219.74L76.0115 207.8H77.8315L80.9515 219.78L84.1515 207.8H85.7715L81.8915 221H79.9115L77.5715 212.44L76.8915 209.46H76.8715L76.1915 212.44L73.8715 221Z" fill="#424242"/>
<path d="M91.8866 210.8C93.3933 210.8 94.5733 211.26 95.4266 212.18C96.2933 213.1 96.7266 214.373 96.7266 216C96.7266 217.627 96.2933 218.9 95.4266 219.82C94.5733 220.74 93.3933 221.2 91.8866 221.2C90.3799 221.2 89.1933 220.74 88.3266 219.82C87.4733 218.9 87.0466 217.627 87.0466 216C87.0466 214.373 87.4733 213.1 88.3266 212.18C89.1933 211.26 90.3799 210.8 91.8866 210.8ZM91.8866 212.18C90.8733 212.18 90.0799 212.52 89.5066 213.2C88.9333 213.88 88.6466 214.813 88.6466 216C88.6466 217.187 88.9333 218.12 89.5066 218.8C90.0799 219.48 90.8733 219.82 91.8866 219.82C92.8999 219.82 93.6933 219.48 94.2666 218.8C94.8399 218.12 95.1266 217.187 95.1266 216C95.1266 214.813 94.8399 213.88 94.2666 213.2C93.6933 212.52 92.8999 212.18 91.8866 212.18Z" fill="#424242"/>
<path d="M104.555 210.8C105.035 210.8 105.401 210.867 105.655 211L105.335 212.56C105.015 212.387 104.595 212.3 104.075 212.3C103.648 212.3 103.228 212.427 102.815 212.68C102.415 212.92 102.081 213.293 101.815 213.8C101.561 214.293 101.435 214.893 101.435 215.6V221H99.8346V211H101.135L101.355 212.64C101.915 211.413 102.981 210.8 104.555 210.8Z" fill="#424242"/>
<path d="M111.719 216.06L109.599 218.18V221H107.999V206.4H109.599V216.18L114.779 211H116.779L112.879 214.9L117.019 221H115.079L111.719 216.06Z" fill="#424242"/>
<path d="M130.253 207.6C132.613 207.6 134.313 208.533 135.353 210.4L133.973 211.52C133.573 210.64 133.093 210.02 132.533 209.66C131.987 209.287 131.233 209.1 130.273 209.1C129.26 209.1 128.46 209.313 127.873 209.74C127.3 210.153 127.013 210.687 127.013 211.34C127.013 211.767 127.127 212.12 127.353 212.4C127.58 212.68 127.953 212.927 128.473 213.14C129.007 213.34 129.74 213.52 130.673 213.68C132.42 213.973 133.653 214.413 134.373 215C135.107 215.587 135.473 216.4 135.473 217.44C135.473 218.187 135.26 218.847 134.833 219.42C134.42 219.98 133.827 220.42 133.053 220.74C132.28 221.047 131.387 221.2 130.373 221.2C129.04 221.2 127.9 220.94 126.953 220.42C126.02 219.9 125.307 219.207 124.813 218.34L126.193 217.22C126.553 218.007 127.08 218.62 127.773 219.06C128.48 219.487 129.36 219.7 130.413 219.7C131.453 219.7 132.28 219.513 132.893 219.14C133.507 218.753 133.813 218.213 133.813 217.52C133.813 216.933 133.547 216.467 133.013 216.12C132.48 215.773 131.533 215.48 130.173 215.24C128.413 214.933 127.167 214.493 126.433 213.92C125.7 213.347 125.333 212.547 125.333 211.52C125.333 210.813 125.533 210.16 125.933 209.56C126.333 208.96 126.907 208.487 127.653 208.14C128.4 207.78 129.267 207.6 130.253 207.6Z" fill="#424242"/>
<path d="M146.531 219.84C146.797 219.84 147.064 219.807 147.331 219.74L147.231 221C146.857 221.133 146.457 221.2 146.031 221.2C145.511 221.2 145.097 221.087 144.791 220.86C144.497 220.633 144.311 220.253 144.231 219.72C143.924 220.187 143.471 220.553 142.871 220.82C142.284 221.073 141.664 221.2 141.011 221.2C140.024 221.2 139.211 220.973 138.571 220.52C137.931 220.053 137.611 219.387 137.611 218.52C137.611 217.76 137.944 217.107 138.611 216.56C139.277 216 140.244 215.613 141.511 215.4L144.171 214.96V214.4C144.171 213.733 143.964 213.2 143.551 212.8C143.137 212.4 142.564 212.2 141.831 212.2C141.164 212.2 140.584 212.36 140.091 212.68C139.611 213 139.237 213.473 138.971 214.1L137.791 213.24C138.057 212.493 138.551 211.9 139.271 211.46C140.004 211.02 140.857 210.8 141.831 210.8C143.017 210.8 143.971 211.087 144.691 211.66C145.411 212.233 145.771 213.08 145.771 214.2V219.12C145.771 219.36 145.831 219.54 145.951 219.66C146.071 219.78 146.264 219.84 146.531 219.84ZM141.091 219.8C141.931 219.8 142.651 219.6 143.251 219.2C143.864 218.8 144.171 218.28 144.171 217.64V216.26L141.931 216.68C141.037 216.84 140.371 217.073 139.931 217.38C139.491 217.673 139.271 218.053 139.271 218.52C139.271 218.933 139.431 219.253 139.751 219.48C140.071 219.693 140.517 219.8 141.091 219.8Z" fill="#424242"/>
<path d="M154.519 210.8C155.652 210.8 156.585 211.127 157.319 211.78C158.052 212.433 158.419 213.373 158.419 214.6V221H156.819V215.16C156.819 214.12 156.592 213.367 156.139 212.9C155.699 212.433 155.105 212.2 154.359 212.2C153.825 212.2 153.325 212.32 152.859 212.56C152.392 212.787 152.005 213.167 151.699 213.7C151.405 214.22 151.259 214.88 151.259 215.68V221H149.659V211H151.059L151.159 212.56C151.492 211.96 151.952 211.52 152.539 211.24C153.125 210.947 153.785 210.8 154.519 210.8Z" fill="#424242"/>
<path d="M165.442 221.2C164.482 221.2 163.615 221.013 162.842 220.64C162.068 220.253 161.502 219.687 161.142 218.94L162.442 218.04C162.668 218.627 163.062 219.067 163.622 219.36C164.182 219.653 164.842 219.8 165.602 219.8C166.388 219.8 166.988 219.66 167.402 219.38C167.815 219.1 168.022 218.747 168.022 218.32C168.022 217.933 167.828 217.627 167.442 217.4C167.055 217.16 166.375 216.953 165.402 216.78C164.442 216.607 163.682 216.4 163.122 216.16C162.562 215.907 162.155 215.593 161.902 215.22C161.648 214.833 161.522 214.36 161.522 213.8C161.522 213.253 161.682 212.753 162.002 212.3C162.322 211.847 162.782 211.487 163.382 211.22C163.982 210.94 164.675 210.8 165.462 210.8C166.528 210.8 167.382 211 168.022 211.4C168.675 211.787 169.142 212.387 169.422 213.2L168.062 214C167.848 213.36 167.522 212.9 167.082 212.62C166.655 212.34 166.115 212.2 165.462 212.2C164.808 212.2 164.255 212.347 163.802 212.64C163.348 212.933 163.122 213.273 163.122 213.66C163.122 214.1 163.315 214.44 163.702 214.68C164.102 214.92 164.808 215.127 165.822 215.3C167.208 215.527 168.188 215.867 168.762 216.32C169.335 216.773 169.622 217.413 169.622 218.24C169.622 218.813 169.448 219.327 169.102 219.78C168.768 220.22 168.282 220.567 167.642 220.82C167.015 221.073 166.282 221.2 165.442 221.2Z" fill="#424242"/>
</svg>
